SplineFontDB: 3.2
FontName: ContemporarityAMedium
FullName: Contemporarity A Medium
FamilyName: Contemporarity A Medium
Weight: Medium
Copyright: Copyright (c) 2022, RandomMaerks (Bao Nguyen)
UComments: "2021-9-19: Created with FontForge (http://fontforge.org)"
Version: 1.0
ItalicAngle: 0
UnderlinePosition: -100
UnderlineWidth: 50
Ascent: 800
Descent: 200
InvalidEm: 0
LayerCount: 2
Layer: 0 0 "Back" 1
Layer: 1 0 "Fore" 0
XUID: [1021 301 932173752 18320]
FSType: 0
OS2Version: 0
OS2_WeightWidthSlopeOnly: 0
OS2_UseTypoMetrics: 1
CreationTime: 1632014103
ModificationTime: 1655911950
PfmFamily: 33
TTFWeight: 500
TTFWidth: 5
LineGap: 90
VLineGap: 0
Panose: 2 0 6 3 0 0 0 0 0 4
OS2TypoAscent: 0
OS2TypoAOffset: 1
OS2TypoDescent: 0
OS2TypoDOffset: 1
OS2TypoLinegap: 90
OS2WinAscent: 0
OS2WinAOffset: 1
OS2WinDescent: 0
OS2WinDOffset: 1
HheadAscent: 0
HheadAOffset: 1
HheadDescent: 0
HheadDOffset: 1
OS2FamilyClass: 2052
OS2Vendor: 'PfEd'
OS2CodePages: 00000103.00000000
OS2UnicodeRanges: 2000000f.00000000.00000000.00000000
Lookup: 1 0 0 "'ss03' Style Set 3 in Latin lookup 2" { "'ss03' Style Set 3 in Latin lookup 2-1"  } ['ss03' ('DFLT' <'dflt' > 'latn' <'dflt' > ) ]
Lookup: 1 0 0 "'ss01' Style Set 1 in Latin lookup 0" { "'ss01' Style Set 1 in Latin lookup 0-1"  } ['ss01' ('DFLT' <'dflt' > 'latn' <'dflt' > ) ]
Lookup: 1 0 0 "'ss02' Style Set 2 in Latin lookup 1" { "'ss02' Style Set 2 in Latin lookup 1-1" ("ss02") } ['ss02' ('DFLT' <'dflt' > 'latn' <'dflt' > ) ]
Lookup: 258 0 0 "'kern' Horizontal Kerning in Latin lookup 0" { "'kern' Horizontal Kerning in Latin lookup 0-1" [100,0,2] } ['kern' ('DFLT' <'dflt' > 'latn' <'dflt' > ) ]
MarkAttachClasses: 1
DEI: 91125
KernClass2: 81 62 "'kern' Horizontal Kerning in Latin lookup 0-1"
 117 zero D O Eth Ograve Oacute Ocircumflex Otilde Odieresis Oslash Dcroat uni1ECC uni1ECE uni1ED2 uni1ED4 uni1ED6 uni1ED8
 26 one H I M N d i j l Ntilde
 3 two
 5 three
 4 four
 4 five
 3 six
 5 seven
 7 eight B
 4 nine
 6 A Adtb
 10 C Ccedilla

StartChar: n
Encoding: 77 110 0
Width: 644
VWidth: 1300
Flags: W
HStem: 0 21G<46 149 492 595> 487 94<264.352 428.224> 544 20G<46 149>
VStem: 46 103<0 373.133 453 564> 492 103<0 408.613>
LayerCount: 2
Fore
SplineSet
46 564 m 5xb8
 149 564 l 5xb8
 149 453 l 5
 193.56640625 537.288085938 266.838867188 581 363.561523438 581 c 4
 512.0625 581 595 477.434570312 595 292 c 6
 595 0 l 5
 492 0 l 5
 492 292 l 6
 492 420.186523438 443.971679688 487 351.826171875 487 c 4xd8
 248.188476562 487 152.265625 397.142578125 149 297 c 5
 149 0 l 5
 46 0 l 5
 46 564 l 5xb8
  Spiro
    46 564 v
    149 564 v
    149 453 v
    204.011 524.795 o
    275.003 567.176 o
    358 581 o
    488.672 546.808 o
    568.276 448.131 o
    595 292 [
    595 0 v
    492 0 v
    492 292 ]
    476.551 396.247 o
    425.41 463.38 o
    332 487 o
    244.414 458.239 o
    177.283 387.064 o
    149 297 v
    149 0 v
    46 0 v
    0 0 z
  EndSpiro
EndSplineSet
EndChar

StartChar: h
Encoding: 71 104 1
Width: 646
VWidth: 1300
Flags: HW
HStem: 0 21G<48 151 494 597> 487 94<259.399 422.15> 742 20G<48 151>
VStem: 48 103<0 373.735 453 762> 494 103<0 407.609>
LayerCount: 2
Fore
SplineSet
48 762 m 1
 151 762 l 1
 151 453 l 1
 191.133789062 537.827148438 261.977539062 581 361.041992188 581 c 0
 513.239257812 581 597 478.41015625 597 292 c 2
 597 0 l 1
 494 0 l 1
 494 292 l 2
 494 420.186523438 445.971679688 487 353.826171875 487 c 0
 250.188476562 487 154.265625 397.142578125 151 297 c 1
 151 0 l 1
 48 0 l 1
 48 762 l 1
EndSplineSet
EndChar

StartChar: u
Encoding: 84 117 2
Width: 616
VWidth: 1300
Flags: HW
HStem: -16 94<203.923 358.092> 1 21G<461 564> 546 20G<44 147 461 564>
VStem: 44 103<139.978 566> 461 103<1 112 187.985 566>
LayerCount: 2
Fore
SplineSet
564 1 m 1x78
 461 1 l 1x78
 461 112 l 1
 415.203125 25.384765625 348.41796875 -16 254.438476562 -16 c 0
 112.459960938 -16 44 78.017578125 44 273 c 2
 44 566 l 1
 147 566 l 1
 147 273 l 2
 147 132.319335938 180.123046875 78 265.909179688 78 c 0xb8
 367.641601562 78 457.645507812 166.116210938 461 269 c 1
 461 566 l 1
 564 566 l 1
 564 1 l 1x78
EndSplineSet
EndChar

StartChar: m
Encoding: 76 109 3
Width: 918
VWidth: 1300
Flags: HW
HStem: 1 21G<46 149 410 513> 489 93<219.873 354.473 572.966 712.081> 546 20G<46 149>
VStem: 46 103<1 402.699 455 566> 410 103<1 416.388> 766 103<3 423.638>
LayerCount: 2
Fore
SplineSet
46 566 m 1xbc
 149 566 l 1xbc
 149 455 l 1
 177.852539062 545.536132812 222.578125 582 304.776367188 582 c 0
 392.123046875 582 440.825195312 543.31640625 476 446 c 1
 508.71484375 537.912109375 568.493164062 582 660.403320312 582 c 0
 800.801757812 582 869 488.16796875 869 295 c 2
 869 3 l 1
 766 3 l 1
 766 295 l 2
 766 429.71484375 730.127929688 489 648.616210938 489 c 0
 562.271484375 489 513 418.153320312 513 294 c 2
 513 1 l 1
 410 1 l 1
 410 294 l 2
 410 424.268554688 370.545898438 489 291.146484375 489 c 0xdc
 208.634765625 489 152.78125 413.94921875 149 298 c 2
 149 1 l 1
 46 1 l 1
 46 566 l 1xbc
EndSplineSet
EndChar

StartChar: o
Encoding: 78 111 4
Width: 634
VWidth: 1300
Flags: W
HStem: -12 99<235.25 396.87> 480 101<230.138 399.216>
VStem: 40 104<184.987 384.41> 486 103<185.44 384.827>
LayerCount: 2
Fore
SplineSet
144 285.231445312 m 4
 144 167.526367188 213.260742188 87 314.5 87 c 4
 416.311523438 87 486 168.1953125 486 286.81640625 c 4
 486 402.735351562 417.743164062 480 315.337890625 480 c 4
 212.919921875 480 144 401.655273438 144 285.231445312 c 4
40 285 m 0
 40 455.635742188 156.046875 581 314 581 c 0
 472.225585938 581 589 455.30859375 589 285 c 0
 589 114.389648438 471.97265625 -12 314 -12 c 0
 156.298828125 -12 40 114.060546875 40 285 c 0
EndSplineSet
EndChar

StartChar: r
Encoding: 81 114 5
Width: 493
VWidth: 1300
Flags: W
HStem: 0 21G<46 149> 489 93<242.496 397.282> 544 20G<46 149>
VStem: 46 103<0 385.817 477 564>
LayerCount: 2
Fore
SplineSet
434 436 m 1xd0
 403.4609375 471.030273438 364.4609375 489 318.973632812 489 c 0xd0
 225.830078125 489 152.5625 406.237304688 149 297 c 1
 149 0 l 1
 46 0 l 1
 46 564 l 1
 149 564 l 1xb0
 149 477 l 1
 182.4765625 545.8125 246.145507812 582 333.740234375 582 c 0
 386.536132812 582 417.956054688 569.043945312 455 532 c 1
 434 436 l 1xd0
EndSplineSet
EndChar

StartChar: l
Encoding: 75 108 6
Width: 203
VWidth: 1300
Flags: HW
HStem: 0 21G<48 151> 742 20G<48 151>
VStem: 48 103<0 762>
LayerCount: 2
Fore
SplineSet
151 0 m 5
 48 0 l 5
 48 762 l 5
 151 762 l 5
 151 0 l 5
EndSplineSet
EndChar

StartChar: i
Encoding: 72 105 7
Width: 205
VWidth: 1300
Flags: HW
HStem: 0 21G<57 160> 544 20G<57 160> 654 118<62.3386 153.661>
VStem: 49 118<667.339 758.661> 57 103<0 564>
LayerCount: 2
Fore
SplineSet
41 710 m 0xf0
 41 743 67 769 100 769 c 0
 133 769 159 743 159 710 c 0
 159 677 133 651 100 651 c 0
 67 651 41 677 41 710 c 0xf0
152 -3 m 1xe8
 49 -3 l 1
 49 561 l 1
 152 561 l 1
 152 -3 l 1xe8
EndSplineSet
EndChar

StartChar: t
Encoding: 83 116 8
Width: 572
VWidth: 1300
Flags: HW
HStem: -8 96<310.911 459.441>
VStem: 166 103<137.966 238>
LayerCount: 2
Fore
SplineSet
368 88 m 1
 420.903320312 88 466.609375 105.854492188 496 138 c 1
 538 62 l 1
 499.146484375 20.232421875 416.077148438 -10.06640625 346.47265625 -7.8564453125 c 0
 235.963867188 -4.34765625 166 81.6591796875 166 214 c 2
 166 468 l 1
 34 468 l 1
 34 564 l 1
 166 564 l 1
 166 722 l 1
 269 722 l 1
 269 564 l 1
 503 564 l 1
 503 468 l 1
 269 468 l 1
 269 238 l 2
 269 142.751953125 304.44921875 89.0419921875 368 88 c 1
EndSplineSet
Substitution2: "'ss03' Style Set 3 in Latin lookup 2-1" t.ss03
EndChar

StartChar: e
Encoding: 68 101 9
Width: 632
VWidth: 1300
Flags: HW
HStem: -12 93<225.185 432.279> 477 97<221.702 394.951>
VStem: 40 99<163.753 244 335 392.778>
LayerCount: 2
Fore
SplineSet
313.296875 574 m 0
 479.62109375 574 589 443.080078125 589 244 c 1
 139 244 l 1
 145.51953125 139.688476562 215.940429688 81 334.584960938 81 c 0
 401.715820312 81 449.333007812 101.043945312 489 146 c 1
 547 79 l 1
 494.4453125 15.6953125 428.1875 -12 329.29296875 -12 c 0
 144.463867188 -12 40 88.5849609375 40 266.549804688 c 0
 40 449.626953125 150.556640625 574 313.296875 574 c 0
138 335 m 1
 482 336 l 1
 471.420898438 417.455078125 398.20703125 477 308.629882812 477 c 0
 220.283203125 477 150.784179688 419.162109375 138 335 c 1
EndSplineSet
EndChar

StartChar: b
Encoding: 65 98 10
Width: 643
VWidth: 1300
Flags: HW
HStem: -12 94<240.367 409.382> 0 21G<48 151> 482 94<238.808 404.208> 742 20G<48 151>
VStem: 48 103<0 93 173.53 385.626 468 762> 494 103<166.746 384.426>
LayerCount: 2
Fore
SplineSet
494 274 m 0xbc
 494 401.787109375 429.682617188 482 327.21875 482 c 0
 222.293945312 482 146 395.694335938 146 277 c 1
 149.030273438 162.84375 227.081054688 82 334.26171875 82 c 0
 434.96484375 82 494 152.958007812 494 274 c 0xbc
151 0 m 1x7c
 48 0 l 1x7c
 48 762 l 1
 151 762 l 1
 151 468 l 1
 190.658203125 542.810546875 247.673828125 576 336.529296875 576 c 0
 500.333007812 576 597 466.889648438 597 282 c 0
 597 97.1103515625 500.333007812 -12 336.529296875 -12 c 0xbc
 249.892578125 -12 194.155273438 19.544921875 151 93 c 1
 151 0 l 1x7c
EndSplineSet
EndChar

StartChar: d
Encoding: 67 100 11
Width: 641
VWidth: 1300
Flags: HW
HStem: -12 94<228.348 385.288> 482 94<228.348 391.776>
VStem: 40 103<171.094 392.906> 486 103<201.541 375.121>
LayerCount: 2
Fore
SplineSet
143 282 m 0
 143 158.165039062 201.142578125 82 295.673828125 82 c 0
 397.35546875 82 479.918945312 171.03125 483 284 c 1
 483 398.006835938 406.512695312 482 302.693359375 482 c 0
 202.510742188 482 143 407.46875 143 282 c 0
486 0 m 1
 486 85 l 1
 447.936523438 17.5234375 393.635742188 -12 307.59375 -12 c 0
 138.002929688 -12 40 95.673828125 40 282 c 0
 40 467.819335938 137.524414062 576 305.040039062 576 c 0
 392.64453125 576 452.796875 546.416015625 486 487 c 1
 486 762 l 1
 589 762 l 1
 589 0 l 1
 486 0 l 1
EndSplineSet
EndChar

StartChar: p
Encoding: 79 112 12
Width: 641
VWidth: 1300
Flags: HW
HStem: -12 94<242.307 406.652> 485 92<251.094 406.652>
VStem: 46 103<189.766 367.473> 492 103<171.094 393.409>
LayerCount: 2
Fore
SplineSet
492 282 m 0
 492 406.828125 433.157226562 485 339.1953125 485 c 0
 238.087890625 485 154.095703125 393.5078125 151 280 c 1
 151 167.194335938 229.252929688 82 332.8671875 82 c 0
 432.598632812 82 492 156.657226562 492 282 c 0
149 564 m 1
 149 473 l 1
 189.038085938 543.764648438 249.223632812 577 337.333007812 577 c 0
 498.58984375 577 595 466.62109375 595 282 c 0
 595 99.4287109375 500.365234375 -12 345.310546875 -12 c 0
 258.568359375 -12 193.333007812 22.892578125 149 93 c 5
 149 -198 l 1
 46 -198 l 1
 46 564 l 1
 149 564 l 1
EndSplineSet
EndChar

StartChar: q
Encoding: 80 113 13
Width: 641
VWidth: 1300
Flags: HW
HStem: -12 94<228.348 392.435> 486 94<228.348 383.67> 544 20G<486 589>
VStem: 40 103<171.094 393.741> 486 103<-198 82 188.879 362.726 476 564>
LayerCount: 2
Fore
SplineSet
143 282 m 4xd8
 143 156.53125 202.510742188 82 302.693359375 82 c 4
 406.512695312 82 483 165.993164062 483 280 c 5
 479.870117188 393.7109375 395.908203125 486 295.5859375 486 c 4
 202.018554688 486 143 407.094726562 143 282 c 4xd8
486 564 m 5xb8
 589 564 l 5xb8
 589 -198 l 5
 486 -198 l 5
 486 82 l 5
 451.83984375 15.2314453125 405.881835938 -12 327.358398438 -12 c 4
 141.6875 -12 40 92.0380859375 40 282 c 4
 40 470.348632812 139.8046875 580 311.239257812 580 c 4xd8
 397.149414062 580 449.010742188 549.13671875 486 476 c 5
 486 564 l 5xb8
EndSplineSet
EndChar

StartChar: s
Encoding: 82 115 14
Width: 572
VWidth: 1300
Flags: HW
HStem: -10 97<207.127 402.676> 492 88<176.002 367.872>
VStem: 51 98<382.644 467.423> 436 95<117.934 216.174>
LayerCount: 2
Fore
SplineSet
51 421.836914062 m 0
 51 524.822265625 128.470703125 580 273.0625 580 c 0
 405.444335938 580 479.650390625 535.762695312 523 431 c 1
 450 391 l 1
 415.306640625 456.735351562 350.5859375 492 264.638671875 492 c 0
 191.354492188 492 149.822265625 467.577148438 149 424 c 1
 150.680664062 383.661132812 176.41796875 368.140625 258.126953125 358.193359375 c 0
 447.74609375 335.109375 529.209960938 280.716796875 531 176 c 1
 531 63.513671875 437.880859375 -10 295.395507812 -10 c 0
 183.032226562 -10 105.639648438 36.4248046875 32 148 c 1
 111 208 l 1
 146.56640625 129.926757812 218.350585938 87 313.33984375 87 c 0
 390.630859375 87 435.0546875 115.973632812 436 167 c 1
 436 219.345703125 400.16796875 240.088867188 288.155273438 252.587890625 c 0
 120.217773438 271.327148438 51 320.725585938 51 421.836914062 c 0
  Spiro
    51 406 o
    78.2787 505.256 o
    160.443 562.037 o
    297 580 o
    404.837 560.741 o
    477.132 508.23 o
    523 431 v
    450 391 v
    402.833 449.14 o
    342.826 481.836 o
    279 492 o
    214.465 486.161 o
    167.558 465.155 o
    149 424 v
    164.859 387.249 o
    209.504 367.096 o
    284 355 o
    409.706 327.078 o
    497.248 270.556 o
    531 176 v
    498.617 73.1938 o
    414.007 10.8472 o
    297 -10 o
    187.503 8.70387 o
    102.183 62.6628 o
    32 148 v
    111 208 v
    163.752 136.683 o
    232.925 98.3466 o
    307 87 o
    375.276 95.7232 o
    419.698 122.295 o
    436 167 v
    420.07 211.558 o
    366.889 238.428 o
    269 255 o
    163.689 275.894 o
    83.014 322.471 o
    0 0 z
  EndSpiro
EndSplineSet
EndChar

StartChar: a
Encoding: 64 97 15
Width: 621
VWidth: 1300
Flags: HW
HStem: -10 100<166.848 372.353> 0 21G<482.502 570.502> 254 92<186.97 480.336> 476 97<222.546 406.971>
VStem: 34.5023 99<120.992 211.315> 482.502 88<0 86 177.332 235 328 401.763>
LayerCount: 2
Fore
SplineSet
481.501953125 328 m 5xbc
 478.508789062 416.8046875 411.715820312 476 314.505859375 476 c 4
 239.310546875 476 179.568359375 441.299804688 147.501953125 379 c 5
 54.501953125 415 l 5
 101.203125 511.993164062 205.306640625 573 324.1171875 573 c 4
 466.022460938 573 570.501953125 471.651367188 570.501953125 334 c 6
 570.501953125 0 l 5
 482.501953125 0 l 5x7c
 482.501953125 86 l 5
 433.905273438 27.462890625 346.512695312 -10 258.553710938 -10 c 4
 131.670898438 -10 34.4892578125 66.4912109375 35.001953125 165.958007812 c 4
 35.55078125 272.485351562 143.932617188 346.008789062 300.40234375 346 c 4
 346.731445312 345.997070312 421.74609375 338.541015625 481.501953125 328 c 5xbc
  Spiro
    481.502 328 v
    458.802 405.86 o
    402.84 457.444 o
    323.502 476 o
    251.494 465.983 o
    191.524 434.327 o
    147.502 379 v
    54.5023 415 v
    124.379 503.893 o
    220.977 556.071 o
    329.502 573 o
    463.876 535.773 o
    544.074 445.19 o
    570.502 334 [
    570.502 0 v
    482.502 0 v
    482.502 86 v
    427.012 37.5982 o
    355.315 3.08612 o
    278.502 -10 o
    148.685 14.2498 o
    64.3698 79.1179 o
    34.5023 172 o
    65.9596 257.48 o
    155.433 321.163 o
    297.502 346 o
    381.564 341.339 o
    452.073 332.658 o
    0 0 z
  EndSpiro
480.501953125 235 m 5
 418.509765625 246.20703125 343.825195312 254.06640625 300.196289062 253.974609375 c 4
 200.25390625 253.764648438 135.469726562 219.807617188 134.928710938 167.349609375 c 4
 134.439453125 119.9140625 181.651367188 90 257.005859375 90 c 4xbc
 379.40625 90 480.501953125 155.58984375 480.501953125 235 c 5
  Spiro
    480.502 235 v
    450.817 239.946 o
    383.615 249.14 o
    312.502 254 o
    219.507 243.921 o
    157.199 215.247 o
    133.502 170 o
    147.105 129.739 o
    187.26 100.942 o
    255.502 90 o
    360.402 107.336 o
    445.567 157.027 o
    0 0 z
  EndSpiro
EndSplineSet
Substitution2: "'ss01' Style Set 1 in Latin lookup 0-1" a.ss01
EndChar

StartChar: j
Encoding: 73 106 16
Width: 286
VWidth: 1300
Flags: HW
HStem: -212 104<131 200.886> 544 20G<230 333> 654 118<234.339 325.661>
VStem: 221 118<667.339 758.661> 230 103<-78.1207 564>
LayerCount: 2
Fore
SplineSet
121 713 m 0xf0
 121 746 147 772 180 772 c 0
 213 772 239 746 239 713 c 0
 239 680 213 654 180 654 c 0
 147 654 121 680 121 713 c 0xf0
233 -13 m 1xe8
 233 -150.983398438 171.063476562 -212 31 -212 c 1
 31 -108 l 1
 96.134765625 -108 130 -75.5029296875 130 -13 c 1
 130 564 l 1
 233 564 l 1
 233 -13 l 1xe8
EndSplineSet
EndChar

StartChar: k
Encoding: 74 107 17
Width: 567
VWidth: 1300
Flags: W
HStem: 0 21G<48 151 380.511 533> 544 20G<380.511 533> 742 20G<48 151>
VStem: 48 103<0 235 329 762>
LayerCount: 2
Fore
SplineSet
151 0 m 1
 48 0 l 1
 48 762 l 1
 151 762 l 1
 151 329 l 1
 171 329 l 1
 400 564 l 5
 533 564 l 1
 259 282 l 1
 533 0 l 1
 400 0 l 5
 171 235 l 1
 151 235 l 1
 151 0 l 1
EndSplineSet
EndChar

StartChar: c
Encoding: 66 99 18
Width: 610
VWidth: 1300
Flags: HW
HStem: -13 94<237.836 418.511> 483 98<242.036 427.754>
VStem: 40 101<188.549 374.284>
LayerCount: 2
Fore
SplineSet
40 282.096679688 m 4
 40 456.912109375 164.8125 581 340.6484375 581 c 4
 446.629882812 581 516.887695312 536.55078125 573 434 c 5
 494 390 l 5
 458.668945312 454.62890625 414.467773438 483 349.107421875 483 c 4
 231.939453125 483 141 393.983398438 141 279.29296875 c 4
 141 166.791992188 223.958984375 81 332.744140625 81 c 4
 408.352539062 81 469.208007812 118.790039062 497 183 c 5
 573 135 l 5
 523.139648438 34.4189453125 447.650390625 -13 337.388671875 -13 c 4
 161.818359375 -13 40 107.87890625 40 282.096679688 c 4
EndSplineSet
EndChar

StartChar: y
Encoding: 88 121 19
Width: 616
VWidth: 1300
Flags: HW
LayerCount: 2
Fore
SplineSet
274 19 m 1
 32 564 l 1
 144 564 l 1
 327 146 l 1
 471 564 l 1
 581 564 l 1
 297 -200 l 1
 190 -200 l 1
 274 19 l 1
EndSplineSet
Substitution2: "'ss02' Style Set 2 in Latin lookup 1-1" y.ss02
EndChar

StartChar: g
Encoding: 70 103 20
Width: 641
VWidth: 1300
Flags: HW
HStem: -190 97<217.416 418.399> 36 94<227.307 406.035> 483 94<232.594 395.783> 544 20G<486 589>
VStem: 40 103<217 389.911> 486 103<-29.9528 126 207.424 389.815 480 564>
LayerCount: 2
Fore
SplineSet
143 300.427734375 m 0xec
 143 199.64453125 214.368164062 130 317.646484375 130 c 0
 419.133789062 130 490.314453125 201.203125 488.553710938 300.9609375 c 0
 486.767578125 402.16015625 409.1953125 483 313.87109375 483 c 0
 217.219726562 483 143 403.698242188 143 300.427734375 c 0xec
486 564 m 1xdc
 589 564 l 1xdc
 589 42 l 1
 589 -106.794921875 496.323242188 -190 330.58984375 -190 c 0
 213.578125 -190 136.663085938 -149.122070312 54 -43 c 1
 131 11 l 1
 184.813476562 -64.3388671875 237.130859375 -93 320.83984375 -93 c 0
 430.827148438 -93 486 -43.2255859375 486 56 c 1
 486 126 l 1
 458.135742188 69.373046875 389.512695312 36 300.938476562 36 c 0
 144.461914062 36 40 143.596679688 40 304.768554688 c 0
 40 466.391601562 144.424804688 577 297.01171875 577 c 0xec
 381.341796875 577 447.067382812 543.266601562 486 480 c 1
 486 564 l 1xdc
EndSplineSet
EndChar

StartChar: f
Encoding: 69 102 21
Width: 560
VWidth: 1300
Flags: HW
HStem: 0 21G<171 273> 468 96<34 171 273 520> 693 92<301.824 453.27>
VStem: 171 102<0 468 564 660.969>
LayerCount: 2
Fore
SplineSet
467 665 m 1
 418.517578125 687.625 399.732421875 693 369.138671875 693 c 0
 302.02734375 693 273 654.051757812 273 564 c 1
 520 564 l 1
 520 468 l 1
 273 468 l 1
 273 0 l 1
 171 0 l 1
 171 468 l 1
 34 468 l 1
 34 564 l 1
 171 564 l 1
 171 707.586914062 236.041015625 785 356.6796875 785 c 0
 402.501953125 785 443.283203125 773.98828125 490 749 c 1
 467 665 l 1
EndSplineSet
EndChar

StartChar: v
Encoding: 85 118 22
Width: 617
VWidth: 1300
Flags: HW
HStem: 1 21G<231.647 378.46> 545 20G<32 141.393 466.863 581>
LayerCount: 2
Fore
SplineSet
32 564 m 5
 134 565 l 5
 307 97 l 5
 474 565 l 5
 581 564 l 5
 371 1 l 5
 239 1 l 5
 32 564 l 5
EndSplineSet
EndChar

StartChar: w
Encoding: 86 119 23
Width: 869
VWidth: 1300
Flags: HW
HStem: 0 21G<193.078 339.411 549.032 692.177> 544 20G<32 149.328 359.721 502.495 713.78 833>
LayerCount: 2
Fore
SplineSet
32 564 m 1
 144 564 l 1
 266 106 l 1
 364 564 l 1
 497 564 l 1
 622 109 l 1
 718 564 l 1
 833 564 l 1
 687 0 l 1
 554 0 l 1
 438 467 l 1
 335 0 l 1
 199 0 l 1
 32 564 l 1
EndSplineSet
EndChar

StartChar: x
Encoding: 87 120 24
Width: 618
VWidth: 1300
Flags: W
HStem: 0 21G<33 176.19 444 582> 544 20G<36 171.882 441.635 584>
LayerCount: 2
Fore
SplineSet
36 564 m 1
 157 564 l 1
 314 353 l 1
 455 564 l 1
 584 564 l 1
 368 282 l 1
 582 0 l 1
 458 0 l 1
 311 210 l 1
 162 0 l 1
 33 0 l 1
 245 280 l 1
 36 564 l 1
EndSplineSet
EndChar

StartChar: z
Encoding: 89 122 25
Width: 572
VWidth: 1300
Flags: HW
HStem: 0 100<162 529> 463 101<41 401>
LayerCount: 2
Fore
SplineSet
41 564 m 1
 529 564 l 1
 529 445 l 1
 162 100 l 1
 529 100 l 1
 529 0 l 1
 41 0 l 1
 41 125 l 1
 401 463 l 1
 41 463 l 1
 41 564 l 1
EndSplineSet
EndChar

StartChar: backslash
Encoding: 59 92 26
Width: 520
VWidth: 1300
Flags: HW
LayerCount: 2
Fore
SplineSet
385 1 m 1
 32 719 l 1
 134 719 l 1
 489 1 l 1
 385 1 l 1
EndSplineSet
EndChar

StartChar: H
Encoding: 39 72 27
Width: 680
VWidth: 1300
Flags: HW
HStem: 0 21G<47 150 525 628> 324 106<150 525> 700 20G<47 150 525 628>
VStem: 47 103<0 324 430 720> 525 103<0 324 430 720>
LayerCount: 2
Fore
SplineSet
150 0 m 5
 47 0 l 5
 47 720 l 5
 150 720 l 5
 150 430 l 5
 525 430 l 5
 525 720 l 5
 628 720 l 5
 628 0 l 5
 525 0 l 5
 525 324 l 5
 150 324 l 5
 150 0 l 5
EndSplineSet
EndChar

StartChar: O
Encoding: 46 79 28
Width: 736
VWidth: 1300
Flags: W
HStem: -17 100<274.589 467.107> 630 102<276.153 454.638>
VStem: 40 103<228.029 474.942> 587 105<221.1 470.104>
LayerCount: 2
Fore
SplineSet
143 349.673828125 m 4
 143 187.745117188 232.36328125 83 370.512695312 83 c 4
 504.384765625 83 587 181.458007812 587 341 c 4
 587 512.061523438 495.659179688 630 363.176757812 630 c 4
 232.8515625 630 143 515.6015625 143 349.673828125 c 4
40 360.5 m 4
 40 573.381835938 181.657226562 732 371.775390625 732 c 4
 558.9140625 732 692 579.05859375 692 364 c 4
 692 144.3359375 555.529296875 -17 369.719726562 -17 c 4
 182.563476562 -17 40 146.22265625 40 360.5 c 4
EndSplineSet
EndChar

StartChar: N
Encoding: 45 78 29
Width: 680
VWidth: 1300
Flags: HW
HStem: 0 21G<47 150 484.13 628> 700 20G<47 191.815 525 628>
VStem: 47 103<0 583> 525 103<136 720>
LayerCount: 2
Fore
SplineSet
150 0 m 5
 47 0 l 5
 47 720 l 5
 180 720 l 5
 525 136 l 5
 525 720 l 5
 628 720 l 5
 628 0 l 5
 496 0 l 5
 150 583 l 5
 150 0 l 5
EndSplineSet
EndChar

StartChar: I
Encoding: 40 73 30
Width: 202
VWidth: 1300
Flags: W
HStem: 0 21G<47 150> 700 20G<47 150>
VStem: 47 103<0 720>
LayerCount: 2
Fore
SplineSet
150 0 m 5
 47 0 l 5
 47 720 l 5
 150 720 l 5
 150 0 l 5
EndSplineSet
EndChar

StartChar: L
Encoding: 43 76 31
Width: 564
VWidth: 1300
Flags: HW
LayerCount: 2
Fore
SplineSet
525 107 m 5
 525 0 l 5
 47 0 l 5
 47 720 l 5
 150 720 l 5
 150 107 l 5
 525 107 l 5
EndSplineSet
EndChar

StartChar: J
Encoding: 41 74 32
Width: 503
VWidth: 1300
Flags: HW
HStem: -6 100<188.063 313.429> 700 20G<350 453>
VStem: 350 103<134.906 720>
LayerCount: 2
Fore
SplineSet
251 94 m 5
 318.331054688 94 350 137.82421875 350 231 c 5
 350 720 l 1
 453 720 l 1
 453 231 l 1
 453 86.466796875 374.188476562 -6 251 -6 c 1
 148.849609375 -6 91.6396484375 42.548828125 33 179 c 1
 132 213 l 5
 155.821289062 130.541992188 192.36328125 94 251 94 c 5
EndSplineSet
EndChar

StartChar: T
Encoding: 51 84 33
Width: 655
VWidth: 1300
Flags: HW
LayerCount: 2
Fore
SplineSet
395 0 m 1
 288 0 l 1
 284 618 l 1
 36 618 l 1
 36 720 l 1
 617 720 l 1
 617 618 l 1
 391 618 l 1
 395 0 l 1
EndSplineSet
EndChar

StartChar: M
Encoding: 44 77 34
Width: 844
VWidth: 1300
Flags: HW
HStem: 554 20G<150 158.268 680.913 689>
LayerCount: 2
Fore
SplineSet
422 169 m 1
 660 720 l 1
 792 720 l 1
 792 0 l 1
 689 0 l 1
 689 573 l 1
 484 66 l 1
 360 66 l 1
 150 574 l 1
 150 0 l 1
 47 0 l 1
 47 720 l 1
 177 720 l 1
 422 169 l 1
EndSplineSet
EndChar

StartChar: Q
Encoding: 48 81 35
Width: 734
VWidth: 1300
Flags: HW
HStem: -17 96<284.152 452.147> 634 98<284.152 455.112>
VStem: 39 100<243.236 464.279> 589 102<251.629 473.763>
LayerCount: 2
Fore
SplineSet
364 200 m 1
 420 286 l 1
 538 184 l 1
 571.827148438 243.198242188 589 303.4375 589 362.901367188 c 4
 589 512.458984375 492.240234375 634 373.17578125 634 c 0
 248.631835938 634 139 502.446289062 139 353 c 0
 139 207.096679688 245.85546875 79 367.563476562 79 c 0
 402.651367188 79 434.259765625 88.755859375 468 110 c 1
 364 200 l 1
39 360.5 m 0
 39 572.00390625 183.610351562 732 374.775390625 732 c 0
 556.612304688 732 691 584.647460938 691 385.268554688 c 0
 691 295.28125 665.634765625 223.204101562 598 121 c 1
 690 57 l 1
 635 -29 l 1
 548 41 l 1
 498.032226562 2.7265625 438.181640625 -17 372.029296875 -17 c 0
 184.376953125 -17 39 147.790039062 39 360.5 c 0
EndSplineSet
EndChar

StartChar: G
Encoding: 38 71 36
Width: 736
VWidth: 1300
Flags: HW
HStem: -17 104<292.829 480.922> 635 97<274.502 470.089>
VStem: 39 99<251.309 471.654>
LayerCount: 2
Fore
SplineSet
372 378 m 1
 689 378 l 1
 708.017578125 145.2578125 583.530273438 -17 385.947265625 -17 c 0
 192.5390625 -17 39 153.63671875 39 368.581054688 c 0
 39 579.821289062 181.926757812 732 380.32421875 732 c 0
 497.78515625 732 608.40625 674.249023438 637 598 c 1
 556 541 l 1
 528.452148438 595.036132812 450.741210938 635 373.215820312 635 c 0
 242.543945312 635 138 513.427734375 138 361.470703125 c 4
 138 211.294921875 252.05078125 87 389.84765625 87 c 0
 500.583984375 87 582.658203125 162.643554688 596 277 c 1
 372 277 l 1
 372 378 l 1
EndSplineSet
EndChar

StartChar: C
Encoding: 34 67 37
Width: 705
VWidth: 1300
Flags: HW
HStem: -17 105<287.021 510.674> 628 104<291.606 486.129>
VStem: 40 105<242.169 468.885>
LayerCount: 2
Fore
SplineSet
596 183 m 5
 671 115 l 5
 614.762695312 29.5634765625 518.206054688 -17 397.274414062 -17 c 4
 181.7890625 -17 40 131.701171875 40 357.690429688 c 4
 40 581.889648438 180.53515625 732 390.432617188 732 c 4
 501.206054688 732 590.584960938 690.3125 652 610 c 5
 569 541 l 5
 529.014648438 595.837890625 462.302734375 628 388.543945312 628 c 4
 248.708007812 628 145 510.516601562 145 352.106445312 c 4
 145 194.556640625 248.71875 88 402.072265625 88 c 4
 491.33203125 88 561.880859375 122.559570312 596 183 c 5
EndSplineSet
EndChar

StartChar: A
Encoding: 32 65 38
Width: 705
VWidth: 1300
Flags: HW
HStem: -1 21G<33 149.023 557.519 671> 130 92<224 483> 700 20G<289.667 407.528>
LayerCount: 2
Fore
SplineSet
142 -1 m 5
 33 0 l 5
 297 720 l 5
 400 720 l 5
 671 0 l 5
 565 -1 l 5
 516 130 l 5
 188 130 l 5
 142 -1 l 5
351 600 m 5
 224 222 l 5
 483 222 l 5
 351 600 l 5
EndSplineSet
EndChar

StartChar: E
Encoding: 36 69 39
Width: 565
VWidth: 1300
Flags: HW
LayerCount: 2
Fore
SplineSet
525 104 m 5
 525 0 l 5
 47 0 l 5
 47 720 l 5
 524 720 l 5
 524 618 l 5
 147 618 l 5
 147 426 l 5
 477 426 l 5
 477 328 l 5
 147 328 l 5
 147 104 l 5
 525 104 l 5
EndSplineSet
EndChar

StartChar: F
Encoding: 37 70 40
Width: 562
VWidth: 1300
Flags: HW
LayerCount: 2
Fore
SplineSet
147 326 m 5
 147 0 l 5
 47 0 l 5
 47 720 l 5
 524 720 l 5
 524 616 l 5
 147 616 l 5
 147 428 l 5
 477 428 l 5
 477 326 l 5
 147 326 l 5
EndSplineSet
EndChar

StartChar: V
Encoding: 53 86 41
Width: 647
VWidth: 1300
Flags: HW
LayerCount: 2
Fore
SplineSet
333 118 m 5
 507 720 l 5
 613 720 l 1
 388 0 l 1
 286 0 l 1
 32 720 l 1
 140 720 l 5
 333 118 l 5
EndSplineSet
EndChar

StartChar: W
Encoding: 54 87 42
Width: 942
VWidth: 1300
Flags: HW
HStem: 555 20G<461.617 470.661>
LayerCount: 2
Fore
SplineSet
283 146 m 1
 414 630 l 1
 517 630 l 1
 658 146 l 1
 799 720 l 1
 908 720 l 1
 703 0 l 1
 600 0 l 1
 466 485 l 1
 340 0 l 1
 237 0 l 1
 32 720 l 1
 141 720 l 1
 283 146 l 1
EndSplineSet
EndChar

StartChar: X
Encoding: 55 88 43
Width: 658
VWidth: 1300
Flags: HW
HStem: 0 21G<32 175.755 483.623 624> 700 20G<32 170.109 481.865 624>
LayerCount: 2
Fore
SplineSet
624 0 m 1
 496 0 l 1
 332 265 l 1
 163 0 l 1
 32 0 l 1
 275 366 l 1
 32 720 l 1
 157 720 l 1
 332 453 l 1
 494 720 l 1
 624 720 l 1
 382 364 l 1
 624 0 l 1
EndSplineSet
EndChar

StartChar: Y
Encoding: 56 89 44
Width: 656
VWidth: 1300
Flags: HW
HStem: 0 21G<278 377> 700 20G<31 154.973 498.509 623>
VStem: 278 99<0 245>
LayerCount: 2
Fore
SplineSet
31 720 m 5
 145 720 l 5
 331 347 l 5
 508 720 l 5
 623 720 l 5
 377 245 l 5
 377 0 l 5
 278 0 l 5
 278 245 l 5
 31 720 l 5
EndSplineSet
EndChar

StartChar: Z
Encoding: 57 90 45
Width: 669
VWidth: 1300
Flags: HW
HStem: 0 100<157 629> 619 101<40 503>
LayerCount: 2
Fore
SplineSet
40 720 m 1
 629 720 l 1
 629 597 l 1
 157 100 l 5
 629 100 l 1
 629 0 l 1
 40 0 l 1
 40 123 l 1
 503 619 l 1
 40 619 l 1
 40 720 l 1
EndSplineSet
EndChar

StartChar: S
Encoding: 50 83 46
Width: 623
VWidth: 1300
Flags: HW
HStem: -10 102<231.448 432.644> 643 90<221.921 400.816>
VStem: 64 98<492.427 591.048> 485 96<139.398 246.209>
LayerCount: 2
Fore
SplineSet
64 533.315429688 m 0
 64 649.892578125 167.88671875 733 313.611328125 733 c 0
 428.231445312 733 516.8984375 678.495117188 556 584 c 1
 482 544 l 1
 449.145507812 604.9921875 384.837890625 641 308.76171875 641 c 0
 229.241210938 641 163.12109375 595.947265625 162 541 c 1
 163.784179688 491.030273438 217.397460938 453.852539062 330.826171875 423.926757812 c 0
 495.665039062 380.4375 579.276367188 309.274414062 581 211 c 1
 581 74.3662109375 484.709960938 -10 328.763671875 -10 c 0
 204.458007812 -10 99.34375 45.9638671875 32 148 c 1
 111 208 l 1
 152.15625 140.3203125 248.844726562 92 343.11328125 92 c 0
 428.331054688 92 484.057617188 132.845703125 485 196 c 1
 485 247.586914062 433.1875 283.221679688 304.318359375 320.264648438 c 0
 134.689453125 369.024414062 64 431.693359375 64 533.315429688 c 0
EndSplineSet
EndChar

StartChar: B
Encoding: 33 66 47
Width: 645
VWidth: 1300
Flags: HW
HStem: 0 107<150 445.564> 324 101<150 441.557> 614 106<150 427.29>
VStem: 47 103<107 324 425 614> 488 97<455.121 566.457> 504 99<153.651 273.544>
LayerCount: 2
Fore
SplineSet
319 720 m 2xf4
 492.741210938 720 585 647.41796875 585 510.734375 c 0xf8
 585 429.465820312 545.649414062 371.5859375 490 371 c 1
 556.194335938 365.727539062 603 293.375 603 196.325195312 c 0
 603 59.888671875 525.516601562 0 349 0 c 2
 47 0 l 1
 47 720 l 1
 319 720 l 2xf4
307 614 m 2
 150 614 l 1
 150 425 l 1
 311 425 l 2
 437.690429688 425 488 450.609375 488 515.1015625 c 0
 488 583.546875 432.265625 614 307 614 c 2
310 324 m 2
 150 324 l 1
 150 107 l 1
 311 107 l 2
 449.525390625 107 504 135.83984375 504 209.177734375 c 0xf4
 504 287.053710938 441.577148438 324 310 324 c 2
EndSplineSet
EndChar

StartChar: D
Encoding: 35 68 48
Width: 648
VWidth: 1300
Flags: HW
HStem: 0 107<150 385.074> 614 106<150 377.279>
VStem: 47 103<107 614> 498 105<232.907 473.909>
LayerCount: 2
Fore
SplineSet
290 614 m 2
 150 614 l 1
 150 107 l 1
 291 107 l 2
 417.649414062 107 498 200.944335938 498 349.022460938 c 0
 498 504.865234375 412.33203125 614 290 614 c 2
290 720 m 2
 477.830078125 720 603 575.455078125 603 358.55078125 c 0
 603 142.65625 478.865234375 0 291 0 c 2
 47 0 l 1
 47 720 l 1
 290 720 l 2
EndSplineSet
EndChar

StartChar: K
Encoding: 42 75 49
Width: 640
VWidth: 1300
Flags: HW
HStem: 0 21G<47 150 443.698 606> 700 20G<47 150 443.513 606>
VStem: 47 103<0 315 408 720>
LayerCount: 2
Fore
SplineSet
150 0 m 1
 47 0 l 1
 47 720 l 1
 150 720 l 1
 150 408 l 1
 159 408 l 1
 463 720 l 1
 606 720 l 1
 256 363 l 1
 606 0 l 1
 463 0 l 1
 159 315 l 1
 150 315 l 1
 150 0 l 1
EndSplineSet
EndChar

StartChar: P
Encoding: 47 80 50
Width: 626
VWidth: 1300
Flags: HW
HStem: 0 21G<47 150> 269 101<150 440.534> 614 106<150 427.025>
VStem: 47 103<0 269 370 614> 488 97<413.735 563.149>
LayerCount: 2
Fore
SplineSet
307 614 m 2
 150 614 l 1
 150 370 l 1
 311 370 l 2
 442.451171875 370 488 398.725585938 488 481.624023438 c 0
 488 573.327148438 432.387695312 614 307 614 c 2
343 269 m 2
 150 269 l 1
 150 0 l 1
 47 0 l 1
 47 720 l 1
 337 720 l 2
 500.158203125 720 585 639.793945312 585 485.55078125 c 0
 585 337.786132812 508.129882812 269 343 269 c 2
EndSplineSet
EndChar

StartChar: R
Encoding: 49 82 51
Width: 625
VWidth: 1300
Flags: HW
HStem: 0 21G<47 150 425.296 558> 311 102<150 255 365 446.851> 614 106<150 442.406>
VStem: 47 103<0 311 413 614> 488 97<448.965 574.242>
LayerCount: 2
Fore
SplineSet
310 311 m 1
 150 311 l 1
 150 0 l 1
 47 0 l 1
 47 720 l 1
 346 720 l 2
 495.564453125 720 585 639.650390625 585 505.28125 c 0
 585 389.521484375 519.180664062 312.022460938 420 311 c 1
 558 0 l 1
 437 0 l 1
 310 311 l 1
326 614 m 2
 150 614 l 1
 150 413 l 1
 330 413 l 2
 448.762695312 413 488 435.567382812 488 503.874023438 c 0
 488 579.893554688 437.827148438 614 326 614 c 2
EndSplineSet
EndChar

StartChar: U
Encoding: 52 85 52
Width: 635
VWidth: 1300
Flags: HW
HStem: -17 105<216.806 413.114> 700 20G<46 149 482.957 586.046>
VStem: 46 103<156.864 720> 482 105<157.234 720>
LayerCount: 2
Fore
SplineSet
46 291 m 6
 46 720 l 5
 149 720 l 5
 149 254 l 6
 149 142.02734375 203.985351562 88 317.944335938 88 c 4
 429.733398438 88 482 140.567382812 482 253 c 6
 483 720 l 5
 586 720 l 5
 587 284 l 6
 587 88.4853515625 492.240234375 -17 316.60546875 -17 c 4
 139.87109375 -17 46 89.8427734375 46 291 c 6
EndSplineSet
EndChar

StartChar: bracketleft
Encoding: 58 91 53
Width: 286
VWidth: 1300
Flags: HW
VStem: 50 198
LayerCount: 2
Fore
SplineSet
248 0 m 5
 50 0 l 5
 50 720 l 5
 248 720 l 5
 248 616 l 5
 150 616 l 5
 150 102 l 5
 248 102 l 5
 248 0 l 5
EndSplineSet
EndChar

StartChar: bracketright
Encoding: 60 93 54
Width: 287
VWidth: 1300
Flags: HW
VStem: 39 198
LayerCount: 2
Fore
SplineSet
39 720 m 1
 237 720 l 1
 237 0 l 1
 39 0 l 1
 39 104 l 1
 137 104 l 1
 137 618 l 1
 39 618 l 1
 39 720 l 1
EndSplineSet
EndChar

StartChar: asciicircum
Encoding: 61 94 55
Width: 421
VWidth: 1300
Flags: HW
HStem: 620 142
LayerCount: 2
Fore
SplineSet
379 620 m 1
 298 619 l 1
 217 722 l 1
 132 619 l 1
 42 620 l 1
 159 762 l 1
 279 762 l 1
 379 620 l 1
EndSplineSet
EndChar

StartChar: underscore
Encoding: 62 95 56
Width: 633
VWidth: 1300
Flags: HW
HStem: -26 88<48 586>
LayerCount: 2
Fore
SplineSet
48 62 m 1
 586 62 l 1
 586 -26 l 1
 48 -26 l 1
 48 62 l 1
EndSplineSet
EndChar

StartChar: grave
Encoding: 63 96 57
Width: 332
VWidth: 1300
Flags: HW
HStem: 655 145
LayerCount: 2
Fore
SplineSet
162 800 m 5
 289 655 l 5
 191 655 l 5
 38 800 l 5
 162 800 l 5
EndSplineSet
EndChar

StartChar: period
Encoding: 13 46 58
Width: 208
VWidth: 1300
Flags: HW
HStem: -10 118<59.3386 150.661>
VStem: 46 118<3.33862 94.6614>
LayerCount: 2
Fore
SplineSet
46 49 m 4
 46 82 72 108 105 108 c 4
 138 108 164 82 164 49 c 4
 164 16 138 -10 105 -10 c 4
 72 -10 46 16 46 49 c 4
EndSplineSet
EndChar

StartChar: comma
Encoding: 11 44 59
Width: 207
VWidth: 1300
Flags: HW
HStem: -9.76367 117.764<58.3386 107.073>
VStem: 45 118<2.56261 94.6614>
LayerCount: 2
Fore
SplineSet
163 41.2880859375 m 4
 163 24.2744140625 159.416992188 4.810546875 153.375976562 -11 c 5
 114 -117 l 5
 52 -117 l 5
 92 -10 l 5
 65.953125 -9.1025390625 45 15.84765625 45 45.966796875 c 4
 45 81.333984375 70.3623046875 108 104 108 c 4
 138.516601562 108 163 80.31640625 163 41.2880859375 c 4
EndSplineSet
EndChar

StartChar: exclam
Encoding: 0 33 60
Width: 197
VWidth: 1300
Flags: HW
HStem: -10 118<53.3386 144.661> 700 20G<47 150>
VStem: 40 118<3.33862 94.6614> 47 103<439.462 720> 60 78<199 479.538>
LayerCount: 2
Fore
SplineSet
40 49 m 0xe0
 40 82 66 108 99 108 c 0
 132 108 158 82 158 49 c 0
 158 16 132 -10 99 -10 c 0
 66 -10 40 16 40 49 c 0xe0
47 720 m 1xd0
 150 720 l 1xd0
 138 199 l 1
 60 199 l 1xc8
 47 720 l 1xd0
EndSplineSet
EndChar

StartChar: question
Encoding: 30 63 61
Width: 468
VWidth: 1300
Flags: HW
HStem: -9 118<184.339 275.661> 640 87<150.686 305.012>
VStem: 32 79<568.228 600.57> 171 118<4.33862 95.6614> 344 88<453.082 602.347>
LayerCount: 2
Fore
SplineSet
171 50 m 0
 171 83 197 109 230 109 c 0
 263 109 289 83 289 50 c 0
 289 17 263 -9 230 -9 c 0
 197 -9 171 17 171 50 c 0
432 537 m 5
 431.4140625 498.923828125 400.348632812 416.495117188 357 338 c 5
 256 180 l 5
 182 229 l 5
 288 385 l 5
 318.4609375 437.720703125 341.657226562 494.053710938 344 521 c 5
 344 601.286132812 306.53515625 640 228.840820312 640 c 4
 160.3203125 640 121.740234375 610.534179688 111 550 c 5
 32 570 l 5
 46.2021484375 667.384765625 121.538085938 727 230.401367188 727 c 4
 352.7421875 727 432 652.301757812 432 537 c 5
EndSplineSet
EndChar

StartChar: slash
Encoding: 14 47 62
Width: 521
VWidth: 1300
Flags: HW
HStem: 700 20G<376.126 490>
LayerCount: 2
Fore
SplineSet
386 720 m 5
 490 720 l 5
 135 3 l 5
 32 3 l 5
 386 720 l 5
EndSplineSet
EndChar

StartChar: numbersign
Encoding: 2 35 63
Width: 866
VWidth: 1300
Flags: HW
HStem: 1 21G<146 244.304 408 506.414> 182 90<61 194 578 728> 457 92<138 270 655 805> 466 83<392 541> 700 20G<344.035 441>
LayerCount: 2
Fore
SplineSet
350 720 m 1xd8
 441 720 l 1
 392 549 l 1
 561 549 l 1xd8
 614 718 l 1
 709 718 l 1
 655 548 l 1
 834 548 l 1
 805 458 l 1
 626 457 l 1
 578 272 l 1
 757 272 l 1
 728 182 l 1
 550 182 l 1
 501 1 l 1
 408 1 l 1
 456 182 l 1
 287 182 l 1
 239 1 l 1
 146 1 l 1
 194 182 l 1
 32 182 l 1
 61 273 l 1
 223 272 l 1
 270 457 l 1
 109 457 l 1
 138 549 l 1xe8
 299 549 l 1
 350 720 l 1xd8
541 466 m 1
 359 466 l 1
 309 266 l 1
 490 265 l 1
 541 466 l 1
EndSplineSet
EndChar

StartChar: bar
Encoding: 91 124 64
Width: 203
VWidth: 1300
Flags: HW
VStem: 50 103<-113 800>
LayerCount: 2
Fore
SplineSet
153 -113 m 5
 50 -113 l 5
 50 800 l 5
 153 800 l 5
 153 -113 l 5
EndSplineSet
EndChar

StartChar: dollar
Encoding: 3 36 65
Width: 616
VWidth: 1300
Flags: HW
HStem: -95 187<262.653 356.682> 643 175<266.421 359.997>
VStem: 64 98<482.696 584.722> 261 96<-95 -7.18465 728.393 818> 485 96<139.067 242.581>
LayerCount: 2
Fore
SplineSet
357 -95 m 1
 261 -95 l 1
 261 -4 l 1
 165.763671875 14.4326171875 83.796875 68.8388671875 32 148 c 1
 111 208 l 1
 152.15625 140.3203125 248.844726562 92 343.11328125 92 c 0
 426.879882812 92 484.021484375 131.65625 484.504882812 190.124023438 c 0
 484.943359375 243.198242188 444.500976562 271.969726562 318.572265625 308.166992188 c 0
 134.458007812 361.090820312 64 419.8046875 64 520.3046875 c 0
 64 620.403320312 143.396484375 702.869140625 263 727 c 1
 262 818 l 1
 360 818 l 1
 361 731 l 1
 449.783203125 720.610351562 520.877929688 667.015625 556 584 c 1
 482 544 l 1
 447.248046875 609.845703125 393.129882812 643 320.403320312 643 c 4
 234.57421875 643 162.90234375 591.329101562 163.482421875 529.869140625 c 0
 163.942382812 481.103515625 216 446.221679688 335.286132812 414.75 c 0
 504.982421875 369.979492188 579.171875 303.313476562 580.033203125 194.82421875 c 0
 580.935546875 81.130859375 494.125 1.796875 357 -9 c 1
 357 -95 l 1
EndSplineSet
EndChar

StartChar: percent
Encoding: 4 37 66
Width: 776
VWidth: 1300
Flags: HW
HStem: 0 76<525.403 638.49> 266 78<528.969 634.637> 376 77<137.531 250.111> 642 78<145.057 250.161>
VStem: 35 77<479.124 608.537> 274 79<478.58 617.165> 423 77<102.645 236.95> 662 79<98.7858 237.783>
LayerCount: 2
Fore
SplineSet
500 167.5 m 4
 500 110.557617188 531.400390625 76 583.142578125 76 c 4
 633.482421875 76 662 108.548828125 662 166.004882812 c 4
 662 227.013671875 630.88671875 266 582.197265625 266 c 4
 533.006835938 266 500 226.447265625 500 167.5 c 4
423 172 m 4
 423 270.9140625 490.561523438 344 582 344 c 4
 673.438476562 344 741 270.9140625 741 172 c 4
 741 73.0859375 673.438476562 0 582 0 c 4
 490.561523438 0 423 73.0859375 423 172 c 4
112 542.170898438 m 4
 112 488.2734375 144.455078125 453 194.048828125 453 c 4
 243.984375 453 274 487.981445312 274 546.178710938 c 4
 274 605.120117188 245.376953125 642 199.631835938 642 c 4
 149.373046875 642 112 599.42578125 112 542.170898438 c 4
35 548 m 4
 35 646.9140625 102.561523438 720 194 720 c 4
 285.438476562 720 353 646.9140625 353 548 c 4
 353 449.0859375 285.438476562 376 194 376 c 4
 102.561523438 376 35 449.0859375 35 548 c 4
544 719 m 5
 648 719 l 5
 223 2 l 5
 121 2 l 5
 544 719 l 5
EndSplineSet
EndChar

StartChar: ampersand
Encoding: 5 38 67
Width: 725
VWidth: 1300
Flags: HW
LayerCount: 2
Fore
SplineSet
498.799804688 588 m 1
 440.400390625 549 l 1
 421.079101562 622.53515625 374.678710938 662 307.541015625 662 c 0
 249.30078125 662 212 630.763671875 212 581.9921875 c 0
 212 523.96484375 282.084960938 419.171875 381.200195312 329 c 1
 434.893554688 279.03515625 l 1
 530 468 l 1
 604.200195312 424 l 1
 509.674804688 228.057617188 l 1
 693.200195312 61 l 1
 644.200195312 -10 l 1
 471.739257812 153.966796875 l 1
 446.155273438 104 l 2
 412.854492188 40.9794921875 325.506835938 -4.4345703125 238.5859375 -3.9208984375 c 0
 120.551757812 -3.22265625 38 83.3076171875 38 206.331054688 c 0
 38 300.231445312 85.041015625 379.701171875 174.430664062 436.814453125 c 1
 142.828125 485.495117188 130 523.696289062 130 569.125976562 c 0
 130 673.693359375 203.54296875 745.1953125 309.981445312 744.114257812 c 0
 404.232421875 743.15625 477.444335938 682.625 498.799804688 588 c 1
218.719726562 375.75 m 1
 156.96484375 331.22265625 128 280.950195312 128 218.294921875 c 0
 128 138.119140625 176.745117188 88 254.723632812 88 c 0
 311.221679688 88 351.103515625 113.887695312 379.512695312 169 c 2
 397.196289062 204.135742188 l 1
 290.799804688 302 l 2
 270.177734375 319.385742188 240.3203125 349.934570312 218.719726562 375.75 c 1
EndSplineSet
EndChar

StartChar: quotesingle
Encoding: 6 39 68
Width: 187
VWidth: 1300
Flags: HW
HStem: 532 230<59 103>
VStem: 44 105
LayerCount: 2
Fore
SplineSet
59 762 m 5
 149 762 l 5
 103 532 l 5
 44 532 l 5
 59 762 l 5
EndSplineSet
EndChar

StartChar: hyphen
Encoding: 12 45 69
Width: 517
VWidth: 1300
Flags: HW
HStem: 252 91<48 469>
LayerCount: 2
Fore
SplineSet
48 343 m 5
 469 343 l 5
 469 252 l 5
 48 252 l 5
 48 343 l 5
EndSplineSet
EndChar

StartChar: plus
Encoding: 10 43 70
Width: 507
VWidth: 1300
Flags: HW
HStem: 254 100<43 202 298 464>
VStem: 202 96<95 254 354 516>
LayerCount: 2
Fore
SplineSet
298 354 m 5
 464 354 l 5
 464 254 l 5
 298 254 l 5
 298 95 l 5
 202 95 l 5
 202 254 l 5
 43 254 l 5
 43 354 l 5
 202 354 l 5
 202 516 l 5
 298 516 l 5
 298 354 l 5
EndSplineSet
EndChar

StartChar: equal
Encoding: 28 61 71
Width: 519
VWidth: 1300
Flags: HW
HStem: 148 103<50 471> 344 103<50 471>
LayerCount: 2
Fore
SplineSet
50 251 m 1
 471 251 l 1
 471 148 l 1
 50 148 l 1
 50 251 l 1
50 447 m 1
 471 447 l 1
 471 344 l 1
 50 344 l 1
 50 447 l 1
EndSplineSet
EndChar

StartChar: quotedbl
Encoding: 1 34 72
Width: 342
VWidth: 1300
Flags: HW
HStem: 532 230<59 103 215 246>
VStem: 44 261
LayerCount: 2
Fore
SplineSet
215 762 m 5
 305 762 l 5
 246 532 l 5
 187 532 l 5
 215 762 l 5
59 762 m 5
 149 762 l 5
 103 532 l 5
 44 532 l 5
 59 762 l 5
EndSplineSet
EndChar

StartChar: colon
Encoding: 25 58 73
Width: 204
VWidth: 1300
Flags: HW
HStem: 114 118<56.3386 147.661> 426 118<56.3386 147.661>
VStem: 43 118<127.339 218.661 439.339 530.661>
LayerCount: 2
Fore
SplineSet
43 173 m 4
 43 206 69 232 102 232 c 4
 135 232 161 206 161 173 c 4
 161 140 135 114 102 114 c 4
 69 114 43 140 43 173 c 4
43 485 m 4
 43 518 69 544 102 544 c 4
 135 544 161 518 161 485 c 4
 161 452 135 426 102 426 c 4
 69 426 43 452 43 485 c 4
EndSplineSet
EndChar

StartChar: semicolon
Encoding: 26 59 74
Width: 201
VWidth: 1300
Flags: HW
HStem: 114.236 117.764<55.3386 104.073> 426 118<55.3386 146.661>
VStem: 42 118<126.563 218.661 439.339 530.661>
LayerCount: 2
Fore
SplineSet
160 165.2890625 m 0
 160 148.276367188 156.416992188 128.810546875 150.375976562 113 c 1
 111 7 l 1
 49 7 l 1
 89 114 l 1
 62.953125 114.897460938 42 139.84765625 42 169.966796875 c 0
 42 205.333984375 67.3623046875 232 101 232 c 0
 135.515625 232 160 204.31640625 160 165.2890625 c 0
42 485 m 0
 42 518 68 544 101 544 c 0
 134 544 160 518 160 485 c 0
 160 452 134 426 101 426 c 0
 68 426 42 452 42 485 c 0
EndSplineSet
EndChar

StartChar: less
Encoding: 27 60 75
Width: 648
VWidth: 1300
Flags: HW
LayerCount: 2
Fore
SplineSet
606 594 m 5
 605 486 l 5
 138 342 l 5
 605 189 l 5
 605 82 l 5
 42 275 l 5
 42 409 l 5
 606 594 l 5
EndSplineSet
EndChar

StartChar: greater
Encoding: 29 62 76
Width: 648
VWidth: 1300
Flags: HW
LayerCount: 2
Fore
SplineSet
42 82 m 5
 43 190 l 5
 510 334 l 5
 43 487 l 5
 43 594 l 5
 606 401 l 5
 606 267 l 5
 42 82 l 5
EndSplineSet
EndChar

StartChar: at
Encoding: 31 64 77
Width: 735
VWidth: 1300
Flags: HW
HStem: -30.2373 82.0537<250.994 363.326> 123.857 77.0479<284.838 418.974 536.263 603.847> 279.33 70.168<289.004 460.525> 418.291 75.6729<309.294 437.809> 557.253 83.9268<260.818 477.817>
VStem: 40 83.9268<181.399 417.94> 195.472 83.9268<208.961 266.639> 462.253 70.3037<237.266 273.698 338.491 392.017> 616.483 79.7988<206.722 414.552>
LayerCount: 2
Fore
SplineSet
465.883789062 179.771484375 m 1
 455.235351562 148.6875 399.053710938 123.857421875 339.369140625 123.857421875 c 0
 257.3515625 123.857421875 195.447265625 172.614257812 196.166992188 236.645507812 c 0
 196.930664062 304.583984375 265.264648438 349.498046875 367.864257812 349.498046875 c 0
 398.557617188 349.498046875 413.375 347.71875 459.5078125 338.491210938 c 1
 458.239257812 390.504882812 428.634765625 418.291015625 374.487304688 418.291015625 c 0
 333.044921875 418.291015625 303.553710938 401.936523438 287.653320312 370.135742188 c 1
 206.478515625 393.526367188 l 1
 236.107421875 455.254882812 301.956054688 493.963867188 377.333984375 493.963867188 c 0
 467.177734375 493.963867188 533.931640625 429.44921875 533.931640625 342.619140625 c 2
 532.556640625 242.530273438 l 1
 533.381835938 211.766601562 547.942382812 197.50390625 578.521484375 197.50390625 c 4
 599.301757812 197.50390625 616.483398438 213.012695312 616.483398438 269.461914062 c 0
 616.483398438 450.65234375 525.668945312 557.252929688 371.311523438 557.252929688 c 0
 219.111328125 557.252929688 123.926757812 456.912109375 123.926757812 296.467773438 c 0
 123.926757812 140.067382812 210.779296875 51.81640625 364.701171875 51.81640625 c 1
 363.326171875 -30.2373046875 l 1
 164.450195312 -30.2373046875 40 97.0390625 40 300.432617188 c 0
 40 506.10546875 170.591796875 641.1796875 369.440429688 641.1796875 c 0
 567.15625 641.1796875 696.282226562 504.377929688 696.282226562 294.911132812 c 0
 696.282226562 176.188476562 654.8671875 119.079101562 568.770507812 119.079101562 c 0
 516.984375 119.079101562 481.55078125 139.981445312 465.883789062 179.771484375 c 1
462.252929688 273.698242188 m 1
 421.227539062 276.997070312 379.911132812 279.330078125 362.504882812 279.330078125 c 0
 312.520507812 279.330078125 280.754882812 263.559570312 279.991210938 238.365234375 c 0
 279.309570312 215.866210938 301.4765625 200.905273438 335.49609375 200.905273438 c 0
 396.748046875 200.905273438 462.252929688 238.522460938 462.252929688 273.698242188 c 1
EndSplineSet
EndChar

StartChar: parenleft
Encoding: 7 40 78
Width: 310
VWidth: 1300
Flags: HW
HStem: -17 94<216.564 255> 712 20G<193.938 259.211>
VStem: 39 86<210.395 498.857>
LayerCount: 2
Fore
SplineSet
255 -17 m 21
 133.778320312 -17 39 148.642578125 39 360.5 c 0
 39 570.54296875 132.875 732 255 732 c 1
 275 637 l 1
 192.321289062 637 125 508.478515625 125 350.63671875 c 0
 125 199.299804688 192.041015625 77 275 77 c 1
 255 -17 l 21
EndSplineSet
EndChar

StartChar: parenright
Encoding: 8 41 79
Width: 310
VWidth: 1300
Flags: HW
HStem: -16 95<36 91.1951> 639 94<36 90.7188>
VStem: 181 91<211.928 508.564>
LayerCount: 2
Fore
SplineSet
56 733 m 21
 177.221679688 733 272 567.357421875 272 355.5 c 0
 272 145.45703125 178.125 -16 56 -16 c 5
 36 79 l 1
 117.313476562 79 181 204.599609375 181 364.963867188 c 0
 181 518.930664062 117.467773438 639 36 639 c 1
 56 733 l 21
EndSplineSet
EndChar

StartChar: asterisk
Encoding: 9 42 80
Width: 343
VWidth: 1300
Flags: HW
HStem: 512 250
VStem: 38 267
LayerCount: 2
Fore
SplineSet
134 762 m 1
 214 762 l 1
 196 667 l 1
 269 716 l 1
 305 653 l 1
 209 626 l 1
 279 564 l 1
 223 512 l 1
 174 598 l 1
 117 514 l 1
 62 563 l 1
 143 627 l 1
 38 650 l 1
 72 716 l 1
 155 667 l 25
 134 762 l 1
EndSplineSet
EndChar

StartChar: zero
Encoding: 15 48 81
Width: 617
VWidth: 1300
Flags: HW
HStem: -17 100.25<233.638 379.106> 626.4 105.6<233.77 371.398>
VStem: 38 105.35<202.961 506.02> 470.15 108.85<201.918 497.074>
LayerCount: 2
Fore
SplineSet
143.349609375 352.046875 m 0
 143.349609375 181.360351562 203.522460938 83.25 308.208007812 83.25 c 0
 410.909179688 83.25 470.150390625 177.557617188 470.150390625 341.049804688 c 0
 470.150390625 516.0625 405.073242188 626.400390625 301.8515625 626.400390625 c 0
 202.3203125 626.400390625 143.349609375 524.328125 143.349609375 352.046875 c 0
  Spiro
    143.35 357.2 o
    160.837 214.098 o
    213.932 118.107 o
    302.95 83.25 o
    397.313 116.842 o
    452.383 211.564 o
    470.15 357.2 o
    452.383 487.251 o
    397.313 586.871 o
    302.95 626.4 o
    210.132 587.503 o
    158.94 488.518 o
    0 0 z
  EndSpiro
38 360.5 m 0
 38 585.861328125 145.041015625 732 310.111328125 732 c 0
 474.202148438 732 579 588.57421875 579 364 c 0
 579 134.44140625 471.379882812 -17 308.24609375 -17 c 0
 145.725585938 -17 38 133.479492188 38 360.5 c 0
  Spiro
    38 362 o
    67.5704 545.761 o
    156.489 680.172 o
    304 732 o
    457.841 681.504 o
    549.097 548.428 o
    579 362 o
    549.097 175.02 o
    457.841 36.7131 o
    304 -17 o
    156.489 36.4912 o
    67.5704 174.576 o
    0 0 z
  EndSpiro
EndSplineSet
EndChar

StartChar: one
Encoding: 16 49 82
Width: 349
VWidth: 1300
Flags: HW
HStem: 0 21G<204 299> 700 20G<160.448 299>
VStem: 204 95<0 629.165>
LayerCount: 2
Fore
SplineSet
299 0 m 5
 204 0 l 5
 204 629.165039062 l 5
 63 480 l 5
 32 575 l 5
 181 720 l 5
 299 720 l 5
 299 0 l 5
EndSplineSet
EndChar

StartChar: two
Encoding: 17 50 83
Width: 560
VWidth: 1300
Flags: HW
HStem: 633 94<195.179 376.977>
VStem: 34 89<527.404 563.623> 424 95<456.882 590.933>
LayerCount: 2
Fore
SplineSet
519 531.327148438 m 4
 519 468.422851562 495.424804688 409.421875 453.73828125 368 c 5
 168 90 l 5
 523 90 l 5
 523 0 l 5
 43 0 l 5
 43 93 l 4
 382.7109375 431 l 5
 408.163085938 457.030273438 421.897460938 490.9609375 424 533 c 5
 424 594.924804688 372.655273438 633 289.1484375 633 c 4
 194.268554688 633 130.627929688 580.907226562 123 497 c 5
 34 530 l 5
 54.4873046875 648.37109375 158.748046875 727 295.21875 727 c 4
 432.689453125 727 519 651.530273438 519 531.327148438 c 4
EndSplineSet
EndChar

StartChar: three
Encoding: 18 51 84
Width: 547
VWidth: 1300
Flags: HW
HStem: -8 92<191.568 365.462> 326 96<273 366.958> 637 90<194.895 358.657>
VStem: 43 88<535.852 570.337> 413 94<128.406 279.257 456.693 586.905>
LayerCount: 2
Fore
SplineSet
404.844726562 374.584960938 m 5
 464.685546875 361.940429688 507 291.215820312 507 203.840820312 c 4
 507 69.9072265625 423.052734375 -8 278.736328125 -8 c 4
 144.943359375 -8 53.7958984375 62.8447265625 33 183 c 5
 119 213 l 5
 139.232421875 128.022460938 196.022460938 84 285.412109375 84 c 4
 370.50390625 84 413 123.87890625 413 203.731445312 c 4
 413 286.397460938 367.654296875 326 273 326 c 5
 204 326 l 5
 204 422 l 5
 273 421 l 5
 373.875976562 421 413.439453125 447.296875 413.056640625 514.09375 c 4
 412.626953125 589.2578125 358.88671875 637 274.709960938 637 c 4
 195.70703125 637 147.333007812 594.586914062 131 511 c 5
 43 538 l 5
 63.6611328125 657.374023438 150.610351562 727 279.026367188 727 c 4
 421.857421875 727 507.720703125 648.952148438 506.904296875 519.86328125 c 4
 506.374023438 436.17578125 464.100585938 376 404.844726562 374.584960938 c 5
EndSplineSet
EndChar

StartChar: four
Encoding: 19 52 85
Width: 559
VWidth: 1300
Flags: HW
HStem: 0 21G<355 446> 202 96<140 355 446 523> 544 20G<355 446> 700 20G<217.803 323>
VStem: 355 91<0 202 298 564>
LayerCount: 2
Fore
SplineSet
227 720 m 5
 323 720 l 5
 140 298 l 5
 355 298 l 5
 355 564 l 5
 446 564 l 5
 446 298 l 5
 523 298 l 5
 523 202 l 5
 446 202 l 5
 446 0 l 5
 355 0 l 5
 355 202 l 5
 38 202 l 5
 38 309 l 5
 227 720 l 5
EndSplineSet
EndChar

StartChar: five
Encoding: 20 53 86
Width: 517
VWidth: 1300
Flags: HW
HStem: -12 94.5625<170.594 336.661> 366.969 90.0312<209.719 325.199>
VStem: 405.344 94.6562<148.161 298.444>
LayerCount: 2
Fore
SplineSet
209.71875 366.96875 m 1
 35 367 l 1
 92 720 l 1
 432 720 l 1
 432 634 l 1
 170 634 l 1
 139 457 l 1
 240 457 l 2
 378.868164062 455.735351562 480 357.176757812 480 223.104492188 c 0
 480 84.68359375 382.185546875 -12 242.146484375 -12 c 0
 139.421875 -12 67.53125 40.5947265625 35.50390625 139.178710938 c 1
 126.604492188 172.85546875 l 1
 144.6484375 111.76953125 182.263671875 82.5625 242.890625 82.5625 c 0
 328.78125 82.5625 385.34375 139.998046875 385.34375 227.212890625 c 0
 385.34375 316.934570312 327.141601562 363.249023438 209.71875 366.96875 c 1
EndSplineSet
EndChar

StartChar: six
Encoding: 21 54 87
Width: 553
VWidth: 1300
Flags: HW
HStem: -12 94.5625<194.322 359.613> 359.969 97.0312<228.047 363.867>
VStem: 38 97.2188<141.52 303.993> 421.344 94.6562<145.359 304.715>
LayerCount: 2
Fore
SplineSet
135.21875 222.840820312 m 4
 135.21875 135.7265625 188.833984375 82.5625 276.6875 82.5625 c 4
 365.869140625 82.5625 421.34375 137.016601562 421.34375 224.557617188 c 4
 421.34375 309.61328125 368.0703125 359.96875 278.086914062 359.96875 c 4
 188.297851562 359.96875 135.21875 309.022460938 135.21875 222.840820312 c 4
274 734 m 5
 354 678 l 5
 209 426 l 5
 240.016601562 444.159179688 287.908203125 457 324.62109375 457 c 4
 435.840820312 457 516 361.487304688 516 228.963867188 c 4
 516 83.08984375 421.09375 -12 275.5 -12 c 4
 133.994140625 -12 38 79.1845703125 38 213.6015625 c 4
 38 277.453125 59.720703125 345.616210938 106 427 c 5
 274 734 l 5
EndSplineSet
EndChar

StartChar: seven
Encoding: 22 55 88
Width: 559
VWidth: 1300
Flags: HW
HStem: 0 21G<161 272.501> 624 96<37 431>
LayerCount: 2
Fore
SplineSet
264 0 m 5
 161 0 l 5
 431 624 l 5
 37 624 l 5
 37 720 l 5
 522 720 l 5
 522 607 l 5
 264 0 l 5
EndSplineSet
EndChar

StartChar: eight
Encoding: 23 56 89
Width: 557
VWidth: 1300
Flags: HW
HStem: -8 91.2549<198.26 359.862> 330.25 86.9688<202.029 355.067> 640.62 86.3799<199.149 355.55>
VStem: 38 96.6201<145.051 280.74> 56 94.5352<466.825 594.649> 406.63 94.3701<466.198 592.249> 423.535 97.4648<142.084 280.882>
LayerCount: 2
Fore
SplineSet
278.127929688 640.620117188 m 0xec
 202.842773438 640.620117188 148.698242188 591.8359375 150.741210938 525.84375 c 0
 152.696289062 462.6953125 204.072265625 418.258789062 276.330078125 417.21875 c 1
 353.01171875 418.283203125 405.84375 462.90625 406.5703125 527.22265625 c 0
 407.309570312 592.719726562 353.053710938 640.620117188 278.127929688 640.620117188 c 0xec
281.842773438 83.2548828125 m 0
 365.397460938 83.2548828125 423.53515625 135.423828125 423.53515625 210.3984375 c 0xf2
 423.53515625 284.267578125 368.58203125 330.25 280.30078125 330.25 c 0
 192.126953125 330.25 134.620117188 286.190429688 134.620117188 218.634765625 c 0
 134.620117188 142.169921875 198.689453125 83.2548828125 281.842773438 83.2548828125 c 0
283.766601562 -8 m 0
 141.859375 -8 38 87.470703125 38 217.916015625 c 0
 38 293.93359375 81.556640625 359.2421875 143.155273438 375.584960938 c 1
 92.1005859375 401.200195312 56 463.706054688 56 526.487304688 c 0xec
 56 640.830078125 152.309570312 727 280.106445312 727 c 0
 407.116210938 727 501 642.538085938 501 528.274414062 c 0
 501 464.446289062 464.899414062 401.200195312 413.844726562 375.584960938 c 1
 476.615234375 359.828125 521 289.93359375 521 206.845703125 c 0xf2
 521 77.73828125 426.327148438 -8 283.766601562 -8 c 0
EndSplineSet
EndChar

StartChar: nine
Encoding: 24 57 90
Width: 550
VWidth: 1300
Flags: HW
HStem: 263 97.0312<189.364 323.958> 637.438 94.5625<192.042 358.095>
VStem: 36 94.6562<416.831 577.445> 416.781 97.2188<417.327 578.812>
LayerCount: 2
Fore
SplineSet
416.78125 497.159179688 m 0
 416.78125 584.2734375 363.166015625 637.4375 275.3125 637.4375 c 0
 186.130859375 637.4375 130.65625 582.983398438 130.65625 495.442382812 c 0
 130.65625 410.38671875 183.9296875 360.03125 273.913085938 360.03125 c 0
 363.702148438 360.03125 416.78125 410.977539062 416.78125 497.159179688 c 0
278 -22 m 1
 192 40 l 1
 343 294 l 1
 311.983398438 275.840820312 264.091796875 263 227.37890625 263 c 0
 116.159179688 263 36 358.512695312 36 491.036132812 c 0
 36 636.91015625 130.90625 732 276.5 732 c 0
 418.005859375 732 514 640.815429688 514 506.3984375 c 0
 514 442.546875 492.279296875 374.383789062 446 293 c 1
 278 -22 l 1
EndSplineSet
EndChar

StartChar: braceleft
Encoding: 90 123 91
Width: 306
VWidth: 1300
Flags: HW
HStem: -10.5156 94.3223<221.803 271> 332.581 78.3223<35.0049 81.859> 639 89<207.68 271>
VStem: 100.004 92.9961<427.401 623.687> 108.005 90.9961<105.089 303.845>
LayerCount: 2
Fore
SplineSet
192.7109375 523.365234375 m 0xf0
 192.474609375 433.604492188 182.07421875 400.375976562 146.599609375 376.034179688 c 1
 185.594726562 352.955078125 198.737304688 316.943359375 198.982421875 232.500976562 c 0xe8
 199.3046875 121.237304688 217.43359375 83.806640625 271 83.806640625 c 1
 251.004882812 -10.515625 l 5
 160.552734375 -10.515625 108.641601562 68.1923828125 108.22265625 205.975585938 c 0
 107.958007812 292.768554688 84.9326171875 332.581054688 35 332.581054688 c 1
 35.0048828125 410.903320312 l 1
 80.94921875 410.903320312 99.6171875 437.506835938 99.7744140625 503.208007812 c 0xf0
 100.169921875 668.426757812 140.24609375 728 251 728 c 5
 271 639 l 1
 204.677734375 639 192.970703125 621.708007812 192.7109375 523.365234375 c 0xf0
EndSplineSet
EndChar

StartChar: braceright
Encoding: 92 125 92
Width: 308
VWidth: 1300
Flags: HW
HStem: -10.5156 89<36 99.3201> 306.581 78.3223<225.141 271.995> 633.678 94.3223<36 85.1966>
VStem: 107.999 90.9961<413.64 612.395> 114 92.9961<93.7975 290.084>
LayerCount: 2
Fore
SplineSet
114.2890625 194.119140625 m 0xe8
 114.525390625 283.879882812 124.92578125 317.108398438 160.400390625 341.450195312 c 1
 121.405273438 364.529296875 108.262695312 400.541015625 108.017578125 484.983398438 c 0xf0
 107.6953125 596.247070312 89.56640625 633.677734375 36 633.677734375 c 1
 55.9951171875 728 l 1
 146.447265625 728 198.358398438 649.291992188 198.77734375 511.509765625 c 0
 199.041992188 424.716796875 222.067382812 384.903320312 272 384.903320312 c 1
 271.995117188 306.581054688 l 1
 226.05078125 306.581054688 207.3828125 279.977539062 207.225585938 214.276367188 c 0xe8
 206.830078125 49.0576171875 166.75390625 -10.515625 56 -10.515625 c 1
 36 78.484375 l 1
 102.322265625 78.484375 114.029296875 95.7763671875 114.2890625 194.119140625 c 0xe8
EndSplineSet
EndChar

StartChar: asciitilde
Encoding: 93 126 93
Width: 494
Flags: HW
HStem: 623 82<264.853 400.426> 672 90<95.7433 237.642>
LayerCount: 2
Fore
SplineSet
44 707 m 5x40
 82.662109375 739.217773438 135.247070312 762 170.951171875 762 c 4x40
 234.353515625 762 274.353515625 705 337.755859375 705 c 4
 370.703125 705 408.083007812 722.811523438 428 748 c 5
 451 677 l 5
 416.28515625 645.610351562 364.801757812 623.260742188 326.708007812 623.043945312 c 4x80
 264.000976562 622.686523438 229 672 161.370117188 672 c 4
 124.80859375 672 82.8203125 654.603515625 60 630 c 5
 44 707 l 5x40
EndSplineSet
EndChar

StartChar: exclamdown
Encoding: 94 161 94
Width: 199
VWidth: 1300
Flags: HW
HStem: 0 21G<49 152> 610 118<55.3386 146.661>
VStem: 42 118<623.339 714.661> 49 103<0 280.538> 61 78<240.462 521>
LayerCount: 2
Fore
SplineSet
42 669 m 4xe0
 42 702 68 728 101 728 c 4
 134 728 160 702 160 669 c 4
 160 636 134 610 101 610 c 4
 68 610 42 636 42 669 c 4xe0
152 0 m 1xd0
 49 0 l 1xd0
 61 521 l 1
 139 521 l 1xc8
 152 0 l 1xd0
EndSplineSet
EndChar

StartChar: cent
Encoding: 95 162 95
Width: 700
VWidth: 1300
Flags: HW
HStem: -79 167<339.32 431.79> 628 101.039<288.593 334 432 482.575>
VStem: 38 105<238.733 469.04>
LayerCount: 2
Fore
SplineSet
594 183 m 1
 669 115 l 1
 619.021484375 39.072265625 537.05859375 -5.9560546875 432 -15.2001953125 c 1
 432 -79 l 1
 334 -79 l 1
 334 -13.357421875 l 1
 153.140625 10.8505859375 38 155.325195312 38 358.055664062 c 0
 38 561.124023438 154.25 706.823242188 334 729.0390625 c 1
 334 814 l 1
 432 814 l 1
 432 729.354492188 l 1
 523.90625 719.08984375 597.310546875 678.901367188 650 610 c 1
 567 541 l 1
 527.014648438 595.837890625 460.302734375 628 386.543945312 628 c 0
 246.708007812 628 143 510.516601562 143 352.106445312 c 0
 143 194.556640625 246.71875 88 400.072265625 88 c 0
 489.33203125 88 559.880859375 122.559570312 594 183 c 1
EndSplineSet
EndChar

StartChar: yen
Encoding: 98 165 98
Width: 654
VWidth: 1300
Flags: HW
HStem: 0 21G<278 377> 76 88<123 278 377 529> 207 88<123 252 402.895 529> 700 20G<31 154.973 498.509 623>
VStem: 278 99<0 76 164 207>
LayerCount: 2
Fore
SplineSet
31 720 m 1
 145 720 l 1
 331 347 l 1
 508 720 l 1
 623 720 l 1
 402.89453125 295 l 1
 529 295 l 1
 529 207 l 1
 377 207 l 1
 377 164 l 1
 529 164 l 1
 529 76 l 1
 377 76 l 1
 377 0 l 1
 278 0 l 1
 278 76 l 1
 123 76 l 1
 123 164 l 1
 278 164 l 1
 278 207 l 1
 123 207 l 1
 123 295 l 1
 252 295 l 1
 31 720 l 1
EndSplineSet
EndChar

StartChar: brokenbar
Encoding: 99 166 99
Width: 203
VWidth: 1300
Flags: HW
VStem: 50 103<-113 298.451>
LayerCount: 2
Fore
SplineSet
153 380.90625 m 1
 50 380.90625 l 1
 50 800 l 1
 153 800 l 1
 153 380.90625 l 1
153 298.451171875 m 1
 153 -113 l 1
 50 -113 l 1
 50 298.451171875 l 1
 153 298.451171875 l 1
EndSplineSet
EndChar

StartChar: dieresis
Encoding: 101 168 101
Width: 372
VWidth: 1300
Flags: HW
HStem: 653 118<58.3386 149.661 224.339 315.661>
VStem: 45 118<666.339 757.661> 211 118<666.339 757.661>
LayerCount: 2
Fore
SplineSet
211 712 m 4
 211 745 237 771 270 771 c 4
 303 771 329 745 329 712 c 4
 329 679 303 653 270 653 c 4
 237 653 211 679 211 712 c 4
45 712 m 4
 45 745 71 771 104 771 c 4
 137 771 163 745 163 712 c 4
 163 679 137 653 104 653 c 4
 71 653 45 679 45 712 c 4
EndSplineSet
EndChar

StartChar: copyright
Encoding: 102 169 102
Width: 787
VWidth: 1300
Flags: HW
LayerCount: 2
Fore
SplineSet
468.486328125 293.7109375 m 1
 520.665039062 248.279296875 l 1
 495.569335938 210.153320312 452.48046875 189.374023438 398.514648438 189.374023438 c 0
 302.35546875 189.374023438 239.08203125 255.731445312 239.08203125 356.580078125 c 0
 239.08203125 456.627929688 301.795898438 523.615234375 395.461914062 523.615234375 c 0
 444.893554688 523.615234375 484.778320312 505.012695312 512.186523438 469.172851562 c 1
 458.756835938 422.71484375 l 1
 444.348632812 442.475585938 420.309570312 454.065429688 393.729492188 454.065429688 c 0
 343.33984375 454.065429688 305.969726562 411.731445312 305.969726562 354.6484375 c 0
 305.969726562 297.875 343.34375 259.477539062 398.603515625 259.477539062 c 0
 430.767578125 259.477539062 456.19140625 271.931640625 468.486328125 293.7109375 c 1
139 349.208984375 m 0
 139 182.844726562 236.94140625 83 400.134765625 83 c 0
 557.116210938 83 646 176.270507812 646 341 c 4
 646 516.55078125 546.278320312 630 391.96875 630 c 0
 239.094726562 630 139 518.896484375 139 349.208984375 c 0
38 360.5 m 0
 38 578.276367188 188.244140625 732 401.092773438 732 c 0
 609.569335938 732 749 584.517578125 749 364 c 0
 749 139.0078125 605.55078125 -17 398.671875 -17 c 0
 189.40625 -17 38 141.469726562 38 360.5 c 0
EndSplineSet
EndChar

StartChar: guillemotleft
Encoding: 104 171 104
Width: 819
VWidth: 1300
Flags: HW
HStem: 544 26G<381.212 427.815 732.754 778>
LayerCount: 2
Fore
SplineSet
778 564 m 1
 778 456 l 1
 488 324 l 1
 767 188 l 1
 767 81 l 1
 364 275 l 1
 364 381 l 1
 778 564 l 1
428 570 m 1
 427 462 l 1
 138 338 l 1
 407 204 l 1
 407 97 l 1
 42 271 l 1
 42 405 l 1
 428 570 l 1
EndSplineSet
EndChar

StartChar: uni00AD
Encoding: 106 173 106
Width: 517
VWidth: 1300
Flags: HW
HStem: 256 82<48 469>
LayerCount: 2
Fore
SplineSet
48 338 m 1
 469 338 l 1
 469 256 l 1
 48 256 l 1
 48 338 l 1
EndSplineSet
EndChar

StartChar: registered
Encoding: 107 174 107
Width: 787
VWidth: 1300
Flags: HW
LayerCount: 2
Fore
SplineSet
359.599609375 319.040039062 m 1
 346.400390625 319.040039062 l 1
 346.400390625 196.200195312 l 1
 280.080078125 196.200195312 l 1
 280.080078125 513 l 1
 411.639648438 513 l 2
 473.600585938 513 521.799804688 468.393554688 521.799804688 411.05078125 c 0
 521.799804688 358.372070312 483.04296875 320.354492188 428 319.040039062 c 1
 511.919921875 196.200195312 l 1
 439.6796875 196.200195312 l 1
 359.599609375 319.040039062 l 1
398.83984375 445.360351562 m 2
 346.400390625 445.360351562 l 1
 346.400390625 382.919921875 l 1
 400.599609375 382.919921875 l 2
 441.139648438 382.919921875 458.120117188 391.336914062 458.120117188 411.431640625 c 0
 458.120117188 433.463867188 437.334960938 445.360351562 398.83984375 445.360351562 c 2
141 349.280273438 m 0
 141 182.2890625 237.625 83 400.134765625 83 c 0
 556.408203125 83 644 175.66796875 644 341 c 0
 644 517.240234375 545.6640625 630 391.96875 630 c 0
 239.721679688 630 141 519.575195312 141 349.280273438 c 0
38 360.5 m 0
 38 578.276367188 188.244140625 732 401.092773438 732 c 0
 609.569335938 732 749 584.517578125 749 364 c 0
 749 139.0078125 605.55078125 -17 398.671875 -17 c 0
 189.40625 -17 38 141.469726562 38 360.5 c 0
EndSplineSet
EndChar

StartChar: degree
Encoding: 109 176 109
Width: 399
VWidth: 1300
Flags: HW
HStem: 418 77<143.916 253.938> 684 78<148.579 253.313>
VStem: 40 77<521.898 652.731> 279 79<519.419 657.427>
LayerCount: 2
Fore
SplineSet
117 584.170898438 m 4
 117 530.2734375 149.455078125 495 199.048828125 495 c 4
 248.984375 495 279 529.981445312 279 588.178710938 c 4
 279 647.120117188 250.376953125 684 204.631835938 684 c 4
 154.373046875 684 117 641.42578125 117 584.170898438 c 4
40 590 m 4
 40 688.9140625 107.561523438 762 199 762 c 4
 290.438476562 762 358 688.9140625 358 590 c 4
 358 491.0859375 290.438476562 418 199 418 c 4
 107.561523438 418 40 491.0859375 40 590 c 4
EndSplineSet
EndChar

StartChar: plusminus
Encoding: 110 177 110
Width: 505
VWidth: 1300
Flags: HW
HStem: 0 91<42 463> 302 100<42 201 297 463> 544 20G<201 297>
VStem: 201 96<143 302 402 564>
LayerCount: 2
Fore
SplineSet
42 91 m 1
 463 91 l 1
 463 0 l 1
 42 0 l 1
 42 91 l 1
297 402 m 1
 463 402 l 1
 463 302 l 1
 297 302 l 1
 297 143 l 1
 201 143 l 1
 201 302 l 1
 42 302 l 1
 42 402 l 1
 201 402 l 1
 201 564 l 1
 297 564 l 1
 297 402 l 1
EndSplineSet
EndChar

StartChar: uni00B2
Encoding: 111 178 111
Width: 307
VWidth: 1300
Flags: HW
HStem: 377.215 64.9502<136.97 263.495> 655.23 64.7695<107.046 193.789>
VStem: 41 54.4951<627.024 643.511> 199.45 62.2246<561.082 648.72>
LayerCount: 2
Fore
SplineSet
261.674804688 608.96875 m 4
 261.674804688 580.34765625 250.948242188 553.502929688 231.981445312 534.655273438 c 5
 136.969726562 442.165039062 l 5
 263.495117188 442.165039062 l 5
 263.495117188 377.21484375 l 5
 45.0947265625 377.21484375 l 5
 45.0947265625 443.530273438 l 4
 180.6640625 563.3203125 l 5
 192.244140625 575.163085938 198.493164062 590.6015625 199.450195312 609.73046875 c 5
 199.450195312 638.439453125 181.38671875 655.23046875 150.50390625 655.23046875 c 4
 119.439453125 655.23046875 101.375976562 638.522460938 95.4951171875 604.350585938 c 5
 41 630.365234375 l 5
 50.0908203125 682.88671875 95.896484375 720 151.62890625 720 c 4
 214.248046875 720 261.674804688 672.149414062 261.674804688 608.96875 c 4
EndSplineSet
EndChar

StartChar: uni00B3
Encoding: 112 179 112
Width: 293
VWidth: 1300
Flags: HW
HStem: 376.04 62.79<98.5748 192.364> 526.495 57.5195<109.957 190.4> 657.002 62.9258<99.527 189.029>
VStem: 39 53.1943<446.216 461.144 635.867 648.563> 197.35 52.6553<445.132 519.495 590.144 650.209>
LayerCount: 2
Fore
SplineSet
211.822265625 555.5078125 m 1
 234.189453125 547.696289062 250.004882812 516.768554688 250.004882812 480.841796875 c 0
 250.004882812 417.327148438 208.797851562 376.040039062 145.40625 376.040039062 c 0
 90.0693359375 376.040039062 47.58984375 409.018554688 39 458.647460938 c 1
 92.1943359375 477.622070312 l 1
 95.6318359375 452.702148438 114.569335938 438.830078125 145.15234375 438.830078125 c 0
 178.455078125 438.830078125 197.349609375 455.278320312 197.349609375 484.268554688 c 0
 197.349609375 512.995117188 179.270507812 526.495117188 140.799804688 526.495117188 c 1
 109.95703125 526.495117188 l 1
 109.95703125 584.014648438 l 1
 140.799804688 583.58203125 l 1
 178.124023438 583.58203125 192.625 592.905273438 192.392578125 616.751953125 c 0
 192.141601562 642.525390625 174.59375 657.001953125 143.602539062 657.001953125 c 0
 115.885742188 657.001953125 99.529296875 645.34765625 92.384765625 620.5078125 c 1
 40.3251953125 638.184570312 l 1
 48.7255859375 686.7265625 92.021484375 719.927734375 146.921875 719.927734375 c 0
 209.934570312 719.927734375 250.311523438 680.40234375 249.939453125 619.08203125 c 0
 249.724609375 583.625 233.935546875 557.291015625 211.822265625 555.5078125 c 1
EndSplineSet
EndChar

StartChar: acute
Encoding: 113 180 113
Width: 331
VWidth: 1300
Flags: HW
HStem: 654 146
VStem: 42 251
LayerCount: 2
Fore
SplineSet
169 800 m 5
 293 800 l 5
 140 654 l 5
 42 654 l 5
 169 800 l 5
EndSplineSet
EndChar

StartChar: paragraph
Encoding: 115 182 115
Width: 526
VWidth: 1300
Flags: HW
HStem: 0 20G<206 309 374 477> 620 99.9975<309 374>
VStem: 35 274<423.187 618.686> 206 103<0 327> 374 103<-1 620>
LayerCount: 2
Fore
SplineSet
477 -1 m 1xd8
 374 -1 l 1
 374 662 l 1
 309 662 l 1
 309 0 l 1
 206 0 l 1
 206 369.002929688 l 1xd8
 104.202148438 369.002929688 35 449.220703125 35 567.223632812 c 0xe8
 35 683.765625 103.682617188 761.997070312 206 761.997070312 c 1
 477 762 l 1
 477 -1 l 1xd8
EndSplineSet
EndChar

StartChar: periodcentered
Encoding: 116 183 116
Width: 210
VWidth: 1300
Flags: HW
HStem: 201 118<60.3386 151.661>
VStem: 47 118<214.339 305.661>
LayerCount: 2
Fore
SplineSet
47 260 m 4
 47 293 73 319 106 319 c 4
 139 319 165 293 165 260 c 4
 165 227 139 201 106 201 c 4
 73 201 47 227 47 260 c 4
EndSplineSet
EndChar

StartChar: cedilla
Encoding: 117 184 117
Width: 349
VWidth: 1300
Flags: HW
LayerCount: 2
Fore
SplineSet
191 24 m 1
 257 68 l 1
 289.80078125 24.8408203125 305 -17.291015625 305 -65.0556640625 c 0
 305 -150.765625 259.512695312 -197 175.188476562 -197 c 0
 98.3798828125 -197 55.888671875 -159.354492188 42 -79 c 1
 121 -59 l 1
 127.595703125 -92.8046875 144.927734375 -111 170.532226562 -111 c 0
 197.9375 -111 215.85546875 -90.4521484375 215.85546875 -59.0234375 c 0
 215.85546875 -32.6484375 205.995117188 0.287109375 191 24 c 1
EndSplineSet
EndChar

StartChar: uni00B9
Encoding: 118 185 118
Width: 245
VWidth: 1300
InSpiro: 1
Flags: HW
HStem: 700 20G<96.1695 196>
VStem: 130 66<376 645.165>
LayerCount: 2
Fore
SplineSet
196 376 m 1
 130 376 l 1
 130 645.165039062 l 1
 61 603 l 1
 38 661 l 1
 126 720 l 1
 196 720 l 1
 196 376 l 1
  Spiro
    196 376 v
    130 376 v
    130 645.165 v
    61 603 v
    38 661 v
    126 720 v
    196 720 v
    0 0 z
  EndSpiro
EndSplineSet
EndChar

StartChar: guillemotright
Encoding: 120 187 120
Width: 820
VWidth: 1300
Flags: HW
LayerCount: 2
Fore
SplineSet
43 78 m 1
 43 186 l 1
 332 318 l 1
 42 453 l 1
 42 560 l 1
 456 367 l 1
 456 261 l 1
 43 78 l 1
392 72 m 1
 393 180 l 1
 682 304 l 1
 413 438 l 1
 413 545 l 1
 778 371 l 1
 778 237 l 1
 392 72 l 1
EndSplineSet
EndChar

StartChar: onequarter
Encoding: 121 188 121
Width: 697
VWidth: 1300
Flags: HW
HStem: 0 21G<545 604.27> 74 67<447 546 605 665> 700 19G<90.169 190 474.201 590>
VStem: 124 66<376 645.165> 546 59<0 74 141 255>
LayerCount: 2
Fore
SplineSet
453 344 m 1
 523 344 l 1
 447 141 l 1
 546 141 l 1
 546 255 l 1
 605 255 l 1
 605 141 l 1
 665 141 l 1
 665 74 l 1
 605 74 l 1
 604 0 l 1
 545 0 l 1
 546 74 l 1
 379 74 l 1
 379 148 l 1
 453 344 l 1
190 376 m 5
 124 376 l 5
 124 645.165039062 l 5
 55 603 l 5
 32 661 l 5
 120 720 l 5
 190 720 l 5
 190 376 l 5
486 719 m 1
 590 719 l 1
 165 2 l 1
 63 2 l 1
 486 719 l 1
EndSplineSet
EndChar

StartChar: onehalf
Encoding: 122 189 122
Width: 658
VWidth: 1300
Flags: HW
HStem: 0 64.9502<494.475 621> 278.016 64.7695<464.551 551.294> 700 19G<90.169 190 474.201 590>
VStem: 124 66<376 645.165> 398.505 54.4951<249.809 266.296> 556.955 62.2246<183.867 271.505>
LayerCount: 2
Fore
SplineSet
190 376 m 1
 124 376 l 1
 124 645.165039062 l 1
 55 603 l 1
 32 661 l 1
 120 720 l 1
 190 720 l 1
 190 376 l 1
619.1796875 231.75390625 m 4
 619.1796875 203.1328125 608.453125 176.288085938 589.486328125 157.440429688 c 5
 494.474609375 64.9501953125 l 5
 621 64.9501953125 l 5
 621 0 l 5
 402.599609375 0 l 5
 402.599609375 66.3154296875 l 4
 538.168945312 186.10546875 l 5
 549.749023438 197.948242188 555.998046875 213.38671875 556.955078125 232.515625 c 5
 556.955078125 261.224609375 538.891601562 278.015625 508.008789062 278.015625 c 4
 476.944335938 278.015625 458.880859375 261.307617188 453 227.135742188 c 5
 398.504882812 253.150390625 l 5
 407.595703125 305.671875 453.401367188 342.78515625 509.133789062 342.78515625 c 4
 571.752929688 342.78515625 619.1796875 294.934570312 619.1796875 231.75390625 c 4
486 719 m 1
 590 719 l 1
 165 2 l 1
 63 2 l 1
 486 719 l 1
EndSplineSet
EndChar

StartChar: threequarters
Encoding: 123 190 123
Width: 707
VWidth: 1300
Flags: HW
HStem: 0 21G<555.005 614.275> 74 67<457.005 556.005 615.005 675.005> 376.04 62.79<92.5749 186.364> 526.495 57.5195<103.957 184.4> 657.002 62.9258<91.5559 183.34>
VStem: 33 53.1943<446.216 461.144 635.867 650.595> 191.35 52.6553<445.132 519.495 590.144 650.396> 556.005 59<0 74 141 255>
LayerCount: 2
Fore
SplineSet
205.822265625 555.5078125 m 5
 228.189453125 547.696289062 244.004882812 516.768554688 244.004882812 480.841796875 c 4
 244.004882812 417.327148438 202.797851562 376.040039062 139.40625 376.040039062 c 4
 84.0693359375 376.040039062 41.58984375 409.018554688 33 458.647460938 c 5
 86.1943359375 477.622070312 l 5
 89.6318359375 452.702148438 108.569335938 438.830078125 139.15234375 438.830078125 c 4
 172.455078125 438.830078125 191.349609375 455.278320312 191.349609375 484.268554688 c 4
 191.349609375 512.995117188 173.270507812 526.495117188 134.799804688 526.495117188 c 5
 103.95703125 526.495117188 l 5
 103.95703125 584.014648438 l 5
 134.799804688 583.58203125 l 5
 172.124023438 583.58203125 186.625 592.904296875 186.392578125 616.751953125 c 4
 186.141601562 642.525390625 168.59375 657.001953125 137.602539062 657.001953125 c 4
 109.885742188 657.001953125 93.529296875 645.34765625 86.384765625 620.5078125 c 5
 34.3251953125 638.184570312 l 5
 42.7255859375 686.7265625 86.021484375 719.927734375 140.921875 719.927734375 c 4
 203.934570312 719.927734375 244.311523438 680.40234375 243.939453125 619.083007812 c 4
 243.724609375 583.625 227.935546875 557.291015625 205.822265625 555.5078125 c 5
463.004882812 344 m 1
 533.004882812 344 l 1
 457.004882812 141 l 1
 556.004882812 141 l 1
 556.004882812 255 l 1
 615.004882812 255 l 1
 615.004882812 141 l 1
 675.004882812 141 l 1
 675.004882812 74 l 1
 615.004882812 74 l 1
 614.004882812 0 l 1
 555.004882812 0 l 1
 556.004882812 74 l 1
 389.004882812 74 l 1
 389.004882812 148 l 1
 463.004882812 344 l 1
496.004882812 719 m 1
 600.004882812 719 l 1
 175.004882812 2 l 1
 73.0048828125 2 l 1
 496.004882812 719 l 1
EndSplineSet
EndChar

StartChar: questiondown
Encoding: 124 191 124
Width: 468
VWidth: 1300
Flags: HW
HStem: -7 87<164.758 319.879> 611 118<192.339 283.661>
VStem: 36 88<117.793 267.054> 179 118<624.339 715.661> 357 79<119.79 151.772>
LayerCount: 2
Fore
SplineSet
297 670 m 0
 297 637 271 611 238 611 c 0
 205 611 179 637 179 670 c 0
 179 703 205 729 238 729 c 0
 271 729 297 703 297 670 c 0
36 183 m 1
 36.5859375 221.076171875 67.6513671875 303.504882812 111 382 c 1
 212 540 l 1
 286 491 l 1
 180 335 l 1
 149.5390625 282.279296875 126.342773438 225.946289062 124 199 c 1
 124 118.713867188 161.46484375 80 239.159179688 80 c 0
 307.6796875 80 346.259765625 109.465820312 357 170 c 1
 436 150 l 1
 421.797851562 52.615234375 346.461914062 -7 237.598632812 -7 c 0
 115.2578125 -7 36 67.6982421875 36 183 c 1
EndSplineSet
EndChar

StartChar: Agrave
Encoding: 125 192 125
Width: 706
VWidth: 1300
Flags: HW
HStem: -1 21G<34 150.023 558.519 672> 130 92<225 484> 700 20G<290.667 408.528>
LayerCount: 2
Fore
SplineSet
340 845 m 5
 467 762 l 5
 369 762 l 5
 216 845 l 5
 340 845 l 5
143 -1 m 1
 34 0 l 1
 298 720 l 1
 401 720 l 1
 672 0 l 1
 566 -1 l 1
 517 130 l 1
 189 130 l 1
 143 -1 l 1
352 600 m 1
 225 222 l 1
 484 222 l 1
 352 600 l 1
EndSplineSet
EndChar

StartChar: Aacute
Encoding: 126 193 126
Width: 706
VWidth: 1300
Flags: HW
HStem: -1 21G<34 150.023 558.519 672> 130 92<225 484> 700 20G<290.667 408.528> 762 21G<244 378.867>
LayerCount: 2
Fore
SplineSet
371 845 m 5
 495 845 l 5
 342 762 l 5
 244 762 l 5
 371 845 l 5
143 -1 m 1
 34 0 l 1
 298 720 l 1
 401 720 l 1
 672 0 l 1
 566 -1 l 1
 517 130 l 1
 189 130 l 1
 143 -1 l 1
352 600 m 1
 225 222 l 1
 484 222 l 1
 352 600 l 1
EndSplineSet
EndChar

StartChar: Acircumflex
Encoding: 127 194 127
Width: 706
VWidth: 1300
Flags: HW
HStem: -1 21G<34 150.023 558.519 672> 130 92<225 484> 700 20G<290.667 408.528> 762 21G<176 302.143 398.571 513>
LayerCount: 2
Fore
SplineSet
513 762 m 5
 425 762 l 5
 351 818 l 5
 275 762 l 5
 176 762 l 5
 302 855 l 5
 404 855 l 5
 513 762 l 5
143 -1 m 5
 34 0 l 5
 298 720 l 5
 401 720 l 5
 672 0 l 5
 566 -1 l 5
 517 130 l 5
 189 130 l 5
 143 -1 l 5
352 600 m 5
 225 222 l 5
 484 222 l 5
 352 600 l 5
EndSplineSet
EndChar

StartChar: Atilde
Encoding: 128 195 128
Width: 706
VWidth: 1300
Flags: HW
HStem: -1 21G<34 150.023 558.519 672> 130 92<225 484> 700 20G<290.667 408.528> 759 71<369.139 482.602> 809 77<220.683 346.211>
LayerCount: 2
Fore
SplineSet
180 842 m 5xe8
 209.875 867.774414062 254.940429688 886 288.796875 886 c 4xe8
 347.657226562 886 364.657226562 830 423.517578125 830 c 4
 450.161132812 830 484.326171875 847.396484375 506 872 c 5
 529 802 l 5
 502.486328125 777.053710938 458.4296875 759.26953125 422.638671875 759.06640625 c 4xf0
 356.000976562 758.686523438 350 809 289.701171875 809 c 4
 257.045898438 809 218.234375 791.188476562 196 766 c 5
 180 842 l 5xe8
143 -1 m 1
 34 0 l 1
 298 720 l 1
 401 720 l 1
 672 0 l 1
 566 -1 l 1
 517 130 l 1
 189 130 l 1
 143 -1 l 1
352 600 m 1
 225 222 l 1
 484 222 l 1
 352 600 l 1
EndSplineSet
EndChar

StartChar: Adieresis
Encoding: 129 196 129
Width: 706
VWidth: 1300
Flags: HW
HStem: -1 21G<34 150.023 558.519 672> 130 92<225 484> 700 20G<290.667 408.528> 761 96<222.285 317.979 388.285 483.979>
VStem: 211 118<772.391 844.496> 377 118<772.391 844.496>
LayerCount: 2
Fore
SplineSet
377 808 m 4
 377 833.770507812 405.20703125 857 436.5 857 c 4
 467.5 857 495 833.965820312 495 808 c 4
 495 782.50390625 468.234375 761 436.5 761 c 4
 404.45703125 761 377 782.688476562 377 808 c 4
211 808 m 4
 211 833.770507812 239.20703125 857 270.5 857 c 4
 301.5 857 329 833.965820312 329 808 c 4
 329 782.50390625 302.234375 761 270.5 761 c 4
 238.45703125 761 211 782.688476562 211 808 c 4
143 -1 m 1
 34 0 l 1
 298 720 l 1
 401 720 l 1
 672 0 l 1
 566 -1 l 1
 517 130 l 1
 189 130 l 1
 143 -1 l 1
352 600 m 1
 225 222 l 1
 484 222 l 1
 352 600 l 1
EndSplineSet
EndChar

StartChar: Aring
Encoding: 130 197 130
Width: 706
VWidth: 1300
Flags: HW
HStem: -1 21G<34 150.023 558.519 672> 130 92<225 484> 700 20G<290.667 408.528> 751.66 60<317.463 376.881> 873.66 62.3398<317.32 377.406>
VStem: 253 62<813.557 871.284> 379 63.21<813.508 871.24>
LayerCount: 2
Fore
SplineSet
315 842.450195312 m 4
 315 824.984375 329.059570312 811.66015625 347.48828125 811.66015625 c 4
 365.62890625 811.66015625 379 825.1484375 379 843.448242188 c 4
 379 861.182617188 366.1953125 873.66015625 347.994140625 873.66015625 c 4
 329.192382812 873.66015625 315 860.235351562 315 842.450195312 c 4
253 843.08984375 m 4
 253 899.258789062 289.028320312 936 344.104492188 936 c 4
 401.150390625 936 442.209960938 897.115234375 442.209960938 843.08984375 c 4
 442.209960938 789.505859375 401.6015625 751.66015625 344.104492188 751.66015625 c 4
 288.616210938 751.66015625 253 787.403320312 253 843.08984375 c 4
143 -1 m 1
 34 0 l 1
 298 720 l 1
 401 720 l 1
 672 0 l 1
 566 -1 l 1
 517 130 l 1
 189 130 l 1
 143 -1 l 1
352 600 m 1
 225 222 l 1
 484 222 l 1
 352 600 l 1
EndSplineSet
EndChar

StartChar: AE
Encoding: 131 198 131
Width: 982
VWidth: 1300
Flags: HW
HStem: 2 102<570 942> 141.994 92<280 464> 298 98<570 894> 618 101<570 941>
VStem: 464 106<104 140.994 233 298 396 572.425>
LayerCount: 2
Fore
SplineSet
159 1 m 1
 32 1 l 1
 464 719 l 1
 941 719 l 1
 941 618 l 1
 570 618 l 1
 570 396 l 1
 894 396 l 1
 894 298 l 1
 570 298 l 1
 570 104 l 1
 942 104 l 1
 942 2 l 1
 464 2 l 1
 464 140.994140625 l 1
 241 141.994140625 l 1
 159 1 l 1
464 572.424804688 m 5
 280 233.994140625 l 1
 464 233 l 1
 464 572.424804688 l 5
EndSplineSet
EndChar

StartChar: Ccedilla
Encoding: 132 199 132
Width: 705
VWidth: 1300
Flags: HW
HStem: -197 87<326.726 402.547> -16.9177 104.918<286.75 407.42> 628 104<291.606 486.129>
VStem: 40 105<241.479 468.885>
LayerCount: 2
Fore
SplineSet
596 183 m 1
 671 115 l 1
 629.435546875 51.853515625 565.453125 9.80859375 484.301757812 -7.6865234375 c 1
 495.20703125 -32.2568359375 500 -53.2587890625 500 -76.4765625 c 0
 500 -152.28125 451.834960938 -197 370.188476562 -197 c 0
 293.379882812 -197 250.888671875 -159.354492188 237 -79 c 1
 316 -59 l 1
 322.415039062 -94.283203125 336.095703125 -110 360.393554688 -110 c 4
 403.7265625 -110 425.501953125 -60.2900390625 401.166992188 -16.91796875 c 1
 184.462890625 -20.8310546875 40 128.883789062 40 357.379882812 c 0
 40 581.829101562 180.475585938 732 390.432617188 732 c 0
 501.206054688 732 590.584960938 690.3125 652 610 c 1
 569 541 l 1
 529.014648438 595.837890625 462.302734375 628 388.543945312 628 c 0
 248.708007812 628 145 510.516601562 145 352.106445312 c 0
 145 194.556640625 248.71875 88 402.072265625 88 c 0
 491.33203125 88 561.880859375 122.559570312 596 183 c 1
EndSplineSet
EndChar

StartChar: Egrave
Encoding: 133 200 133
Width: 565
VWidth: 1300
Flags: HW
LayerCount: 2
Fore
SplineSet
267 845 m 5
 394 762 l 5
 296 762 l 5
 143 845 l 5
 267 845 l 5
525 104 m 1
 525 0 l 1
 47 0 l 1
 47 720 l 1
 524 720 l 1
 524 618 l 1
 147 618 l 1
 147 426 l 1
 477 426 l 1
 477 328 l 1
 147 328 l 1
 147 104 l 1
 525 104 l 1
EndSplineSet
EndChar

StartChar: Eacute
Encoding: 134 201 134
Width: 565
VWidth: 1300
Flags: HW
HStem: 762 21G<162 296.867>
LayerCount: 2
Fore
SplineSet
289 845 m 1
 413 845 l 1
 260 762 l 1
 162 762 l 1
 289 845 l 1
525 104 m 1
 525 0 l 1
 47 0 l 1
 47 720 l 1
 524 720 l 1
 524 618 l 1
 147 618 l 1
 147 426 l 1
 477 426 l 1
 477 328 l 1
 147 328 l 1
 147 104 l 1
 525 104 l 1
EndSplineSet
EndChar

StartChar: Ecircumflex
Encoding: 135 202 135
Width: 565
VWidth: 1300
Flags: HW
HStem: 762 21G<116 238.692 340.846 453>
LayerCount: 2
Fore
SplineSet
453 762 m 5
 372 762 l 5
 291 814 l 5
 206 762 l 5
 116 762 l 5
 242 854 l 5
 344 854 l 5
 453 762 l 5
525 104 m 5
 525 0 l 5
 47 0 l 5
 47 720 l 5
 524 720 l 5
 524 618 l 5
 147 618 l 5
 147 426 l 5
 477 426 l 5
 477 328 l 5
 147 328 l 5
 147 104 l 5
 525 104 l 5
EndSplineSet
EndChar

StartChar: Edieresis
Encoding: 136 203 136
Width: 565
VWidth: 1300
Flags: HW
HStem: 761 96<148.285 243.979 314.285 409.979>
VStem: 137 118<772.391 844.496> 303 118<772.391 844.496>
LayerCount: 2
Fore
SplineSet
303 808 m 4
 303 833.770507812 331.20703125 857 362.5 857 c 4
 393.5 857 421 833.965820312 421 808 c 4
 421 782.50390625 394.234375 761 362.5 761 c 4
 330.45703125 761 303 782.688476562 303 808 c 4
137 808 m 4
 137 833.770507812 165.20703125 857 196.5 857 c 4
 227.5 857 255 833.965820312 255 808 c 4
 255 782.50390625 228.234375 761 196.5 761 c 4
 164.45703125 761 137 782.688476562 137 808 c 4
525 104 m 1
 525 0 l 1
 47 0 l 1
 47 720 l 1
 524 720 l 1
 524 618 l 1
 147 618 l 1
 147 426 l 1
 477 426 l 1
 477 328 l 1
 147 328 l 1
 147 104 l 1
 525 104 l 1
EndSplineSet
EndChar

StartChar: Igrave
Encoding: 137 204 137
Width: 313
VWidth: 1300
Flags: HW
HStem: 0 21G<107 210> 700 20G<107 210>
VStem: 107 103<0 720>
LayerCount: 2
Fore
SplineSet
154 845 m 5
 281 762 l 5
 183 762 l 5
 30 845 l 5
 154 845 l 5
210 0 m 1
 107 0 l 1
 107 720 l 1
 210 720 l 1
 210 0 l 1
EndSplineSet
EndChar

StartChar: Iacute
Encoding: 138 205 138
Width: 313
VWidth: 1300
Flags: HW
HStem: 0 21G<97 200> 700 20G<97 200> 762 21G<30 164.867>
VStem: 97 103<0 720>
LayerCount: 2
Fore
SplineSet
157 845 m 5
 281 845 l 5
 128 762 l 5
 30 762 l 5
 157 845 l 5
200 0 m 1
 97 0 l 1
 97 720 l 1
 200 720 l 1
 200 0 l 1
EndSplineSet
EndChar

StartChar: Icircumflex
Encoding: 139 206 139
Width: 399
VWidth: 1300
Flags: HW
HStem: 0 21G<151 254> 700 20G<151 254> 762 21G<30 152.692 254.846 367>
VStem: 151 103<0 720>
LayerCount: 2
Fore
SplineSet
367 762 m 5
 286 762 l 5
 205 814 l 5
 120 762 l 5
 30 762 l 5
 156 854 l 5
 258 854 l 5
 367 762 l 5
254 0 m 1
 151 0 l 1
 151 720 l 1
 254 720 l 1
 254 0 l 1
EndSplineSet
EndChar

StartChar: Idieresis
Encoding: 140 207 140
Width: 347
VWidth: 1300
Flags: HW
HStem: 0 21G<119 222> 700 20G<119 222> 761 96<42.2852 137.978 208.285 303.979>
VStem: 31 118<772.391 844.496> 119 103<0 720> 197 118<772.391 844.496>
LayerCount: 2
Fore
SplineSet
197 808 m 0xe4
 197 833.770507812 225.20703125 857 256.5 857 c 0
 287.5 857 315 833.965820312 315 808 c 0
 315 782.50390625 288.234375 761 256.5 761 c 0
 224.45703125 761 197 782.688476562 197 808 c 0xe4
31 808 m 0xf0
 31 833.770507812 59.20703125 857 90.5 857 c 0
 121.5 857 149 833.965820312 149 808 c 0
 149 782.50390625 122.234375 761 90.5 761 c 0
 58.45703125 761 31 782.688476562 31 808 c 0xf0
222 0 m 1xe8
 119 0 l 1
 119 720 l 1
 222 720 l 1
 222 0 l 1xe8
EndSplineSet
EndChar

StartChar: Eth
Encoding: 141 208 141
Width: 721
VWidth: 1300
Flags: HW
HStem: 0 107<223 458.074> 325 91<37 120 223 372> 614 106<223 450.279>
VStem: 120 103<107 325 416 614> 571 105<232.907 473.909>
LayerCount: 2
Fore
SplineSet
363 720 m 6
 550.830078125 720 676 575.455078125 676 358.55078125 c 4
 676 142.65625 551.865234375 0 364 0 c 6
 120 0 l 5
 120 325 l 5
 37 325 l 5
 37 416 l 5
 120 416 l 5
 120 720 l 5
 363 720 l 6
363 614 m 6
 223 614 l 5
 223 416 l 5
 372 416 l 5
 372 325 l 5
 223 325 l 5
 223 107 l 5
 364 107 l 6
 490.649414062 107 571 200.944335938 571 349.022460938 c 4
 571 504.865234375 485.33203125 614 363 614 c 6
EndSplineSet
EndChar

StartChar: Ntilde
Encoding: 142 209 142
Width: 680
VWidth: 1300
Flags: HW
HStem: 0 21G<47 150 484.13 628> 700 20G<47 191.815 525 628> 759 71<352.139 465.602> 809 77<203.683 329.211>
VStem: 47 103<0 583> 525 103<136 720>
LayerCount: 2
Fore
SplineSet
163 842 m 1xdc
 192.875 867.774414062 237.940429688 886 271.796875 886 c 0xdc
 330.657226562 886 347.657226562 830 406.517578125 830 c 0
 433.161132812 830 467.326171875 847.396484375 489 872 c 1
 512 802 l 1
 485.486328125 777.053710938 441.4296875 759.26953125 405.638671875 759.06640625 c 0xec
 339.000976562 758.686523438 333 809 272.701171875 809 c 0
 240.045898438 809 201.234375 791.188476562 179 766 c 1
 163 842 l 1xdc
150 0 m 1
 47 0 l 1
 47 720 l 1
 180 720 l 1
 525 136 l 1
 525 720 l 1
 628 720 l 1
 628 0 l 1
 496 0 l 1
 150 583 l 1
 150 0 l 1
EndSplineSet
EndChar

StartChar: Ograve
Encoding: 143 210 143
Width: 735
VWidth: 1300
Flags: HW
HStem: -17 100<271.285 464.49> 630 102<271.949 455.411>
VStem: 39 103<228.45 479.092> 586 105<224.307 479.592>
LayerCount: 2
Fore
SplineSet
350 845 m 5
 477 762 l 5
 379 762 l 5
 226 845 l 5
 350 845 l 5
142 349.673828125 m 0
 142 187.745117188 231.36328125 83 369.512695312 83 c 0
 503.384765625 83 586 181.458007812 586 341 c 0
 586 512.061523438 494.659179688 630 362.176757812 630 c 0
 231.8515625 630 142 515.6015625 142 349.673828125 c 0
39 360.5 m 0
 39 573.381835938 180.657226562 732 370.775390625 732 c 0
 557.9140625 732 691 579.05859375 691 364 c 0
 691 144.3359375 554.529296875 -17 368.719726562 -17 c 0
 181.563476562 -17 39 146.22265625 39 360.5 c 0
EndSplineSet
EndChar

StartChar: Oacute
Encoding: 144 211 144
Width: 735
VWidth: 1300
Flags: HW
HStem: -17 100<271.285 464.49> 630 102<271.949 455.411> 762 21G<247 381.867>
VStem: 39 103<228.45 479.092> 586 105<224.307 479.592>
LayerCount: 2
Fore
SplineSet
374 845 m 5
 498 845 l 5
 345 762 l 5
 247 762 l 5
 374 845 l 5
142 349.673828125 m 0
 142 187.745117188 231.36328125 83 369.512695312 83 c 0
 503.384765625 83 586 181.458007812 586 341 c 0
 586 512.061523438 494.659179688 630 362.176757812 630 c 0
 231.8515625 630 142 515.6015625 142 349.673828125 c 0
39 360.5 m 0
 39 573.381835938 180.657226562 732 370.775390625 732 c 0
 557.9140625 732 691 579.05859375 691 364 c 0
 691 144.3359375 554.529296875 -17 368.719726562 -17 c 0
 181.563476562 -17 39 146.22265625 39 360.5 c 0
EndSplineSet
EndChar

StartChar: Ocircumflex
Encoding: 145 212 145
Width: 735
VWidth: 1300
Flags: HW
HStem: -17 100<271.285 464.49> 630 102<271.949 455.411> 762 21G<193 315.692 417.846 530>
VStem: 39 103<228.45 479.092> 586 105<224.307 479.592>
LayerCount: 2
Fore
SplineSet
530 762 m 5
 449 762 l 5
 368 814 l 5
 283 762 l 5
 193 762 l 5
 319 854 l 5
 421 854 l 5
 530 762 l 5
142 349.673828125 m 4
 142 187.745117188 231.36328125 83 369.512695312 83 c 4
 503.384765625 83 586 181.458007812 586 341 c 4
 586 512.061523438 494.659179688 630 362.176757812 630 c 4
 231.8515625 630 142 515.6015625 142 349.673828125 c 4
39 360.5 m 4
 39 573.381835938 180.657226562 732 370.775390625 732 c 4
 557.9140625 732 691 579.05859375 691 364 c 4
 691 144.3359375 554.529296875 -17 368.719726562 -17 c 4
 181.563476562 -17 39 146.22265625 39 360.5 c 4
EndSplineSet
EndChar

StartChar: Otilde
Encoding: 146 213 146
Width: 735
VWidth: 1300
Flags: HW
HStem: -17 100<271.285 464.49> 630 102<271.949 455.411> 759 71<406.139 519.602> 809 77<257.683 383.211>
VStem: 39 103<228.45 479.092> 586 105<224.307 479.592>
LayerCount: 2
Fore
SplineSet
217 842 m 5xdc
 246.875 867.774414062 291.940429688 886 325.796875 886 c 4xdc
 384.657226562 886 401.657226562 830 460.517578125 830 c 4
 487.161132812 830 521.326171875 847.396484375 543 872 c 5
 566 802 l 5
 539.486328125 777.053710938 495.4296875 759.26953125 459.638671875 759.06640625 c 4xec
 393.000976562 758.686523438 387 809 326.701171875 809 c 4
 294.045898438 809 255.234375 791.188476562 233 766 c 5
 217 842 l 5xdc
142 349.673828125 m 0
 142 187.745117188 231.36328125 83 369.512695312 83 c 0
 503.384765625 83 586 181.458007812 586 341 c 0
 586 512.061523438 494.659179688 630 362.176757812 630 c 0
 231.8515625 630 142 515.6015625 142 349.673828125 c 0
39 360.5 m 0
 39 573.381835938 180.657226562 732 370.775390625 732 c 0
 557.9140625 732 691 579.05859375 691 364 c 0
 691 144.3359375 554.529296875 -17 368.719726562 -17 c 0
 181.563476562 -17 39 146.22265625 39 360.5 c 0
EndSplineSet
EndChar

StartChar: Odieresis
Encoding: 147 214 147
Width: 735
VWidth: 1300
Flags: HW
HStem: -17 100<271.285 464.49> 630 102<271.949 455.411> 761 96<241.285 336.979 407.285 502.979>
VStem: 39 103<228.45 479.092> 230 118<772.391 844.496> 396 118<772.391 844.496> 586 105<224.307 479.592>
LayerCount: 2
Fore
SplineSet
396 808 m 4
 396 833.770507812 424.20703125 857 455.5 857 c 4
 486.5 857 514 833.965820312 514 808 c 4
 514 782.50390625 487.234375 761 455.5 761 c 4
 423.45703125 761 396 782.688476562 396 808 c 4
230 808 m 4
 230 833.770507812 258.20703125 857 289.5 857 c 4
 320.5 857 348 833.965820312 348 808 c 4
 348 782.50390625 321.234375 761 289.5 761 c 4
 257.45703125 761 230 782.688476562 230 808 c 4
142 349.673828125 m 0
 142 187.745117188 231.36328125 83 369.512695312 83 c 0
 503.384765625 83 586 181.458007812 586 341 c 0
 586 512.061523438 494.659179688 630 362.176757812 630 c 0
 231.8515625 630 142 515.6015625 142 349.673828125 c 0
39 360.5 m 0
 39 573.381835938 180.657226562 732 370.775390625 732 c 0
 557.9140625 732 691 579.05859375 691 364 c 0
 691 144.3359375 554.529296875 -17 368.719726562 -17 c 0
 181.563476562 -17 39 146.22265625 39 360.5 c 0
EndSplineSet
EndChar

StartChar: multiply
Encoding: 148 215 148
Width: 448
VWidth: 1300
Flags: HW
LayerCount: 2
Fore
SplineSet
227.08984375 242.239257812 m 1
 109.709960938 122.859375 l 1
 39 193.5703125 l 1
 158.37890625 310.950195312 l 1
 43.94921875 423.379882812 l 1
 111.83203125 491.26171875 l 1
 224.26171875 376.83203125 l 1
 336.69140625 491.26171875 l 1
 407.40234375 420.551757812 l 1
 292.97265625 308.12109375 l 1
 409.5234375 193.5703125 l 1
 341.641601562 125.6875 l 1
 227.08984375 242.239257812 l 1
EndSplineSet
EndChar

StartChar: Oslash
Encoding: 149 216 149
Width: 735
VWidth: 1300
Flags: HW
HStem: -17 100<311.397 464.49> 630 102<271.949 458.208>
VStem: 39 103<228.56 479.092> 586 105<224.307 478.965>
LayerCount: 2
Fore
SplineSet
39 360.827148438 m 0
 39 573.208984375 180.483398438 732 369.716796875 732 c 0
 418.515625 732 464.516601562 721.821289062 505.701171875 701.911132812 c 1
 541 774 l 1
 620 717 l 1
 584.823242188 645.625 l 1
 652.729492188 578.029296875 691 476.314453125 691 363.431640625 c 0
 691 144.26953125 554.46484375 -17 368.9140625 -17 c 0
 333.275390625 -17 298.946289062 -11.318359375 266.595703125 -0.0654296875 c 1
 234 -75 l 1
 152 -27 l 1
 183.749023438 44.4169921875 l 1
 93.4052734375 112.83984375 39 231.765625 39 360.827148438 c 0
227.038085938 132.821289062 m 1
 459.418945312 607.392578125 l 1
 431.26953125 622.549804688 400.368164062 630 365.653320312 630 c 0
 232.98046875 630 142 516.821289062 142 351.77734375 c 0
 142 258.627929688 172.434570312 180.264648438 227.038085938 132.821289062 c 1
310.836914062 89.7001953125 m 1
 328.983398438 85.2265625 348.106445312 83 368.39453125 83 c 0
 504.118164062 83 586 182.352539062 586 347.03515625 c 0
 586 424.297851562 568.006835938 489.803710938 532.9140625 540.301757812 c 1
 310.836914062 89.7001953125 l 1
EndSplineSet
EndChar

StartChar: Ugrave
Encoding: 150 217 150
Width: 635
VWidth: 1300
Flags: HW
HStem: -17 105<216.806 413.114> 700 20G<46 149 482.957 586.046>
VStem: 46 103<156.864 720> 482 105<157.234 720>
LayerCount: 2
Fore
SplineSet
310 845 m 5
 437 762 l 5
 339 762 l 5
 186 845 l 5
 310 845 l 5
46 291 m 2
 46 720 l 1
 149 720 l 1
 149 254 l 2
 149 142.02734375 203.985351562 88 317.944335938 88 c 0
 429.733398438 88 482 140.567382812 482 253 c 2
 483 720 l 1
 586 720 l 1
 587 284 l 2
 587 88.4853515625 492.240234375 -17 316.60546875 -17 c 0
 139.87109375 -17 46 89.8427734375 46 291 c 2
EndSplineSet
EndChar

StartChar: Uacute
Encoding: 151 218 151
Width: 635
VWidth: 1300
Flags: HW
HStem: -17 105<216.806 413.114> 700 20G<46 149 482.957 586.046> 762 21G<203 337.867>
VStem: 46 103<156.864 720> 482 105<157.234 720>
LayerCount: 2
Fore
SplineSet
330 845 m 5
 454 845 l 5
 301 762 l 5
 203 762 l 5
 330 845 l 5
46 291 m 2
 46 720 l 1
 149 720 l 1
 149 254 l 2
 149 142.02734375 203.985351562 88 317.944335938 88 c 0
 429.733398438 88 482 140.567382812 482 253 c 2
 483 720 l 1
 586 720 l 1
 587 284 l 2
 587 88.4853515625 492.240234375 -17 316.60546875 -17 c 0
 139.87109375 -17 46 89.8427734375 46 291 c 2
EndSplineSet
EndChar

StartChar: Ucircumflex
Encoding: 152 219 152
Width: 635
VWidth: 1300
Flags: HW
HStem: -17 105<216.806 413.114> 700 20G<46 149 482.957 586.046> 762 21G<148 270.692 372.846 485>
VStem: 46 103<156.864 720> 482 105<157.234 720>
LayerCount: 2
Fore
SplineSet
485 762 m 5
 404 762 l 5
 323 814 l 5
 238 762 l 5
 148 762 l 5
 274 854 l 5
 376 854 l 5
 485 762 l 5
46 291 m 2
 46 720 l 1
 149 720 l 1
 149 254 l 2
 149 142.02734375 203.985351562 88 317.944335938 88 c 0
 429.733398438 88 482 140.567382812 482 253 c 2
 483 720 l 1
 586 720 l 1
 587 284 l 2
 587 88.4853515625 492.240234375 -17 316.60546875 -17 c 0
 139.87109375 -17 46 89.8427734375 46 291 c 2
EndSplineSet
EndChar

StartChar: Udieresis
Encoding: 153 220 153
Width: 635
VWidth: 1300
Flags: HW
HStem: -17 105<216.806 413.114> 700 20G<46 149 482.957 586.046> 761 96<178.285 273.979 344.285 439.979>
VStem: 46 103<156.864 720> 167 118<772.391 844.496> 333 118<772.391 844.496> 482 105<157.234 720>
LayerCount: 2
Fore
SplineSet
333 808 m 0
 333 833.770507812 361.20703125 857 392.5 857 c 0
 423.5 857 451 833.965820312 451 808 c 0
 451 782.50390625 424.234375 761 392.5 761 c 0
 360.45703125 761 333 782.688476562 333 808 c 0
167 808 m 0
 167 833.770507812 195.20703125 857 226.5 857 c 0
 257.5 857 285 833.965820312 285 808 c 0
 285 782.50390625 258.234375 761 226.5 761 c 0
 194.45703125 761 167 782.688476562 167 808 c 0
46 291 m 2
 46 720 l 1
 149 720 l 1
 149 254 l 2
 149 142.02734375 203.985351562 88 317.944335938 88 c 0
 429.733398438 88 482 140.567382812 482 253 c 2
 483 720 l 1
 586 720 l 1
 587 284 l 2
 587 88.4853515625 492.240234375 -17 316.60546875 -17 c 0
 139.87109375 -17 46 89.8427734375 46 291 c 2
EndSplineSet
EndChar

StartChar: Yacute
Encoding: 154 221 154
Width: 658
VWidth: 1300
Flags: HW
HStem: 0 21G<279 378> 700 20G<32 155.973 499.509 624> 762 21G<235 369.867>
VStem: 279 99<0 245>
LayerCount: 2
Fore
SplineSet
362 845 m 1
 486 845 l 1
 333 762 l 1
 235 762 l 1
 362 845 l 1
32 720 m 1
 146 720 l 1
 332 347 l 1
 509 720 l 1
 624 720 l 1
 378 245 l 1
 378 0 l 1
 279 0 l 1
 279 245 l 1
 32 720 l 1
EndSplineSet
EndChar

StartChar: Thorn
Encoding: 155 222 155
Width: 630
VWidth: 1300
Flags: HW
HStem: 0 21G<48 151> 176 101<151 441.534> 521 106<152 428.025>
VStem: 48 103<0 176 277 521 627 800> 489 97<320.735 470.149>
LayerCount: 2
Fore
SplineSet
308 521 m 2
 151 521 l 1
 151 277 l 1
 312 277 l 2
 443.451171875 277 489 305.725585938 489 388.624023438 c 0
 489 480.327148438 433.387695312 521 308 521 c 2
344 176 m 2
 151 176 l 1
 151 0 l 1
 48 0 l 1
 48 800 l 1
 152 800 l 1
 152 627 l 1
 338 627 l 2
 501.158203125 627 586 546.793945312 586 392.55078125 c 0
 586 244.786132812 509.129882812 176 344 176 c 2
EndSplineSet
EndChar

StartChar: germandbls
Encoding: 156 223 156
Width: 650
VWidth: 1300
Flags: HW
HStem: -8 92<320.617 477.895> 0 21G<46 149> 326 96<208 366.47> 630 96<190.455 352.449>
VStem: 46 103<0 585.261> 403 94<456.975 583.114> 514 94<118.859 264.784>
LayerCount: 2
Fore
SplineSet
429 393 m 1x7e
 533.85546875 383.041992188 608 296.120117188 608 183.153320312 c 0
 608 59.705078125 534.681640625 -8 401 -8 c 0
 291.428710938 -8 238.471679688 32.1748046875 198 146 c 1
 278 176 l 1
 303.846679688 105.84375 331.477539062 84 394.370117188 84 c 0xbe
 475.250976562 84 514 115.7109375 514 181.901367188 c 0
 514 267.524414062 445.825195312 326 346 326 c 2
 208 326 l 1
 208 422 l 1
 291 421.727539062 l 1
 363.442382812 422.149414062 403.432617188 456.434570312 403.040039062 517.78125 c 0
 402.6015625 586.194335938 350.380859375 630.01953125 269.321289062 630.000976562 c 0
 190.626953125 629.982421875 149 587.083007812 149 506 c 2
 149 0 l 1
 46 0 l 1
 46 507 l 1
 46 644.973632812 126.287109375 726 263 726 c 1
 413.557617188 726 497.924804688 653.90234375 496.930664062 526.088867188 c 0
 496.40625 458.671875 468.268554688 403.543945312 429 393 c 1x7e
EndSplineSet
EndChar

StartChar: agrave
Encoding: 157 224 157
Width: 621
VWidth: 1300
Flags: HW
HStem: -10 100<166.848 372.353> 0 21G<482.502 570.502> 254 92<186.97 480.336> 476 97<222.546 406.971>
VStem: 34.5023 99<120.992 211.315> 482.502 88<0 86 177.332 235 328 401.763>
LayerCount: 2
Fore
SplineSet
310.501953125 763 m 5x3c
 437.501953125 637 l 5
 339.501953125 637 l 5
 186.501953125 763 l 5
 310.501953125 763 l 5x3c
481.501953125 328 m 1
 478.508789062 416.8046875 411.715820312 476 314.505859375 476 c 0
 239.310546875 476 179.568359375 441.299804688 147.501953125 379 c 1
 54.501953125 415 l 1
 101.203125 511.993164062 205.306640625 573 324.1171875 573 c 0
 466.022460938 573 570.501953125 471.651367188 570.501953125 334 c 2
 570.501953125 0 l 1
 482.501953125 0 l 1x7c
 482.501953125 86 l 1
 433.905273438 27.462890625 346.512695312 -10 258.553710938 -10 c 0xbc
 131.670898438 -10 34.4892578125 66.4912109375 35.001953125 165.958007812 c 0
 35.55078125 272.485351562 143.932617188 346.008789062 300.40234375 346 c 0
 346.731445312 345.997070312 421.74609375 338.541015625 481.501953125 328 c 1
  Spiro
    481.502 328 v
    458.802 405.86 o
    402.84 457.444 o
    323.502 476 o
    251.494 465.983 o
    191.524 434.327 o
    147.502 379 v
    54.5023 415 v
    124.379 503.893 o
    220.977 556.071 o
    329.502 573 o
    463.876 535.773 o
    544.074 445.19 o
    570.502 334 [
    570.502 0 v
    482.502 0 v
    482.502 86 v
    427.012 37.5982 o
    355.315 3.08612 o
    278.502 -10 o
    148.685 14.2498 o
    64.3698 79.1179 o
    34.5023 172 o
    65.9596 257.48 o
    155.433 321.163 o
    297.502 346 o
    381.564 341.339 o
    452.073 332.658 o
    0 0 z
  EndSpiro
480.501953125 235 m 1
 418.509765625 246.20703125 343.825195312 254.06640625 300.196289062 253.974609375 c 0
 200.25390625 253.764648438 135.469726562 219.807617188 134.928710938 167.349609375 c 0
 134.439453125 119.9140625 181.651367188 90 257.005859375 90 c 0xbc
 379.40625 90 480.501953125 155.58984375 480.501953125 235 c 1
  Spiro
    480.502 235 v
    450.817 239.946 o
    383.615 249.14 o
    312.502 254 o
    219.507 243.921 o
    157.199 215.247 o
    133.502 170 o
    147.105 129.739 o
    187.26 100.942 o
    255.502 90 o
    360.402 107.336 o
    445.567 157.027 o
    0 0 z
  EndSpiro
EndSplineSet
EndChar

StartChar: aacute
Encoding: 158 225 158
Width: 621
VWidth: 1300
Flags: HW
HStem: -10 100<166.848 372.353> 0 21G<482.502 570.502> 254 92<186.97 480.336> 476 97<222.546 406.971> 742 20G<322.622 469.502>
VStem: 34.5023 99<120.992 211.315> 482.502 88<0 86 177.332 235 328 401.763>
LayerCount: 2
Fore
SplineSet
345.501953125 762 m 5x3e
 469.501953125 762 l 5
 316.501953125 637 l 5
 202.501953125 637 l 5
 345.501953125 762 l 5x3e
481.501953125 328 m 1
 478.508789062 416.8046875 411.715820312 476 314.505859375 476 c 0
 239.310546875 476 179.568359375 441.299804688 147.501953125 379 c 1
 54.501953125 415 l 1
 101.203125 511.993164062 205.306640625 573 324.1171875 573 c 0
 466.022460938 573 570.501953125 471.651367188 570.501953125 334 c 2
 570.501953125 0 l 1
 482.501953125 0 l 1x7e
 482.501953125 86 l 1
 433.905273438 27.462890625 346.512695312 -10 258.553710938 -10 c 0xbe
 131.670898438 -10 34.4892578125 66.4912109375 35.001953125 165.958007812 c 0
 35.55078125 272.485351562 143.932617188 346.008789062 300.40234375 346 c 0
 346.731445312 345.997070312 421.74609375 338.541015625 481.501953125 328 c 1
  Spiro
    481.502 328 v
    458.802 405.86 o
    402.84 457.444 o
    323.502 476 o
    251.494 465.983 o
    191.524 434.327 o
    147.502 379 v
    54.5023 415 v
    124.379 503.893 o
    220.977 556.071 o
    329.502 573 o
    463.876 535.773 o
    544.074 445.19 o
    570.502 334 [
    570.502 0 v
    482.502 0 v
    482.502 86 v
    427.012 37.5982 o
    355.315 3.08612 o
    278.502 -10 o
    148.685 14.2498 o
    64.3698 79.1179 o
    34.5023 172 o
    65.9596 257.48 o
    155.433 321.163 o
    297.502 346 o
    381.564 341.339 o
    452.073 332.658 o
    0 0 z
  EndSpiro
480.501953125 235 m 1
 418.509765625 246.20703125 343.825195312 254.06640625 300.196289062 253.974609375 c 0
 200.25390625 253.764648438 135.469726562 219.807617188 134.928710938 167.349609375 c 0
 134.439453125 119.9140625 181.651367188 90 257.005859375 90 c 0xbe
 379.40625 90 480.501953125 155.58984375 480.501953125 235 c 1
  Spiro
    480.502 235 v
    450.817 239.946 o
    383.615 249.14 o
    312.502 254 o
    219.507 243.921 o
    157.199 215.247 o
    133.502 170 o
    147.105 129.739 o
    187.26 100.942 o
    255.502 90 o
    360.402 107.336 o
    445.567 157.027 o
    0 0 z
  EndSpiro
EndSplineSet
EndChar

StartChar: acircumflex
Encoding: 159 226 159
Width: 620
VWidth: 1300
Flags: HW
HStem: -10 100<166.848 372.353> 0 21G<482.502 570.502> 254 92<186.97 480.336> 476 97<222.546 406.971> 742 20G<253.696 390.771>
VStem: 34.5023 99<120.992 211.315> 482.502 88<0 86 177.332 235 328 401.763>
LayerCount: 2
Fore
SplineSet
483.501953125 628 m 5x3e
 395.501953125 628 l 5
 321.501953125 705 l 5
 245.501953125 628 l 5
 146.501953125 628 l 5
 272.501953125 762 l 5
 374.501953125 762 l 5
 483.501953125 628 l 5x3e
481.501953125 328 m 5
 478.508789062 416.8046875 411.715820312 476 314.505859375 476 c 4
 239.310546875 476 179.568359375 441.299804688 147.501953125 379 c 5
 54.501953125 415 l 5
 101.203125 511.993164062 205.306640625 573 324.1171875 573 c 4
 466.022460938 573 570.501953125 471.651367188 570.501953125 334 c 6
 570.501953125 0 l 5
 482.501953125 0 l 5x7e
 482.501953125 86 l 5
 433.905273438 27.462890625 346.512695312 -10 258.553710938 -10 c 4xbe
 131.670898438 -10 34.4892578125 66.4912109375 35.001953125 165.958007812 c 4
 35.55078125 272.485351562 143.932617188 346.008789062 300.40234375 346 c 4
 346.731445312 345.997070312 421.74609375 338.541015625 481.501953125 328 c 5
  Spiro
    481.502 328 v
    458.802 405.86 o
    402.84 457.444 o
    323.502 476 o
    251.494 465.983 o
    191.524 434.327 o
    147.502 379 v
    54.5023 415 v
    124.379 503.893 o
    220.977 556.071 o
    329.502 573 o
    463.876 535.773 o
    544.074 445.19 o
    570.502 334 [
    570.502 0 v
    482.502 0 v
    482.502 86 v
    427.012 37.5982 o
    355.315 3.08612 o
    278.502 -10 o
    148.685 14.2498 o
    64.3698 79.1179 o
    34.5023 172 o
    65.9596 257.48 o
    155.433 321.163 o
    297.502 346 o
    381.564 341.339 o
    452.073 332.658 o
    0 0 z
  EndSpiro
480.501953125 235 m 5
 418.509765625 246.20703125 343.825195312 254.06640625 300.196289062 253.974609375 c 4
 200.25390625 253.764648438 135.469726562 219.807617188 134.928710938 167.349609375 c 4
 134.439453125 119.9140625 181.651367188 90 257.005859375 90 c 4xbe
 379.40625 90 480.501953125 155.58984375 480.501953125 235 c 5
  Spiro
    480.502 235 v
    450.817 239.946 o
    383.615 249.14 o
    312.502 254 o
    219.507 243.921 o
    157.199 215.247 o
    133.502 170 o
    147.105 129.739 o
    187.26 100.942 o
    255.502 90 o
    360.402 107.336 o
    445.567 157.027 o
    0 0 z
  EndSpiro
EndSplineSet
EndChar

StartChar: atilde
Encoding: 160 227 160
Width: 620
VWidth: 1300
Flags: HW
HStem: -10 100<166.848 372.353> 0 21G<482.502 570.502> 254 92<186.97 480.336> 476 97<222.546 406.971> 628 71<339.641 453.104> 678 77<191.185 316.713>
VStem: 34.5023 99<120.992 211.315> 482.502 88<0 86 177.332 235 328 401.763>
LayerCount: 2
Fore
SplineSet
150.501953125 711 m 5x37
 180.376953125 736.774414062 225.442382812 755 259.298828125 755 c 4x37
 318.159179688 755 335.159179688 699 394.020507812 699 c 4
 420.663085938 699 454.828125 716.396484375 476.501953125 741 c 5
 499.501953125 671 l 5
 472.98828125 646.053710938 428.931640625 628.26953125 393.140625 628.06640625 c 4x3b
 326.502929688 627.686523438 320.501953125 678 260.203125 678 c 4
 227.548828125 678 188.736328125 660.188476562 166.501953125 635 c 5
 150.501953125 711 l 5x37
481.501953125 328 m 1
 478.508789062 416.8046875 411.715820312 476 314.505859375 476 c 0
 239.310546875 476 179.568359375 441.299804688 147.501953125 379 c 1
 54.501953125 415 l 1
 101.203125 511.993164062 205.306640625 573 324.1171875 573 c 0
 466.022460938 573 570.501953125 471.651367188 570.501953125 334 c 2
 570.501953125 0 l 1
 482.501953125 0 l 1x73
 482.501953125 86 l 1
 433.905273438 27.462890625 346.512695312 -10 258.553710938 -10 c 0xb3
 131.670898438 -10 34.4892578125 66.4912109375 35.001953125 165.958007812 c 0
 35.55078125 272.485351562 143.932617188 346.008789062 300.40234375 346 c 0
 346.731445312 345.997070312 421.74609375 338.541015625 481.501953125 328 c 1
  Spiro
    481.502 328 v
    458.802 405.86 o
    402.84 457.444 o
    323.502 476 o
    251.494 465.983 o
    191.524 434.327 o
    147.502 379 v
    54.5023 415 v
    124.379 503.893 o
    220.977 556.071 o
    329.502 573 o
    463.876 535.773 o
    544.074 445.19 o
    570.502 334 [
    570.502 0 v
    482.502 0 v
    482.502 86 v
    427.012 37.5982 o
    355.315 3.08612 o
    278.502 -10 o
    148.685 14.2498 o
    64.3698 79.1179 o
    34.5023 172 o
    65.9596 257.48 o
    155.433 321.163 o
    297.502 346 o
    381.564 341.339 o
    452.073 332.658 o
    0 0 z
  EndSpiro
480.501953125 235 m 1
 418.509765625 246.20703125 343.825195312 254.06640625 300.196289062 253.974609375 c 0
 200.25390625 253.764648438 135.469726562 219.807617188 134.928710938 167.349609375 c 0
 134.439453125 119.9140625 181.651367188 90 257.005859375 90 c 0xb3
 379.40625 90 480.501953125 155.58984375 480.501953125 235 c 1
  Spiro
    480.502 235 v
    450.817 239.946 o
    383.615 249.14 o
    312.502 254 o
    219.507 243.921 o
    157.199 215.247 o
    133.502 170 o
    147.105 129.739 o
    187.26 100.942 o
    255.502 90 o
    360.402 107.336 o
    445.567 157.027 o
    0 0 z
  EndSpiro
EndSplineSet
EndChar

StartChar: adieresis
Encoding: 161 228 161
Width: 621
VWidth: 1300
Flags: HW
HStem: -10 100<166.848 372.353> 0 21G<482.502 570.502> 254 92<186.97 480.336> 476 97<222.546 406.971> 631 113<180.266 273.046 366.266 457.255>
VStem: 34.5023 99<120.992 211.315> 167.502 118<643.441 731.475> 353.502 118<645.172 730.612> 482.502 88<0 86 177.332 235 328 401.763>
LayerCount: 2
Fore
SplineSet
353.501953125 687.5 m 4x3f80
 353.501953125 718.744140625 379.205078125 744 411.001953125 744 c 4
 443.337890625 744 471.501953125 718.362304688 471.501953125 688.926757812 c 4
 471.501953125 658.020507812 443.498046875 631 411.465820312 631 c 4
 379.3046875 631 353.501953125 656.151367188 353.501953125 687.5 c 4x3f80
167.501953125 687.5 m 4
 167.501953125 719.184570312 193.634765625 744 227.001953125 744 c 4
 260.079101562 744 285.501953125 719.446289062 285.501953125 687.5 c 4
 285.501953125 655.553710938 260.079101562 631 227.001953125 631 c 4
 193.634765625 631 167.501953125 655.815429688 167.501953125 687.5 c 4
481.501953125 328 m 1
 478.508789062 416.8046875 411.715820312 476 314.505859375 476 c 0
 239.310546875 476 179.568359375 441.299804688 147.501953125 379 c 1
 54.501953125 415 l 1
 101.203125 511.993164062 205.306640625 573 324.1171875 573 c 0
 466.022460938 573 570.501953125 471.651367188 570.501953125 334 c 2
 570.501953125 0 l 1
 482.501953125 0 l 1x7f80
 482.501953125 86 l 1
 433.905273438 27.462890625 346.512695312 -10 258.553710938 -10 c 0xbf80
 131.670898438 -10 34.4892578125 66.4912109375 35.001953125 165.958007812 c 0
 35.55078125 272.485351562 143.932617188 346.008789062 300.40234375 346 c 0
 346.731445312 345.997070312 421.74609375 338.541015625 481.501953125 328 c 1
  Spiro
    481.502 328 v
    458.802 405.86 o
    402.84 457.444 o
    323.502 476 o
    251.494 465.983 o
    191.524 434.327 o
    147.502 379 v
    54.5023 415 v
    124.379 503.893 o
    220.977 556.071 o
    329.502 573 o
    463.876 535.773 o
    544.074 445.19 o
    570.502 334 [
    570.502 0 v
    482.502 0 v
    482.502 86 v
    427.012 37.5982 o
    355.315 3.08612 o
    278.502 -10 o
    148.685 14.2498 o
    64.3698 79.1179 o
    34.5023 172 o
    65.9596 257.48 o
    155.433 321.163 o
    297.502 346 o
    381.564 341.339 o
    452.073 332.658 o
    0 0 z
  EndSpiro
480.501953125 235 m 1
 418.509765625 246.20703125 343.825195312 254.06640625 300.196289062 253.974609375 c 0
 200.25390625 253.764648438 135.469726562 219.807617188 134.928710938 167.349609375 c 0
 134.439453125 119.9140625 181.651367188 90 257.005859375 90 c 0xbf80
 379.40625 90 480.501953125 155.58984375 480.501953125 235 c 1
  Spiro
    480.502 235 v
    450.817 239.946 o
    383.615 249.14 o
    312.502 254 o
    219.507 243.921 o
    157.199 215.247 o
    133.502 170 o
    147.105 129.739 o
    187.26 100.942 o
    255.502 90 o
    360.402 107.336 o
    445.567 157.027 o
    0 0 z
  EndSpiro
EndSplineSet
EndChar

StartChar: aring
Encoding: 162 229 162
Width: 620
VWidth: 1300
Flags: HW
HStem: -10 100<166.848 372.353> 0 21G<482.502 570.502> 254 92<186.97 480.336> 476 97<222.546 406.971> 615 60<287.965 347.383> 737 62.3398<287.822 347.908>
VStem: 34.5023 99<120.992 211.315> 223.502 62<676.897 734.624> 349.502 63.21<676.848 734.58> 482.502 88<0 86 177.332 235 328 401.763>
LayerCount: 2
Fore
SplineSet
285.501953125 705.790039062 m 4x3fc0
 285.501953125 688.32421875 299.561523438 675 317.990234375 675 c 4
 336.130859375 675 349.501953125 688.48828125 349.501953125 706.788085938 c 4
 349.501953125 724.522460938 336.697265625 737 318.497070312 737 c 4
 299.694335938 737 285.501953125 723.575195312 285.501953125 705.790039062 c 4x3fc0
223.501953125 706.4296875 m 4
 223.501953125 762.598632812 259.530273438 799.33984375 314.607421875 799.33984375 c 4
 371.65234375 799.33984375 412.711914062 760.455078125 412.711914062 706.4296875 c 4
 412.711914062 652.845703125 372.103515625 615 314.607421875 615 c 4
 259.118164062 615 223.501953125 650.743164062 223.501953125 706.4296875 c 4
481.501953125 328 m 1
 478.508789062 416.8046875 411.715820312 476 314.505859375 476 c 0
 239.310546875 476 179.568359375 441.299804688 147.501953125 379 c 1
 54.501953125 415 l 1
 101.203125 511.993164062 205.306640625 573 324.1171875 573 c 0
 466.022460938 573 570.501953125 471.651367188 570.501953125 334 c 2
 570.501953125 0 l 1
 482.501953125 0 l 1x7fc0
 482.501953125 86 l 1
 433.905273438 27.462890625 346.512695312 -10 258.553710938 -10 c 0xbfc0
 131.670898438 -10 34.4892578125 66.4912109375 35.001953125 165.958007812 c 0
 35.55078125 272.485351562 143.932617188 346.008789062 300.40234375 346 c 0
 346.731445312 345.997070312 421.74609375 338.541015625 481.501953125 328 c 1
  Spiro
    481.502 328 v
    458.802 405.86 o
    402.84 457.444 o
    323.502 476 o
    251.494 465.983 o
    191.524 434.327 o
    147.502 379 v
    54.5023 415 v
    124.379 503.893 o
    220.977 556.071 o
    329.502 573 o
    463.876 535.773 o
    544.074 445.19 o
    570.502 334 [
    570.502 0 v
    482.502 0 v
    482.502 86 v
    427.012 37.5982 o
    355.315 3.08612 o
    278.502 -10 o
    148.685 14.2498 o
    64.3698 79.1179 o
    34.5023 172 o
    65.9596 257.48 o
    155.433 321.163 o
    297.502 346 o
    381.564 341.339 o
    452.073 332.658 o
    0 0 z
  EndSpiro
480.501953125 235 m 1
 418.509765625 246.20703125 343.825195312 254.06640625 300.196289062 253.974609375 c 0
 200.25390625 253.764648438 135.469726562 219.807617188 134.928710938 167.349609375 c 0
 134.439453125 119.9140625 181.651367188 90 257.005859375 90 c 0xbfc0
 379.40625 90 480.501953125 155.58984375 480.501953125 235 c 1
  Spiro
    480.502 235 v
    450.817 239.946 o
    383.615 249.14 o
    312.502 254 o
    219.507 243.921 o
    157.199 215.247 o
    133.502 170 o
    147.105 129.739 o
    187.26 100.942 o
    255.502 90 o
    360.402 107.336 o
    445.567 157.027 o
    0 0 z
  EndSpiro
EndSplineSet
EndChar

StartChar: ae
Encoding: 163 230 163
Width: 1073
VWidth: 1300
Flags: HW
HStem: -10 100<168.879 371.008> -10 91<662.992 872.781> 244 91<575.502 922.502> 259 92<194.811 484.325> 476 97<224.453 410.947 657.257 834.745>
VStem: 34.5022 99<123.95 214.098>
LayerCount: 2
Fore
SplineSet
484.501953125 246 m 1x9c
 421.923828125 253.69140625 351.220703125 259.075195312 313.807617188 258.997070312 c 0
 207.549804688 258.7734375 135.4921875 222.010742188 134.932617188 167.736328125 c 0
 134.44921875 120.87109375 183.303710938 90 257.951171875 90 c 0
 381.633789062 90 484.501953125 160.833984375 484.501953125 246 c 1x9c
485.501953125 336 m 1
 483.497070312 418.1953125 414.2734375 476 317.84765625 476 c 0
 241.26953125 476 179.251953125 440.684570312 147.501953125 379 c 1
 54.501953125 415 l 1
 100.981445312 511.534179688 207.384765625 573 328.015625 573 c 0
 417.389648438 573 490.76171875 536.556640625 536.1796875 469.608398438 c 1
 583.842773438 537.147460938 656.866210938 573 746.765625 573 c 0
 917.435546875 573 1029.50195312 442.596679688 1029.50195312 244 c 1
 575.501953125 244 l 1
 581.959960938 140.668945312 655.021484375 81 775.086914062 81 c 0
 842.217773438 81 889.834960938 101.043945312 929.501953125 146 c 1
 987.501953125 79 l 1
 936.032226562 17.001953125 870.020507812 -10 769.924804688 -10 c 0x6c
 647.709960938 -10 562.943359375 31.6708984375 518.03125 113.83203125 c 1
 466.16796875 33.3984375 381.046875 -10 275.147460938 -10 c 0
 136.866210938 -10 34.4814453125 65.0224609375 35.001953125 165.965820312 c 0
 35.560546875 274.27734375 149.498046875 351.008789062 309.755859375 350.999023438 c 0
 352.36328125 350.997070312 425.16015625 344.784179688 485.501953125 336 c 1
574.501953125 335 m 1
 922.501953125 336 l 1
 912.03125 416.625 836.510742188 477 746.131835938 477 c 0
 657.513671875 477 587.240234375 418.858398438 574.501953125 335 c 1
EndSplineSet
EndChar

StartChar: ccedilla
Encoding: 164 231 164
Width: 609
VWidth: 1300
Flags: HW
HStem: -197 87<274.726 350.748> 483 98<242.036 427.754>
VStem: 40 101<189.013 374.284>
LayerCount: 2
Fore
SplineSet
40 279.060546875 m 4
 40 456.310546875 164.15625 581 340.6484375 581 c 4
 446.629882812 581 516.887695312 536.55078125 573 434 c 5
 494 390 l 5
 458.668945312 454.62890625 414.467773438 483 349.107421875 483 c 4
 231.939453125 483 141 393.983398438 141 279.29296875 c 4
 141 166.791992188 223.958984375 81 332.744140625 81 c 4
 408.352539062 81 469.208007812 118.790039062 497 183 c 5
 573 135 l 5
 538.310546875 65.0234375 491.732421875 22.4013671875 427.747070312 2.083984375 c 5
 441.750976562 -26.6328125 448 -51.1123046875 448 -77.255859375 c 4
 448 -152.385742188 399.634765625 -197 318.188476562 -197 c 4
 241.379882812 -197 198.888671875 -159.354492188 185 -79 c 5
 264 -59 l 5
 270.434570312 -94.3916015625 284.125976562 -110 308.735351562 -110 c 4
 353.4296875 -110 373.940429688 -56.4814453125 346.278320312 -12.0380859375 c 5
 167.930664062 -22.8994140625 40 98.69140625 40 279.060546875 c 4
EndSplineSet
EndChar

StartChar: egrave
Encoding: 165 232 165
Width: 631
VWidth: 1300
Flags: HW
HStem: -12 93<225.185 432.279> 477 97<221.702 394.951>
VStem: 40 99<163.753 244 335 392.778>
LayerCount: 2
Fore
SplineSet
317 763 m 5
 444 637 l 5
 346 637 l 5
 193 763 l 5
 317 763 l 5
313.296875 574 m 0
 479.62109375 574 589 443.080078125 589 244 c 1
 139 244 l 1
 145.51953125 139.688476562 215.940429688 81 334.584960938 81 c 0
 401.715820312 81 449.333007812 101.043945312 489 146 c 1
 547 79 l 1
 494.4453125 15.6953125 428.1875 -12 329.29296875 -12 c 0
 144.463867188 -12 40 88.5849609375 40 266.549804688 c 0
 40 449.626953125 150.556640625 574 313.296875 574 c 0
138 335 m 1
 482 336 l 1
 471.420898438 417.455078125 398.20703125 477 308.629882812 477 c 0
 220.283203125 477 150.784179688 419.162109375 138 335 c 1
EndSplineSet
EndChar

StartChar: eacute
Encoding: 166 233 166
Width: 631
VWidth: 1300
Flags: HW
HStem: -12 93<225.185 432.279> 477 97<221.702 394.951> 742 20G<320.12 467>
VStem: 40 99<163.753 244 335 392.778>
LayerCount: 2
Fore
SplineSet
343 762 m 5
 467 762 l 5
 314 637 l 5
 200 637 l 5
 343 762 l 5
313.296875 574 m 0
 479.62109375 574 589 443.080078125 589 244 c 1
 139 244 l 1
 145.51953125 139.688476562 215.940429688 81 334.584960938 81 c 0
 401.715820312 81 449.333007812 101.043945312 489 146 c 1
 547 79 l 1
 494.4453125 15.6953125 428.1875 -12 329.29296875 -12 c 0
 144.463867188 -12 40 88.5849609375 40 266.549804688 c 0
 40 449.626953125 150.556640625 574 313.296875 574 c 0
138 335 m 1
 482 336 l 1
 471.420898438 417.455078125 398.20703125 477 308.629882812 477 c 0
 220.283203125 477 150.784179688 419.162109375 138 335 c 1
EndSplineSet
Decomposition: "e+ALQA"
EndChar

StartChar: ecircumflex
Encoding: 167 234 167
Width: 631
VWidth: 1300
Flags: HW
HStem: -12 93<225.185 432.279> 477 97<221.702 394.951> 742 20G<255.194 392.269>
VStem: 40 99<163.753 244 335 392.778>
LayerCount: 2
Fore
SplineSet
485 628 m 5
 397 628 l 5
 323 705 l 5
 247 628 l 5
 148 628 l 5
 274 762 l 5
 376 762 l 5
 485 628 l 5
313.296875 574 m 4
 479.62109375 574 589 443.080078125 589 244 c 5
 139 244 l 5
 145.51953125 139.688476562 215.940429688 81 334.584960938 81 c 4
 401.715820312 81 449.333007812 101.043945312 489 146 c 5
 547 79 l 5
 494.4453125 15.6953125 428.1875 -12 329.29296875 -12 c 4
 144.463867188 -12 40 88.5849609375 40 266.549804688 c 4
 40 449.626953125 150.556640625 574 313.296875 574 c 4
138 335 m 5
 482 336 l 5
 471.420898438 417.455078125 398.20703125 477 308.629882812 477 c 4
 220.283203125 477 150.784179688 419.162109375 138 335 c 5
EndSplineSet
EndChar

StartChar: edieresis
Encoding: 168 235 168
Width: 631
VWidth: 1300
Flags: HW
HStem: -12 93<225.185 432.279> 477 97<221.702 394.951> 631 113<175.764 268.544 361.764 452.753>
VStem: 40 99<163.753 244 335 392.778> 163 118<643.441 731.475> 349 118<645.172 730.612>
LayerCount: 2
Fore
SplineSet
349 687.5 m 0
 349 718.744140625 374.702148438 744 406.5 744 c 0
 438.8359375 744 467 718.362304688 467 688.926757812 c 0
 467 658.020507812 438.995117188 631 406.963867188 631 c 0
 374.802734375 631 349 656.151367188 349 687.5 c 0
163 687.5 m 0
 163 719.184570312 189.1328125 744 222.5 744 c 0
 255.577148438 744 281 719.446289062 281 687.5 c 0
 281 655.553710938 255.577148438 631 222.5 631 c 0
 189.1328125 631 163 655.815429688 163 687.5 c 0
313.296875 574 m 0
 479.62109375 574 589 443.080078125 589 244 c 1
 139 244 l 1
 145.51953125 139.688476562 215.940429688 81 334.584960938 81 c 0
 401.715820312 81 449.333007812 101.043945312 489 146 c 1
 547 79 l 1
 494.4453125 15.6953125 428.1875 -12 329.29296875 -12 c 0
 144.463867188 -12 40 88.5849609375 40 266.549804688 c 0
 40 449.626953125 150.556640625 574 313.296875 574 c 0
138 335 m 1
 482 336 l 1
 471.420898438 417.455078125 398.20703125 477 308.629882812 477 c 0
 220.283203125 477 150.784179688 419.162109375 138 335 c 1
EndSplineSet
EndChar

StartChar: igrave
Encoding: 169 236 169
Width: 313
VWidth: 1300
Flags: HW
HStem: 0 21G<105 208> 544 20G<105 208>
VStem: 105 103<0 564>
LayerCount: 2
Fore
SplineSet
154 763 m 1
 281 637 l 1
 183 637 l 1
 30 763 l 1
 154 763 l 1
208 0 m 1
 105 0 l 1
 105 564 l 1
 208 564 l 1
 208 0 l 1
EndSplineSet
EndChar

StartChar: iacute
Encoding: 170 237 170
Width: 329
VWidth: 1300
Flags: HW
HStem: 0 21G<110 213> 544 20G<110 213> 742 20G<150.12 297>
VStem: 110 103<0 564>
LayerCount: 2
Fore
SplineSet
173 762 m 1
 297 762 l 1
 144 637 l 1
 30 637 l 1
 173 762 l 1
213 0 m 1
 110 0 l 1
 110 564 l 1
 213 564 l 1
 213 0 l 1
EndSplineSet
EndChar

StartChar: icircumflex
Encoding: 171 238 171
Width: 400
VWidth: 1300
Flags: HW
HStem: 0 21G<156 259> 544 20G<156 259> 742 20G<139.194 276.269>
VStem: 156 103<0 564>
LayerCount: 2
Fore
SplineSet
368 628 m 1
 280 628 l 1
 206 705 l 1
 130 628 l 1
 31 628 l 1
 157 762 l 1
 259 762 l 1
 368 628 l 1
258 0 m 1
 155 0 l 1
 155 564 l 1
 258 564 l 1
 258 0 l 1
EndSplineSet
EndChar

StartChar: idieresis
Encoding: 172 239 172
Width: 346
VWidth: 1300
Flags: HW
HStem: 0 21G<137 240> 544 20G<137 240> 631 113<61.7644 154.544 221.764 312.753>
VStem: 49 118<643.441 731.475> 137 103<0 564> 209 118<645.172 730.612>
LayerCount: 2
Fore
SplineSet
193 687.5 m 0xe4
 193 718.744140625 218.702148438 744 250.5 744 c 0
 282.8359375 744 311 718.362304688 311 688.926757812 c 0
 311 658.020507812 282.995117188 631 250.963867188 631 c 0
 218.802734375 631 193 656.151367188 193 687.5 c 0xe4
33 687.5 m 0xf0
 33 719.184570312 59.1328125 744 92.5 744 c 0
 125.577148438 744 151 719.446289062 151 687.5 c 0
 151 655.553710938 125.577148438 631 92.5 631 c 0
 59.1328125 631 33 655.815429688 33 687.5 c 0xf0
224 0 m 1xe8
 121 0 l 1
 121 564 l 1
 224 564 l 1
 224 0 l 1xe8
EndSplineSet
EndChar

StartChar: eth
Encoding: 173 240 173
Width: 603
VWidth: 1300
Flags: HW
HStem: -12 94.5625<215.366 380.541> 480.969 97.0312<217.202 368.573>
VStem: 40 94.6562<167.687 386.353> 453.781 102.219<163.369 391.022>
LayerCount: 2
Fore
SplineSet
315 840 m 1
 356.779296875 818.513671875 393.791992188 790.055664062 425.334960938 755.165039062 c 1
 531 793 l 1
 561 731 l 1
 468.204101562 698.4921875 l 1
 526.668945312 605.815429688 556 482.794921875 556 330.258789062 c 0
 556 89.9140625 486.784179688 -12 323.5546875 -12 c 0
 145.20703125 -12 40 98.78125 40 286.578125 c 0
 40 462.1875 132.732421875 578 273.344726562 578 c 0
 339.3671875 578 410.0546875 546.93359375 444 503 c 1
 434.592773438 565.709960938 411.966796875 619.477539062 375.4140625 665.985351562 c 1
 247 621 l 1
 221 682 l 1
 324.130859375 718.927734375 l 1
 302.90234375 736.962890625 278.872070312 753.643554688 252 769 c 1
 315 840 l 1
453.78125 279.34765625 m 0
 453.78125 407.33984375 397.21875 480.96875 298.893554688 480.96875 c 0
 197.337890625 480.96875 134.65625 404.721679688 134.65625 281.188476562 c 0
 134.65625 157.349609375 196.841796875 82.5625 299.8125 82.5625 c 0
 398.79296875 82.5625 453.78125 152.842773438 453.78125 279.34765625 c 0
EndSplineSet
EndChar

StartChar: ntilde
Encoding: 174 241 174
Width: 643
VWidth: 1300
Flags: HW
HStem: 0 21G<46 149 492 595> 487 94<257.693 420.15> 544 20G<46 149> 628 71<351.139 464.602> 678 77<202.683 328.211>
VStem: 46 103<0 373.735 453 564> 492 103<0 407.609>
LayerCount: 2
Fore
SplineSet
162 711 m 1x8e
 191.875 736.774414062 236.940429688 755 270.796875 755 c 0x8e
 329.657226562 755 346.657226562 699 405.517578125 699 c 0
 432.161132812 699 466.326171875 716.396484375 488 741 c 1
 511 671 l 1
 484.486328125 646.053710938 440.4296875 628.26953125 404.638671875 628.06640625 c 0x96
 338.000976562 627.686523438 332 678 271.701171875 678 c 0
 239.045898438 678 200.234375 660.188476562 178 635 c 1
 162 711 l 1x8e
46 564 m 1xa6
 149 564 l 1xa6
 149 453 l 1
 193.56640625 537.288085938 266.838867188 581 363.561523438 581 c 0
 512.0625 581 595 477.434570312 595 292 c 2
 595 0 l 1
 492 0 l 1
 492 292 l 2
 492 420.186523438 443.971679688 487 351.826171875 487 c 0xc6
 248.188476562 487 152.265625 397.142578125 149 297 c 1
 149 0 l 1
 46 0 l 1
 46 564 l 1xa6
  Spiro
    46 564 v
    149 564 v
    149 453 v
    204.011 524.795 o
    275.003 567.176 o
    358 581 o
    488.672 546.808 o
    568.276 448.131 o
    595 292 [
    595 0 v
    492 0 v
    492 292 ]
    476.551 396.247 o
    425.41 463.38 o
    332 487 o
    244.414 458.239 o
    177.283 387.064 o
    149 297 v
    149 0 v
    46 0 v
    0 0 z
  EndSpiro
EndSplineSet
EndChar

StartChar: ograve
Encoding: 175 242 175
Width: 634
VWidth: 1300
Flags: HW
HStem: -12 99<233.772 394.7> 480 101<232.605 399.019>
VStem: 40 104<183.04 386.884> 486 103<183.04 387.772>
LayerCount: 2
Fore
SplineSet
311 763 m 5
 438 637 l 5
 340 637 l 5
 187 763 l 5
 311 763 l 5
144 285.231445312 m 0
 144 167.526367188 213.260742188 87 314.5 87 c 0
 416.311523438 87 486 168.1953125 486 286.81640625 c 0
 486 402.735351562 417.743164062 480 315.337890625 480 c 0
 212.919921875 480 144 401.655273438 144 285.231445312 c 0
40 285 m 0
 40 455.635742188 156.046875 581 314 581 c 0
 472.225585938 581 589 455.30859375 589 285 c 0
 589 114.389648438 471.97265625 -12 314 -12 c 0
 156.298828125 -12 40 114.060546875 40 285 c 0
EndSplineSet
EndChar

StartChar: oacute
Encoding: 176 243 176
Width: 634
VWidth: 1300
Flags: HW
HStem: -12 99<233.772 394.7> 480 101<232.605 399.019> 742 20G<322.12 469>
VStem: 40 104<183.04 386.884> 486 103<183.04 387.772>
LayerCount: 2
Fore
SplineSet
345 762 m 5
 469 762 l 5
 316 637 l 5
 202 637 l 5
 345 762 l 5
144 285.231445312 m 0
 144 167.526367188 213.260742188 87 314.5 87 c 0
 416.311523438 87 486 168.1953125 486 286.81640625 c 0
 486 402.735351562 417.743164062 480 315.337890625 480 c 0
 212.919921875 480 144 401.655273438 144 285.231445312 c 0
40 285 m 0
 40 455.635742188 156.046875 581 314 581 c 0
 472.225585938 581 589 455.30859375 589 285 c 0
 589 114.389648438 471.97265625 -12 314 -12 c 0
 156.298828125 -12 40 114.060546875 40 285 c 0
EndSplineSet
EndChar

StartChar: ocircumflex
Encoding: 177 244 177
Width: 633
VWidth: 1300
Flags: HW
HStem: -12 99<233.772 394.7> 480 101<232.605 399.019> 742 20G<247.194 384.269>
VStem: 40 104<183.04 386.884> 486 103<183.04 387.772>
LayerCount: 2
Fore
SplineSet
477 628 m 5
 389 628 l 5
 315 705 l 5
 239 628 l 5
 140 628 l 5
 266 762 l 5
 368 762 l 5
 477 628 l 5
144 285.231445312 m 4
 144 167.526367188 213.260742188 87 314.5 87 c 4
 416.311523438 87 486 168.1953125 486 286.81640625 c 4
 486 402.735351562 417.743164062 480 315.337890625 480 c 4
 212.919921875 480 144 401.655273438 144 285.231445312 c 4
40 285 m 4
 40 455.635742188 156.046875 581 314 581 c 4
 472.225585938 581 589 455.30859375 589 285 c 4
 589 114.389648438 471.97265625 -12 314 -12 c 4
 156.298828125 -12 40 114.060546875 40 285 c 4
EndSplineSet
EndChar

StartChar: otilde
Encoding: 178 245 178
Width: 633
VWidth: 1300
Flags: HW
HStem: -12 99<233.772 394.7> 480 101<232.605 399.019> 628 71<345.139 458.602> 678 77<196.683 322.211>
VStem: 40 104<183.04 386.884> 486 103<183.04 387.772>
LayerCount: 2
Fore
SplineSet
156 711 m 5xdc
 185.875 736.774414062 230.940429688 755 264.796875 755 c 4xdc
 323.657226562 755 340.657226562 699 399.517578125 699 c 4
 426.161132812 699 460.326171875 716.396484375 482 741 c 5
 505 671 l 5
 478.486328125 646.053710938 434.4296875 628.26953125 398.638671875 628.06640625 c 4xec
 332.000976562 627.686523438 326 678 265.701171875 678 c 4
 233.045898438 678 194.234375 660.188476562 172 635 c 5
 156 711 l 5xdc
144 285.231445312 m 0
 144 167.526367188 213.260742188 87 314.5 87 c 0
 416.311523438 87 486 168.1953125 486 286.81640625 c 0
 486 402.735351562 417.743164062 480 315.337890625 480 c 0
 212.919921875 480 144 401.655273438 144 285.231445312 c 0
40 285 m 0
 40 455.635742188 156.046875 581 314 581 c 0
 472.225585938 581 589 455.30859375 589 285 c 0
 589 114.389648438 471.97265625 -12 314 -12 c 0
 156.298828125 -12 40 114.060546875 40 285 c 0
EndSplineSet
EndChar

StartChar: odieresis
Encoding: 179 246 179
Width: 633
VWidth: 1300
Flags: HW
HStem: -12 99<233.772 394.7> 480 101<232.605 399.019> 631 113<175.764 268.544 361.764 452.753>
VStem: 40 104<183.04 386.884> 163 118<643.441 731.475> 349 118<645.172 730.612> 486 103<183.04 387.772>
LayerCount: 2
Fore
SplineSet
349 687.5 m 4
 349 718.744140625 374.702148438 744 406.5 744 c 4
 438.8359375 744 467 718.362304688 467 688.926757812 c 4
 467 658.020507812 438.995117188 631 406.963867188 631 c 4
 374.802734375 631 349 656.151367188 349 687.5 c 4
163 687.5 m 4
 163 719.184570312 189.1328125 744 222.5 744 c 4
 255.577148438 744 281 719.446289062 281 687.5 c 4
 281 655.553710938 255.577148438 631 222.5 631 c 4
 189.1328125 631 163 655.815429688 163 687.5 c 4
144 285.231445312 m 0
 144 167.526367188 213.260742188 87 314.5 87 c 0
 416.311523438 87 486 168.1953125 486 286.81640625 c 0
 486 402.735351562 417.743164062 480 315.337890625 480 c 0
 212.919921875 480 144 401.655273438 144 285.231445312 c 0
40 285 m 0
 40 455.635742188 156.046875 581 314 581 c 0
 472.225585938 581 589 455.30859375 589 285 c 0
 589 114.389648438 471.97265625 -12 314 -12 c 0
 156.298828125 -12 40 114.060546875 40 285 c 0
EndSplineSet
EndChar

StartChar: divide
Encoding: 180 247 180
Width: 507
VWidth: 1300
Flags: HW
HStem: 82 118<201.339 292.661> 252 91<43 464> 394 118<201.339 292.661>
VStem: 188 118<95.3386 186.661 407.339 498.661>
LayerCount: 2
Fore
SplineSet
188 141 m 4
 188 174 214 200 247 200 c 4
 280 200 306 174 306 141 c 4
 306 108 280 82 247 82 c 4
 214 82 188 108 188 141 c 4
188 453 m 4
 188 486 214 512 247 512 c 4
 280 512 306 486 306 453 c 4
 306 420 280 394 247 394 c 4
 214 394 188 420 188 453 c 4
43 343 m 1
 464 343 l 1
 464 252 l 1
 43 252 l 1
 43 343 l 1
EndSplineSet
EndChar

StartChar: oslash
Encoding: 181 248 181
Width: 633
VWidth: 1300
Flags: HW
HStem: -12 99<273.258 394.7> 480 101<232.605 356.904>
VStem: 40 104<181.264 386.884> 486 103<183.04 387.645>
LayerCount: 2
Fore
SplineSet
40 285 m 0
 40 455.635742188 156.046875 581 314.000976562 581 c 0
 344.98046875 581 374.728515625 576.288085938 402.64453125 566.958984375 c 1
 455 673 l 1
 537 626 l 1
 485.12109375 521.219726562 l 1
 551.165039062 466.647460938 589 380.611328125 589 285 c 0
 589 114.388671875 471.97265625 -12 314 -12 c 0
 283.87890625 -12 254.9453125 -7.51171875 227.739257812 1.3798828125 c 1
 182 -91 l 1
 101 -44 l 1
 145.5546875 46.2431640625 l 1
 78.5439453125 100.8515625 40 188.034179688 40 285 c 0
192.193359375 140.705078125 m 1
 357.270507812 475.057617188 l 1
 343.546875 478.333007812 329.067382812 480 314.3515625 480 c 0
 212.65625 480 144 401.340820312 144 284.827148438 c 0
 144 226.859375 160.849609375 176.469726562 192.193359375 140.705078125 c 1
272.537109375 91.8603515625 m 1
 285.790039062 88.62109375 299.659179688 87 314.123046875 87 c 0
 416.06640625 87 486 167.916015625 486 285.868164062 c 0
 486 343.03125 469.416015625 392.28125 438.473632812 427.004882812 c 1
 272.537109375 91.8603515625 l 1
EndSplineSet
EndChar

StartChar: ugrave
Encoding: 182 249 182
Width: 615
VWidth: 1300
Flags: HW
HStem: -16 94<202.923 357.092> 1 21G<460 563> 546 20G<43 146 460 563>
VStem: 43 103<139.978 566> 460 103<1 112 187.985 566>
LayerCount: 2
Fore
SplineSet
294 763 m 5x38
 421 637 l 5
 323 637 l 5
 170 763 l 5
 294 763 l 5x38
563 1 m 1x78
 460 1 l 1x78
 460 112 l 1
 414.203125 25.384765625 347.41796875 -16 253.438476562 -16 c 0
 111.459960938 -16 43 78.017578125 43 273 c 2
 43 566 l 1
 146 566 l 1
 146 273 l 2
 146 132.319335938 179.123046875 78 264.909179688 78 c 0xb8
 366.641601562 78 456.645507812 166.116210938 460 269 c 1
 460 566 l 1
 563 566 l 1
 563 1 l 1x78
EndSplineSet
EndChar

StartChar: uacute
Encoding: 183 250 183
Width: 615
VWidth: 1300
Flags: HW
HStem: -16 94<202.923 357.092> 1 21G<460 563> 546 20G<43 146 460 563> 742 20G<309.12 456>
VStem: 43 103<139.978 566> 460 103<1 112 187.985 566>
LayerCount: 2
Fore
SplineSet
332 762 m 5x3c
 456 762 l 5
 303 637 l 5
 189 637 l 5
 332 762 l 5x3c
563 1 m 1x7c
 460 1 l 1x7c
 460 112 l 1
 414.203125 25.384765625 347.41796875 -16 253.438476562 -16 c 0
 111.459960938 -16 43 78.017578125 43 273 c 2
 43 566 l 1
 146 566 l 1
 146 273 l 2
 146 132.319335938 179.123046875 78 264.909179688 78 c 0xbc
 366.641601562 78 456.645507812 166.116210938 460 269 c 1
 460 566 l 1
 563 566 l 1
 563 1 l 1x7c
EndSplineSet
EndChar

StartChar: ucircumflex
Encoding: 184 251 184
Width: 615
VWidth: 1300
Flags: HW
HStem: -16 94<202.923 357.092> 1 21G<460 563> 546 20G<43 146 460 563> 742 20G<240.194 377.269>
VStem: 43 103<139.978 566> 460 103<1 112 187.985 566>
LayerCount: 2
Fore
SplineSet
470 628 m 5x3c
 382 628 l 5
 308 705 l 5
 232 628 l 5
 133 628 l 5
 259 762 l 5
 361 762 l 5
 470 628 l 5x3c
563 1 m 1x7c
 460 1 l 1x7c
 460 112 l 1
 414.203125 25.384765625 347.41796875 -16 253.438476562 -16 c 0
 111.459960938 -16 43 78.017578125 43 273 c 2
 43 566 l 1
 146 566 l 1
 146 273 l 2
 146 132.319335938 179.123046875 78 264.909179688 78 c 0xbc
 366.641601562 78 456.645507812 166.116210938 460 269 c 1
 460 566 l 1
 563 566 l 1
 563 1 l 1x7c
EndSplineSet
EndChar

StartChar: udieresis
Encoding: 185 252 185
Width: 615
VWidth: 1300
Flags: HW
HStem: -16 94<202.923 357.092> 1 21G<460 563> 546 20G<43 146 460 563> 631 113<159.764 252.544 345.764 436.753>
VStem: 43 103<139.978 566> 147 118<643.441 731.475> 333 118<645.172 730.612> 460 103<1 112 187.985 566>
LayerCount: 2
Fore
SplineSet
333 687.5 m 4x3f
 333 718.744140625 358.702148438 744 390.5 744 c 4
 422.8359375 744 451 718.362304688 451 688.926757812 c 4
 451 658.020507812 422.995117188 631 390.963867188 631 c 4
 358.802734375 631 333 656.151367188 333 687.5 c 4x3f
147 687.5 m 4
 147 719.184570312 173.1328125 744 206.5 744 c 4
 239.577148438 744 265 719.446289062 265 687.5 c 4
 265 655.553710938 239.577148438 631 206.5 631 c 4
 173.1328125 631 147 655.815429688 147 687.5 c 4
563 1 m 1x7f
 460 1 l 1x7f
 460 112 l 1
 414.203125 25.384765625 347.41796875 -16 253.438476562 -16 c 0
 111.459960938 -16 43 78.017578125 43 273 c 2
 43 566 l 1
 146 566 l 1
 146 273 l 2
 146 132.319335938 179.123046875 78 264.909179688 78 c 0xbf
 366.641601562 78 456.645507812 166.116210938 460 269 c 1
 460 566 l 1
 563 566 l 1
 563 1 l 1x7f
EndSplineSet
EndChar

StartChar: yacute
Encoding: 186 253 186
Width: 616
VWidth: 1300
Flags: HW
HStem: 544 20G<32 152.756 464.11 581> 742 20G<337.12 484>
LayerCount: 2
Fore
SplineSet
360 762 m 5
 484 762 l 5
 331 637 l 5
 217 637 l 5
 360 762 l 5
274 19 m 1
 32 564 l 1
 144 564 l 1
 327 146 l 1
 471 564 l 1
 581 564 l 1
 297 -200 l 1
 190 -200 l 1
 274 19 l 1
EndSplineSet
EndChar

StartChar: thorn
Encoding: 187 254 187
Width: 643
VWidth: 1300
Flags: HW
HStem: -12 94<240.367 409.382> 482 94<238.808 404.208> 742 20G<48 151>
VStem: 48 103<-199 93 173.53 385.626 468 762> 494 103<166.746 384.426>
LayerCount: 2
Fore
SplineSet
494 274 m 0
 494 401.787109375 429.682617188 482 327.21875 482 c 0
 222.293945312 482 146 395.694335938 146 277 c 1
 149.030273438 162.84375 227.081054688 82 334.26171875 82 c 0
 434.96484375 82 494 152.958007812 494 274 c 0
151 -199 m 5
 48 -199 l 5
 48 762 l 1
 151 762 l 1
 151 468 l 1
 190.658203125 542.810546875 247.673828125 576 336.529296875 576 c 0
 500.333007812 576 597 466.889648438 597 282 c 0
 597 97.1103515625 500.333007812 -12 336.529296875 -12 c 0
 249.892578125 -12 194.155273438 19.544921875 151 93 c 1
 151 -199 l 5
EndSplineSet
EndChar

StartChar: ydieresis
Encoding: 188 255 188
Width: 615
VWidth: 1300
Flags: HW
HStem: 631 113<165.764 258.544 351.764 442.753>
VStem: 153 118<643.441 731.475> 339 118<645.172 730.612>
LayerCount: 2
Fore
SplineSet
339 687.5 m 4
 339 718.744140625 364.702148438 744 396.5 744 c 4
 428.8359375 744 457 718.362304688 457 688.926757812 c 4
 457 658.020507812 428.995117188 631 396.963867188 631 c 4
 364.802734375 631 339 656.151367188 339 687.5 c 4
153 687.5 m 4
 153 719.184570312 179.1328125 744 212.5 744 c 4
 245.577148438 744 271 719.446289062 271 687.5 c 4
 271 655.553710938 245.577148438 631 212.5 631 c 4
 179.1328125 631 153 655.815429688 153 687.5 c 4
274 19 m 1
 32 564 l 1
 144 564 l 1
 327 146 l 1
 471 564 l 1
 581 564 l 1
 297 -200 l 1
 190 -200 l 1
 274 19 l 1
EndSplineSet
EndChar

StartChar: endash
Encoding: 291 8211 189
Width: 645
VWidth: 1300
Flags: HW
HStem: 252 91<48 597>
LayerCount: 2
Fore
SplineSet
48 343 m 5
 597 343 l 5
 597 252 l 5
 48 252 l 5
 48 343 l 5
EndSplineSet
EndChar

StartChar: emdash
Encoding: 292 8212 190
Width: 875
VWidth: 1300
Flags: HW
HStem: 252 91<48 827>
LayerCount: 2
Fore
SplineSet
48 343 m 1
 827 343 l 1
 827 252 l 1
 48 252 l 1
 48 343 l 1
EndSplineSet
EndChar

StartChar: leftsinglequote
Encoding: 293 8216 191
Width: 188
VWidth: 1300
Flags: HW
HStem: 532 230<86.001 130>
VStem: 40 105
LayerCount: 2
Fore
SplineSet
130 532 m 1
 40 532 l 1
 86.0009765625 762 l 1
 145 762 l 1
 130 532 l 1
EndSplineSet
EndChar

StartChar: rightsinglequote
Encoding: 294 8217 192
Width: 187
VWidth: 1300
Flags: HW
HStem: 532 230<59 103>
VStem: 44 105
LayerCount: 2
Fore
SplineSet
59 762 m 5
 149 762 l 5
 103 532 l 5
 44 532 l 5
 59 762 l 5
EndSplineSet
EndChar

StartChar: leftdoublequote
Encoding: 295 8220 193
Width: 344
VWidth: 1300
Flags: HW
HStem: 532 230<99 130 242 286>
VStem: 40 261
LayerCount: 2
Fore
SplineSet
130 532 m 1
 40 532 l 1
 99 762 l 1
 158 762 l 1
 130 532 l 1
286 532 m 1
 196 532 l 1
 242 762 l 1
 301 762 l 1
 286 532 l 1
EndSplineSet
EndChar

StartChar: rightdoublequote
Encoding: 296 8221 194
Width: 342
VWidth: 1300
Flags: HW
HStem: 532 230<59 103 215 246>
VStem: 44 261
LayerCount: 2
Fore
SplineSet
215 762 m 5
 305 762 l 5
 246 532 l 5
 187 532 l 5
 215 762 l 5
59 762 m 5
 149 762 l 5
 103 532 l 5
 44 532 l 5
 59 762 l 5
EndSplineSet
EndChar

StartChar: bullet
Encoding: 297 8226 195
Width: 278
Flags: HW
HStem: 171 188<80.1719 199.828>
VStem: 46 188<205.172 324.828>
LayerCount: 2
Fore
SplineSet
46 265 m 4
 46 317 88 359 140 359 c 4
 192 359 234 317 234 265 c 4
 234 213 192 171 140 171 c 4
 88 171 46 213 46 265 c 4
EndSplineSet
EndChar

StartChar: fractionslash
Encoding: 301 8260 196
Width: 521
VWidth: 1300
Flags: HW
HStem: 700 20G<376.126 490>
LayerCount: 2
Fore
SplineSet
386 720 m 1
 490 720 l 1
 135 3 l 1
 32 3 l 1
 386 720 l 1
EndSplineSet
EndChar

StartChar: a.ss01
Encoding: 303 -1 197
Width: 638
VWidth: 1300
Flags: HW
HStem: -12 96<230.834 398.208> 0 21G<498 586> 483 98<229.845 401.998> 544 20G<498 586>
VStem: 40 97<183.602 385.421> 498 88<0 100.416 193.846 379.735 467.793 564>
LayerCount: 2
Fore
SplineSet
40 285.901367188 m 0x8c
 40 457.80078125 149.344726562 581 301.911132812 581 c 0xac
 389.2578125 581 457.276367188 541.731445312 498 467.79296875 c 1
 498 564 l 1
 586 564 l 1
 586 0 l 1
 498 0 l 1x5c
 498 100.416015625 l 1
 457.678710938 26.8818359375 390.493164062 -12 303.75390625 -12 c 0
 150.579101562 -12 40 112.896484375 40 285.901367188 c 0x8c
137 284.40234375 m 0
 137 166.291015625 209.264648438 84 312.985351562 84 c 0
 417.475585938 84 496 171.170898438 496 287.16796875 c 0
 496 400.181640625 418.6171875 483 313.022460938 483 c 0
 208.642578125 483 137 402.168945312 137 284.40234375 c 0
EndSplineSet
EndChar

StartChar: y.ss02
Encoding: 304 -1 198
Width: 616
VWidth: 1300
Flags: HW
HStem: -200 98<129 218.323>
LayerCount: 2
Fore
SplineSet
274 19 m 1
 32 564 l 1
 144 564 l 1
 327 146 l 1
 471 564 l 1
 581 564 l 1
 376 20 l 1
 316.58203125 -151.434570312 262.749023438 -199.383789062 129 -200 c 1
 129 -102 l 1
 216.642578125 -100.407226562 251.692382812 -71.158203125 274 19 c 1
EndSplineSet
EndChar

StartChar: t.ss03
Encoding: 305 -1 199
Width: 544
VWidth: 1300
Flags: HW
HStem: 0 21G<218 320.043> 468 96<35 218 321 504> 701 20G<218 321>
VStem: 218 103<0 468 564 721>
LayerCount: 2
Fore
SplineSet
218 0 m 1
 218 468 l 1
 35 468 l 1
 35 564 l 1
 218 564 l 1
 218 721 l 1
 321 721 l 1
 321 564 l 1
 504 564 l 1
 504 468 l 1
 321 468 l 1
 320 0 l 1
 218 0 l 1
EndSplineSet
EndChar

StartChar: Dcroat
Encoding: 191 272 200
Width: 721
VWidth: 1300
Flags: HW
HStem: 0 107<223 458.074> 325 91<37 120 223 372> 614 106<223 450.279>
VStem: 120 103<107 325 416 614> 571 105<232.907 473.909>
LayerCount: 2
Fore
SplineSet
363 720 m 2
 550.830078125 720 676 575.455078125 676 358.55078125 c 0
 676 142.65625 551.865234375 0 364 0 c 2
 120 0 l 1
 120 325 l 1
 37 325 l 1
 37 416 l 1
 120 416 l 1
 120 720 l 1
 363 720 l 2
363 614 m 2
 223 614 l 1
 223 416 l 1
 372 416 l 1
 372 325 l 1
 223 325 l 1
 223 107 l 1
 364 107 l 2
 490.649414062 107 571 200.944335938 571 349.022460938 c 0
 571 504.865234375 485.33203125 614 363 614 c 2
EndSplineSet
EndChar

StartChar: dcroat
Encoding: 192 273 201
Width: 703
VWidth: 1300
Flags: HW
HStem: -12 94<228.348 385.288> 482 94<228.348 391.776>
VStem: 40 103<171.094 392.906> 486 103<201.541 375.121>
LayerCount: 2
Fore
SplineSet
486 0 m 5
 486 85 l 5
 447.936523438 17.5234375 393.635742188 -12 307.59375 -12 c 4
 138.002929688 -12 40 95.673828125 40 282 c 4
 40 467.819335938 137.524414062 576 305.040039062 576 c 4
 392.64453125 576 452.796875 546.416015625 486 487 c 5
 486 622 l 5
 289 622 l 5
 289 696 l 5
 486 696 l 5
 486 762 l 5
 589 762 l 5
 589 696 l 5
 667 696 l 5
 667 622 l 5
 589 622 l 5
 589 0 l 5
 486 0 l 5
143 282 m 4
 143 158.165039062 201.142578125 82 295.673828125 82 c 4
 397.689453125 82 479.963867188 171.426757812 481.557617188 284.041015625 c 4
 483.163085938 397.526367188 406.837890625 482 302.693359375 482 c 4
 202.510742188 482 143 407.46875 143 282 c 4
EndSplineSet
EndChar

StartChar: Ohorn
Encoding: 197 416 202
Width: 771
VWidth: 1300
Flags: HW
HStem: -17 100<271.285 464.49> 630 102<271.949 455.733>
VStem: 39 103<228.45 479.092> 586 105<224.307 478.324> 658 77<653.628 758.444>
LayerCount: 2
Fore
SplineSet
39 360.5 m 4xf0
 39 573.240234375 180.514648438 732 370.147460938 732 c 4
 460.69140625 732 540.192382812 696.943359375 598.200195312 631.439453125 c 5
 641.206054688 648.37109375 658 667.850585938 658 700.802734375 c 4
 658 726.610351562 646.944335938 750.077148438 624.544921875 771.8125 c 5
 688.600585938 818.826171875 l 5
 719.171875 779.35546875 735 737.759765625 735 696.889648438 c 4xe8
 735 640.350585938 704.963867188 595.735351562 644.875 563.015625 c 5
 675.057617188 504.841796875 691 435.732421875 691 363.06640625 c 4
 691 144.15234375 554.349609375 -17 368.719726562 -17 c 4
 181.563476562 -17 39 146.22265625 39 360.5 c 4xf0
142 349.673828125 m 4
 142 187.745117188 231.36328125 83 369.512695312 83 c 4
 503.384765625 83 586 181.458007812 586 341 c 4xf0
 586 512.061523438 494.659179688 630 362.176757812 630 c 4
 231.8515625 630 142 515.6015625 142 349.673828125 c 4
EndSplineSet
EndChar

StartChar: ohorn
Encoding: 198 417 203
Width: 675
VWidth: 1300
Flags: HW
HStem: -12 99<233.772 394.7> 480 101<232.605 399.011>
VStem: 40 104<183.04 386.884> 486 103<183.04 388.006> 561 77<531.334 632.444>
LayerCount: 2
Fore
SplineSet
40 285 m 0xf0
 40 455.634765625 156.046875 581 313.999023438 581 c 0
 383.915039062 581 447.166992188 556.893554688 496.137695312 511.583984375 c 1
 548.00390625 529.216796875 561 541.866210938 561 574.715820312 c 0
 561 600.590820312 549.952148438 624.069335938 527.544921875 645.8125 c 1
 591.600585938 692.826171875 l 1
 622.170898438 653.356445312 638 611.76171875 638 570.8984375 c 0xe8
 638 516.788085938 611.830078125 480.108398438 548.388671875 445.296875 c 1
 575.01953125 398.340820312 589 343.157226562 589 285.000976562 c 0
 589 114.389648438 471.97265625 -12 314 -12 c 0
 156.298828125 -12 40 114.060546875 40 285 c 0xf0
144 285.231445312 m 0
 144 167.526367188 213.260742188 87 314.5 87 c 0
 416.311523438 87 486 168.1953125 486 286.81640625 c 0xf0
 486 402.735351562 417.743164062 480 315.337890625 480 c 0
 212.919921875 480 144 401.655273438 144 285.231445312 c 0
EndSplineSet
EndChar

StartChar: Abreve
Encoding: 189 258 204
Width: 706
VWidth: 1300
Flags: HW
HStem: -1 21G<34 150.023 558.519 672> 130 92<225 484> 700 20G<290.667 408.528> 762 58<272.792 423.725>
VStem: 189 75<833.997 862> 430 72<831.563 862>
LayerCount: 2
Fore
SplineSet
502 862 m 5
 502 802.174804688 438.974609375 762 345.12109375 762 c 4
 250.495117188 762 189 801.389648438 189 862 c 5
 264 862 l 5
 264 835.995117188 297.653320312 820 352.368164062 820 c 4
 403.502929688 820 430 834.334960938 430 862 c 5
 502 862 l 5
143 -1 m 5
 34 0 l 5
 298 720 l 5
 401 720 l 5
 672 0 l 5
 566 -1 l 5
 517 130 l 5
 189 130 l 5
 143 -1 l 5
352 600 m 5
 225 222 l 5
 484 222 l 5
 352 600 l 5
EndSplineSet
EndChar

StartChar: abreve
Encoding: 190 259 205
Width: 621
VWidth: 1300
Flags: HW
HStem: -10 100<166.848 372.353> 0 21G<482.502 570.502> 254 92<186.97 480.336> 476 97<222.546 406.971> 623 67<259.685 385.734> 742 20G<161.502 236.502 402.502 474.502>
VStem: 34.5023 99<120.992 211.315> 161.502 75<713.846 762> 402.502 72<709.7 762> 482.502 88<0 86 177.332 235 328 401.763>
LayerCount: 2
Fore
SplineSet
474.501953125 762 m 5x3fc0
 474.501953125 674.598632812 416.491210938 623 318.227539062 623 c 4
 219.373046875 623 161.501953125 674.326171875 161.501953125 762 c 5
 236.501953125 762 l 5
 236.501953125 718.423828125 271.44921875 690 325.026367188 690 c 4
 375.229492188 690 402.501953125 715.344726562 402.501953125 762 c 5
 474.501953125 762 l 5x3fc0
481.501953125 328 m 5
 478.508789062 416.8046875 411.715820312 476 314.505859375 476 c 4
 239.310546875 476 179.568359375 441.299804688 147.501953125 379 c 5
 54.501953125 415 l 5
 101.203125 511.993164062 205.306640625 573 324.1171875 573 c 4
 466.022460938 573 570.501953125 471.651367188 570.501953125 334 c 6
 570.501953125 0 l 5
 482.501953125 0 l 5x7fc0
 482.501953125 86 l 5
 433.905273438 27.462890625 346.512695312 -10 258.553710938 -10 c 4xbfc0
 131.670898438 -10 34.4892578125 66.4912109375 35.001953125 165.958007812 c 4
 35.55078125 272.485351562 143.932617188 346.008789062 300.40234375 346 c 4
 346.731445312 345.997070312 421.74609375 338.541015625 481.501953125 328 c 5
  Spiro
    481.502 328 v
    458.802 405.86 o
    402.84 457.444 o
    323.502 476 o
    251.494 465.983 o
    191.524 434.327 o
    147.502 379 v
    54.5023 415 v
    124.379 503.893 o
    220.977 556.071 o
    329.502 573 o
    463.876 535.773 o
    544.074 445.19 o
    570.502 334 [
    570.502 0 v
    482.502 0 v
    482.502 86 v
    427.012 37.5982 o
    355.315 3.08612 o
    278.502 -10 o
    148.685 14.2498 o
    64.3698 79.1179 o
    34.5023 172 o
    65.9596 257.48 o
    155.433 321.163 o
    297.502 346 o
    381.564 341.339 o
    452.073 332.658 o
    0 0 z
  EndSpiro
480.501953125 235 m 5
 418.509765625 246.20703125 343.825195312 254.06640625 300.196289062 253.974609375 c 4
 200.25390625 253.764648438 135.469726562 219.807617188 134.928710938 167.349609375 c 4
 134.439453125 119.9140625 181.651367188 90 257.005859375 90 c 4xbfc0
 379.40625 90 480.501953125 155.58984375 480.501953125 235 c 5
  Spiro
    480.502 235 v
    450.817 239.946 o
    383.615 249.14 o
    312.502 254 o
    219.507 243.921 o
    157.199 215.247 o
    133.502 170 o
    147.105 129.739 o
    187.26 100.942 o
    255.502 90 o
    360.402 107.336 o
    445.567 157.027 o
    0 0 z
  EndSpiro
EndSplineSet
EndChar

StartChar: Itilde
Encoding: 193 296 206
Width: 412
VWidth: 1300
Flags: HW
HStem: 0 21G<143 246> 700 20G<143 246> 755 71<220.139 333.602> 762 21G<42.7895 47> 805 77<71.6828 197.211>
VStem: 143 103<0 720>
LayerCount: 2
Fore
SplineSet
31 838 m 5xdc
 60.875 863.774414062 105.940429688 882 139.796875 882 c 4xdc
 198.657226562 882 215.657226562 826 274.517578125 826 c 4
 301.161132812 826 335.326171875 843.396484375 357 868 c 5
 380 798 l 5
 353.486328125 773.053710938 309.4296875 755.26953125 273.638671875 755.06640625 c 4xe4
 207.000976562 754.686523438 201 805 140.701171875 805 c 4
 108.045898438 805 69.234375 787.188476562 47 762 c 5
 31 838 l 5xdc
246 0 m 1
 143 0 l 1
 143 720 l 1
 246 720 l 1
 246 0 l 1
EndSplineSet
EndChar

StartChar: itilde
Encoding: 194 297 207
Width: 416
VWidth: 1300
Flags: HW
HStem: 0 21G<155 258> 544 20G<155 258> 630 71<222.139 335.602> 680 77<73.6828 199.211>
VStem: 155 103<0 564>
LayerCount: 2
Fore
SplineSet
33 713 m 1xd8
 62.875 738.774414062 107.940429688 757 141.796875 757 c 0xd8
 200.657226562 757 217.657226562 701 276.517578125 701 c 0
 303.161132812 701 337.326171875 718.396484375 359 743 c 1
 382 673 l 1
 355.486328125 648.053710938 311.4296875 630.26953125 275.638671875 630.06640625 c 0xe8
 209.000976562 629.686523438 203 680 142.701171875 680 c 0
 110.045898438 680 71.234375 662.188476562 49 637 c 1
 33 713 l 1xd8
258 0 m 1
 155 0 l 1
 155 564 l 1
 258 564 l 1
 258 0 l 1
EndSplineSet
EndChar

StartChar: Uhorn
Encoding: 199 431 208
Width: 727
VWidth: 1300
Flags: HW
HStem: -17 105<216.806 413.114> 700 20G<46 149>
VStem: 46 103<156.864 720> 482 105<157.234 652.916> 614 80<736.119 846.669>
LayerCount: 2
Fore
SplineSet
591.544921875 835.8125 m 5
 655.600585938 882.826171875 l 5
 683.435546875 846.888671875 694 818.874023438 694 781 c 4
 694 712.337890625 656.471679688 665.459960938 586.168945312 646.3046875 c 5
 587 284 l 6
 587 88.4853515625 492.240234375 -17 316.60546875 -17 c 4
 139.87109375 -17 46 89.8427734375 46 291 c 6
 46 720 l 5
 149 720 l 5
 149 254 l 6
 149 142.02734375 203.985351562 88 317.944335938 88 c 4
 429.733398438 88 482 140.567382812 482 253 c 6
 483 720 l 5
 510 720 l 6
 586.852539062 720 614 736.4453125 614 783 c 4
 614 803.119140625 609.787109375 813.028320312 591.544921875 835.8125 c 5
EndSplineSet
EndChar

StartChar: uhorn
Encoding: 200 432 209
Width: 683
VWidth: 1300
Flags: HW
HStem: -16 94<202.923 357.092> 1 21G<460 563> 546 20G<43 146> 703.826 20G<577.351 616.647>
VStem: 43 103<139.978 566> 460 103<1 112 187.985 509.994> 563 84<586.668 685.702>
LayerCount: 2
Fore
SplineSet
563 1 m 5x7c
 460 1 l 5x7c
 460 112 l 5
 414.203125 25.384765625 347.41796875 -16 253.438476562 -16 c 4
 111.459960938 -16 43 78.017578125 43 273 c 6
 43 566 l 5
 146 566 l 5
 146 273 l 6
 146 132.319335938 179.123046875 78 264.909179688 78 c 4
 366.641601562 78 456.645507812 166.116210938 460 269 c 6
 460 566 l 5xbc
 520.3359375 566.354492188 563 592.864257812 563 630 c 4
 563 645.155273438 558.6796875 654.162109375 540.544921875 676.8125 c 5
 604.600585938 723.826171875 l 5
 637.484375 681.370117188 647 657.2734375 647 616.459960938 c 4xba
 647 555.165039062 619.323242188 517.934570312 563 503.465820312 c 5
 563 1 l 5x7c
EndSplineSet
EndChar

StartChar: perthousand
Encoding: 299 8240 210
Width: 1134
VWidth: 1300
Flags: HW
HStem: 0 76<524.525 639.022 881.525 996.02> 266 78<527.579 633.034 884.579 990.034> 376 77<138.916 248.938> 642 78<143.579 248.313>
VStem: 35 77<479.898 610.731> 274 79<477.419 615.427> 423 77<100.981 236.598> 662 79<100.419 238.352> 780 77<100.981 236.598> 1019 79<100.419 238.352>
LayerCount: 2
Fore
SplineSet
857 167.5 m 4
 857 110.557617188 888.400390625 76 940.142578125 76 c 4
 990.482421875 76 1019 108.548828125 1019 166.004882812 c 4
 1019 227.013671875 987.88671875 266 939.197265625 266 c 4
 890.006835938 266 857 226.447265625 857 167.5 c 4
780 172 m 4
 780 270.9140625 847.561523438 344 939 344 c 4
 1030.43847656 344 1098 270.9140625 1098 172 c 4
 1098 73.0859375 1030.43847656 0 939 0 c 4
 847.561523438 0 780 73.0859375 780 172 c 4
500 167.5 m 4
 500 110.557617188 531.400390625 76 583.142578125 76 c 4
 633.482421875 76 662 108.548828125 662 166.004882812 c 4
 662 227.013671875 630.88671875 266 582.197265625 266 c 4
 533.006835938 266 500 226.447265625 500 167.5 c 4
423 172 m 4
 423 270.9140625 490.561523438 344 582 344 c 4
 673.438476562 344 741 270.9140625 741 172 c 4
 741 73.0859375 673.438476562 0 582 0 c 4
 490.561523438 0 423 73.0859375 423 172 c 4
112 542.170898438 m 4
 112 488.2734375 144.455078125 453 194.048828125 453 c 4
 243.984375 453 274 487.981445312 274 546.178710938 c 4
 274 605.120117188 245.376953125 642 199.631835938 642 c 4
 149.373046875 642 112 599.42578125 112 542.170898438 c 4
35 548 m 4
 35 646.9140625 102.561523438 720 194 720 c 4
 285.438476562 720 353 646.9140625 353 548 c 4
 353 449.0859375 285.438476562 376 194 376 c 4
 102.561523438 376 35 449.0859375 35 548 c 4
544 719 m 5
 648 719 l 5
 223 2 l 5
 121 2 l 5
 544 719 l 5
EndSplineSet
EndChar

StartChar: uni2031
Encoding: 300 8241 211
Width: 1494
VWidth: 1300
Flags: HW
HStem: 0 76<524.525 639.022 881.525 996.02 1241.52 1356.02> 266 78<527.579 633.034 884.579 990.034 1244.58 1350.03> 376 77<138.916 248.938> 642 78<143.579 248.313>
VStem: 35 77<479.898 610.731> 274 79<477.419 615.427> 423 77<100.981 236.598> 662 79<100.419 238.352> 780 77<100.981 236.598> 1019 79<100.419 238.352> 1140 77<100.981 236.598> 1379 79<100.419 238.352>
LayerCount: 2
Fore
SplineSet
1217 167.5 m 0
 1217 110.557617188 1248.40039062 76 1300.14257812 76 c 0
 1350.48242188 76 1379 108.548828125 1379 166.004882812 c 0
 1379 227.013671875 1347.88671875 266 1299.19726562 266 c 0
 1250.00683594 266 1217 226.447265625 1217 167.5 c 0
1140 172 m 0
 1140 270.9140625 1207.56152344 344 1299 344 c 0
 1390.43847656 344 1458 270.9140625 1458 172 c 0
 1458 73.0859375 1390.43847656 0 1299 0 c 0
 1207.56152344 0 1140 73.0859375 1140 172 c 0
857 167.5 m 0
 857 110.557617188 888.400390625 76 940.142578125 76 c 0
 990.482421875 76 1019 108.548828125 1019 166.004882812 c 0
 1019 227.013671875 987.88671875 266 939.197265625 266 c 0
 890.006835938 266 857 226.447265625 857 167.5 c 0
780 172 m 0
 780 270.9140625 847.561523438 344 939 344 c 0
 1030.43847656 344 1098 270.9140625 1098 172 c 0
 1098 73.0859375 1030.43847656 0 939 0 c 0
 847.561523438 0 780 73.0859375 780 172 c 0
500 167.5 m 0
 500 110.557617188 531.400390625 76 583.142578125 76 c 0
 633.482421875 76 662 108.548828125 662 166.004882812 c 0
 662 227.013671875 630.88671875 266 582.197265625 266 c 0
 533.006835938 266 500 226.447265625 500 167.5 c 0
423 172 m 0
 423 270.9140625 490.561523438 344 582 344 c 0
 673.438476562 344 741 270.9140625 741 172 c 0
 741 73.0859375 673.438476562 0 582 0 c 0
 490.561523438 0 423 73.0859375 423 172 c 0
112 542.170898438 m 0
 112 488.2734375 144.455078125 453 194.048828125 453 c 0
 243.984375 453 274 487.981445312 274 546.178710938 c 0
 274 605.120117188 245.376953125 642 199.631835938 642 c 0
 149.373046875 642 112 599.42578125 112 542.170898438 c 0
35 548 m 0
 35 646.9140625 102.561523438 720 194 720 c 0
 285.438476562 720 353 646.9140625 353 548 c 0
 353 449.0859375 285.438476562 376 194 376 c 0
 102.561523438 376 35 449.0859375 35 548 c 0
544 719 m 1
 648 719 l 1
 223 2 l 1
 121 2 l 1
 544 719 l 1
EndSplineSet
EndChar

StartChar: uni2023
Encoding: 298 8227 212
Width: 247
Flags: HW
HStem: 170 188
VStem: 50 156
LayerCount: 2
Fore
SplineSet
50 358 m 1
 206 264 l 1
 50 170 l 1
 50 358 l 1
EndSplineSet
EndChar

StartChar: Adtb
Encoding: 201 7840 213
Width: 705
VWidth: 1300
Flags: HW
HStem: -199 118<313.339 404.661> -1 21G<33 149.023 557.519 671> 130 92<224 483> 700 20G<289.667 407.528>
VStem: 300 118<-185.661 -94.3386>
LayerCount: 2
Fore
SplineSet
300 -140 m 4
 300 -107 326 -81 359 -81 c 4
 392 -81 418 -107 418 -140 c 4
 418 -173 392 -199 359 -199 c 4
 326 -199 300 -173 300 -140 c 4
142 -1 m 1
 33 0 l 1
 297 720 l 1
 400 720 l 1
 671 0 l 1
 565 -1 l 1
 516 130 l 1
 188 130 l 1
 142 -1 l 1
351 600 m 1
 224 222 l 1
 483 222 l 1
 351 600 l 1
EndSplineSet
EndChar

StartChar: adtb
Encoding: 202 7841 214
Width: 621
VWidth: 1300
Flags: HW
HStem: -199 118<250.841 342.163> -10 100<166.848 372.353> 0 21G<482.502 570.502> 254 92<186.97 480.336> 476 97<222.546 406.971>
VStem: 34.5023 99<120.992 211.315> 237.502 118<-185.661 -94.3386> 482.502 88<0 86 177.332 235 328 401.763>
LayerCount: 2
Fore
SplineSet
237.501953125 -140 m 4x9f
 237.501953125 -107 263.501953125 -81 296.501953125 -81 c 4
 329.501953125 -81 355.501953125 -107 355.501953125 -140 c 4
 355.501953125 -173 329.501953125 -199 296.501953125 -199 c 4
 263.501953125 -199 237.501953125 -173 237.501953125 -140 c 4x9f
481.501953125 328 m 1
 478.508789062 416.8046875 411.715820312 476 314.505859375 476 c 0
 239.310546875 476 179.568359375 441.299804688 147.501953125 379 c 1
 54.501953125 415 l 1
 101.203125 511.993164062 205.306640625 573 324.1171875 573 c 0
 466.022460938 573 570.501953125 471.651367188 570.501953125 334 c 2
 570.501953125 0 l 1
 482.501953125 0 l 1xbf
 482.501953125 86 l 1
 433.905273438 27.462890625 346.512695312 -10 258.553710938 -10 c 0xdf
 131.670898438 -10 34.4892578125 66.4912109375 35.001953125 165.958007812 c 0
 35.55078125 272.485351562 143.932617188 346.008789062 300.40234375 346 c 0
 346.731445312 345.997070312 421.74609375 338.541015625 481.501953125 328 c 1
  Spiro
    481.502 328 v
    458.802 405.86 o
    402.84 457.444 o
    323.502 476 o
    251.494 465.983 o
    191.524 434.327 o
    147.502 379 v
    54.5023 415 v
    124.379 503.893 o
    220.977 556.071 o
    329.502 573 o
    463.876 535.773 o
    544.074 445.19 o
    570.502 334 [
    570.502 0 v
    482.502 0 v
    482.502 86 v
    427.012 37.5982 o
    355.315 3.08612 o
    278.502 -10 o
    148.685 14.2498 o
    64.3698 79.1179 o
    34.5023 172 o
    65.9596 257.48 o
    155.433 321.163 o
    297.502 346 o
    381.564 341.339 o
    452.073 332.658 o
    0 0 z
  EndSpiro
480.501953125 235 m 1
 418.509765625 246.20703125 343.825195312 254.06640625 300.196289062 253.974609375 c 0
 200.25390625 253.764648438 135.469726562 219.807617188 134.928710938 167.349609375 c 0
 134.439453125 119.9140625 181.651367188 90 257.005859375 90 c 0xdf
 379.40625 90 480.501953125 155.58984375 480.501953125 235 c 1
  Spiro
    480.502 235 v
    450.817 239.946 o
    383.615 249.14 o
    312.502 254 o
    219.507 243.921 o
    157.199 215.247 o
    133.502 170 o
    147.105 129.739 o
    187.26 100.942 o
    255.502 90 o
    360.402 107.336 o
    445.567 157.027 o
    0 0 z
  EndSpiro
EndSplineSet
EndChar

StartChar: Ahk
Encoding: 203 7842 215
Width: 706
VWidth: 1300
Flags: HW
HStem: -1 21G<34 150.023 558.519 672> 130 92<225 484> 700 20G<290.667 408.528> 884.78 55.04<316.665 457.681>
VStem: 461.08 64.5<835.102 875.535>
LayerCount: 2
Fore
SplineSet
525.580078125 851.240234375 m 5
 524.572265625 816.983398438 469.358398438 783.498046875 392.280273438 770.400390625 c 5
 330.360351562 799.639648438 l 5
 406.430664062 816.264648438 460.576171875 838.70703125 461.080078125 853.8203125 c 5
 461.080078125 871.237304688 432.362304688 884.780273438 395.426757812 884.780273438 c 4
 361.845703125 884.780273438 321.713867188 870.887695312 298.540039062 851.240234375 c 5
 258.98046875 892.51953125 l 5
 288.19921875 920.227539062 345.5546875 939.8203125 397.448242188 939.8203125 c 4
 475.375 939.8203125 525.580078125 905.112304688 525.580078125 851.240234375 c 5
143 -1 m 1
 34 0 l 1
 298 720 l 1
 401 720 l 1
 672 0 l 1
 566 -1 l 1
 517 130 l 1
 189 130 l 1
 143 -1 l 1
352 600 m 1
 225 222 l 1
 484 222 l 1
 352 600 l 1
EndSplineSet
EndChar

StartChar: ahk
Encoding: 204 7843 216
Width: 620
VWidth: 1300
Flags: HW
HStem: -10 100<166.848 372.353> 0 21G<482.502 570.502> 254 92<186.97 480.336> 476 97<222.546 406.971> 785.1 62.3105<269.005 404.565>
VStem: 34.5023 99<120.992 211.315> 415.742 68.8193<712.334 772.434> 482.502 88<0 86 177.332 235 328 401.763>
LayerCount: 2
Fore
SplineSet
484.561523438 735.809570312 m 5x3e
 483.858398438 691.8671875 420.682617188 642.944335938 332.041992188 617.700195312 c 5
 278.1015625 663.26953125 l 5
 358.729492188 686.150390625 415.7421875 718.124023438 415.7421875 740.459960938 c 5
 413.995117188 766.663085938 384.897460938 785.099609375 345.2890625 785.099609375 c 4
 310.290039062 785.099609375 266.28125 766.994140625 239.041992188 741.389648438 c 5
 196.26171875 786.030273438 l 5
 228.94921875 821.985351562 291.505859375 847.41015625 347.2890625 847.41015625 c 4
 429.690429688 847.41015625 484.561523438 802.80078125 484.561523438 735.809570312 c 5x3e
481.501953125 328 m 1
 478.508789062 416.8046875 411.715820312 476 314.505859375 476 c 0
 239.310546875 476 179.568359375 441.299804688 147.501953125 379 c 1
 54.501953125 415 l 1
 101.203125 511.993164062 205.306640625 573 324.1171875 573 c 0
 466.022460938 573 570.501953125 471.651367188 570.501953125 334 c 2
 570.501953125 0 l 1
 482.501953125 0 l 1x7d
 482.501953125 86 l 1
 433.905273438 27.462890625 346.512695312 -10 258.553710938 -10 c 0xbd
 131.670898438 -10 34.4892578125 66.4912109375 35.001953125 165.958007812 c 0
 35.55078125 272.485351562 143.932617188 346.008789062 300.40234375 346 c 0
 346.731445312 345.997070312 421.74609375 338.541015625 481.501953125 328 c 1
  Spiro
    481.502 328 v
    458.802 405.86 o
    402.84 457.444 o
    323.502 476 o
    251.494 465.983 o
    191.524 434.327 o
    147.502 379 v
    54.5023 415 v
    124.379 503.893 o
    220.977 556.071 o
    329.502 573 o
    463.876 535.773 o
    544.074 445.19 o
    570.502 334 [
    570.502 0 v
    482.502 0 v
    482.502 86 v
    427.012 37.5982 o
    355.315 3.08612 o
    278.502 -10 o
    148.685 14.2498 o
    64.3698 79.1179 o
    34.5023 172 o
    65.9596 257.48 o
    155.433 321.163 o
    297.502 346 o
    381.564 341.339 o
    452.073 332.658 o
    0 0 z
  EndSpiro
480.501953125 235 m 1
 418.509765625 246.20703125 343.825195312 254.06640625 300.196289062 253.974609375 c 0
 200.25390625 253.764648438 135.469726562 219.807617188 134.928710938 167.349609375 c 0
 134.439453125 119.9140625 181.651367188 90 257.005859375 90 c 0xbc
 379.40625 90 480.501953125 155.58984375 480.501953125 235 c 1
  Spiro
    480.502 235 v
    450.817 239.946 o
    383.615 249.14 o
    312.502 254 o
    219.507 243.921 o
    157.199 215.247 o
    133.502 170 o
    147.105 129.739 o
    187.26 100.942 o
    255.502 90 o
    360.402 107.336 o
    445.567 157.027 o
    0 0 z
  EndSpiro
EndSplineSet
EndChar

StartChar: Acrcflact
Encoding: 205 7844 217
Width: 785
VWidth: 1300
Flags: HW
HStem: -1 21G<34 150.023 558.519 672> 130 92<225 484> 700 20G<290.667 408.528> 762 21G<176 302.143 398.571 513>
LayerCount: 2
Fore
SplineSet
629 885 m 1
 753 885 l 1
 600 802 l 1
 502 802 l 1
 629 885 l 1
513 762 m 1
 425 762 l 1
 351 818 l 1
 275 762 l 1
 176 762 l 1
 302 855 l 1
 404 855 l 1
 513 762 l 1
143 -1 m 1
 34 0 l 1
 298 720 l 1
 401 720 l 1
 672 0 l 1
 566 -1 l 1
 517 130 l 1
 189 130 l 1
 143 -1 l 1
352 600 m 1
 225 222 l 1
 484 222 l 1
 352 600 l 1
EndSplineSet
EndChar

StartChar: acrcflact
Encoding: 206 7845 218
Width: 716
VWidth: 1300
Flags: HW
HStem: -10 100<166.848 372.353> 0 21G<482.502 570.502> 254 92<186.97 480.336> 476 97<222.546 406.971> 742 20G<253.696 390.771> 762 21G<416.502 554.982>
VStem: 34.5023 99<120.992 211.315> 482.502 88<0 86 177.332 235 328 401.763>
LayerCount: 2
Fore
SplineSet
559.501953125 887 m 5x37
 683.501953125 887 l 5
 530.501953125 762 l 5
 416.501953125 762 l 5
 559.501953125 887 l 5x37
483.501953125 628 m 1
 395.501953125 628 l 1
 321.501953125 705 l 1
 245.501953125 628 l 1
 146.501953125 628 l 1
 272.501953125 762 l 1
 374.501953125 762 l 1x3b
 483.501953125 628 l 1
481.501953125 328 m 1
 478.508789062 416.8046875 411.715820312 476 314.505859375 476 c 0
 239.310546875 476 179.568359375 441.299804688 147.501953125 379 c 1
 54.501953125 415 l 1
 101.203125 511.993164062 205.306640625 573 324.1171875 573 c 0
 466.022460938 573 570.501953125 471.651367188 570.501953125 334 c 2
 570.501953125 0 l 1
 482.501953125 0 l 1x73
 482.501953125 86 l 1
 433.905273438 27.462890625 346.512695312 -10 258.553710938 -10 c 0xb3
 131.670898438 -10 34.4892578125 66.4912109375 35.001953125 165.958007812 c 0
 35.55078125 272.485351562 143.932617188 346.008789062 300.40234375 346 c 0
 346.731445312 345.997070312 421.74609375 338.541015625 481.501953125 328 c 1
  Spiro
    481.502 328 v
    458.802 405.86 o
    402.84 457.444 o
    323.502 476 o
    251.494 465.983 o
    191.524 434.327 o
    147.502 379 v
    54.5023 415 v
    124.379 503.893 o
    220.977 556.071 o
    329.502 573 o
    463.876 535.773 o
    544.074 445.19 o
    570.502 334 [
    570.502 0 v
    482.502 0 v
    482.502 86 v
    427.012 37.5982 o
    355.315 3.08612 o
    278.502 -10 o
    148.685 14.2498 o
    64.3698 79.1179 o
    34.5023 172 o
    65.9596 257.48 o
    155.433 321.163 o
    297.502 346 o
    381.564 341.339 o
    452.073 332.658 o
    0 0 z
  EndSpiro
480.501953125 235 m 1
 418.509765625 246.20703125 343.825195312 254.06640625 300.196289062 253.974609375 c 0
 200.25390625 253.764648438 135.469726562 219.807617188 134.928710938 167.349609375 c 0
 134.439453125 119.9140625 181.651367188 90 257.005859375 90 c 0xb3
 379.40625 90 480.501953125 155.58984375 480.501953125 235 c 1
  Spiro
    480.502 235 v
    450.817 239.946 o
    383.615 249.14 o
    312.502 254 o
    219.507 243.921 o
    157.199 215.247 o
    133.502 170 o
    147.105 129.739 o
    187.26 100.942 o
    255.502 90 o
    360.402 107.336 o
    445.567 157.027 o
    0 0 z
  EndSpiro
EndSplineSet
EndChar

StartChar: Acrcflgrv
Encoding: 207 7846 219
Width: 783
VWidth: 1300
Flags: HW
HStem: -1 21G<111 227.023 635.519 749> 130 92<302 561> 700 20G<367.667 485.528> 762 21G<253 379.143 475.571 590>
LayerCount: 2
Fore
SplineSet
154 883 m 1
 281 800 l 1
 183 800 l 1
 30 883 l 1
 154 883 l 1
590 762 m 1
 502 762 l 1
 428 818 l 1
 352 762 l 1
 253 762 l 1
 379 855 l 1
 481 855 l 1
 590 762 l 1
220 -1 m 1
 111 0 l 1
 375 720 l 1
 478 720 l 1
 749 0 l 1
 643 -1 l 1
 594 130 l 1
 266 130 l 1
 220 -1 l 1
429 600 m 1
 302 222 l 1
 561 222 l 1
 429 600 l 1
EndSplineSet
EndChar

StartChar: acrcflgrv
Encoding: 208 7847 220
Width: 675
VWidth: 1300
Flags: HW
HStem: -10 100<222.346 427.851> 0 21G<538 626> 254 92<242.468 535.834> 476 97<278.044 462.469> 742 20G<309.194 446.269>
VStem: 90 99<120.992 211.315> 538 88<0 86 177.332 235 328 401.763>
LayerCount: 2
Fore
SplineSet
154 888 m 1x3e
 281 762 l 1
 183 762 l 1
 30 888 l 1
 154 888 l 1x3e
539 628 m 1
 451 628 l 1
 377 705 l 1
 301 628 l 1
 202 628 l 1
 328 762 l 1
 430 762 l 1
 539 628 l 1
537 328 m 1
 534.006835938 416.8046875 467.213867188 476 370.002929688 476 c 0
 294.80859375 476 235.06640625 441.299804688 203 379 c 1
 110 415 l 1
 156.700195312 511.993164062 260.803710938 573 379.615234375 573 c 0
 521.520507812 573 626 471.651367188 626 334 c 2
 626 0 l 1
 538 0 l 1x7e
 538 86 l 1
 489.40234375 27.462890625 402.010742188 -10 314.051757812 -10 c 0xbe
 187.16796875 -10 89.9873046875 66.4912109375 90.5 165.958007812 c 0
 91.048828125 272.485351562 199.4296875 346.008789062 355.899414062 346 c 0
 402.229492188 345.997070312 477.243164062 338.541015625 537 328 c 1
  Spiro
    537 328 v
    514.3 405.86 o
    458.338 457.444 o
    379 476 o
    306.992 465.983 o
    247.022 434.327 o
    203 379 v
    110 415 v
    179.877 503.893 o
    276.475 556.071 o
    385 573 o
    519.374 535.773 o
    599.572 445.19 o
    626 334 [
    626 0 v
    538 0 v
    538 86 v
    482.51 37.5982 o
    410.813 3.08612 o
    334 -10 o
    204.183 14.2498 o
    119.868 79.1179 o
    90 172 o
    121.457 257.48 o
    210.931 321.163 o
    353 346 o
    437.062 341.339 o
    507.571 332.658 o
    0 0 z
  EndSpiro
536 235 m 1
 474.0078125 246.20703125 399.323242188 254.06640625 355.694335938 253.974609375 c 0
 255.751953125 253.764648438 190.966796875 219.807617188 190.426757812 167.349609375 c 0
 189.9375 119.9140625 237.149414062 90 312.50390625 90 c 0xbe
 434.903320312 90 536 155.58984375 536 235 c 1
  Spiro
    536 235 v
    506.315 239.946 o
    439.113 249.14 o
    368 254 o
    275.005 243.921 o
    212.697 215.247 o
    189 170 o
    202.603 129.739 o
    242.758 100.942 o
    311 90 o
    415.9 107.336 o
    501.065 157.027 o
    0 0 z
  EndSpiro
EndSplineSet
EndChar

StartChar: Acrcflhk
Encoding: 209 7848 221
Width: 741
VWidth: 1300
Flags: HW
HStem: -1 21G<34 150.023 558.519 672> 130 92<225 484> 700 20G<290.667 408.528> 762 21G<176 302.143 398.571 513> 918.38 55.04<500.384 641.401>
VStem: 644.8 64.5<868.701 909.135>
LayerCount: 2
Fore
SplineSet
709.299804688 884.83984375 m 5
 708.291992188 850.583007812 653.078125 817.09765625 576 804 c 5
 514.080078125 833.239257812 l 5
 590.150390625 849.864257812 644.295898438 872.306640625 644.799804688 887.419921875 c 5
 644.799804688 904.836914062 616.08203125 918.379882812 579.146484375 918.379882812 c 4
 545.565429688 918.379882812 505.43359375 904.487304688 482.259765625 884.83984375 c 5
 442.700195312 926.119140625 l 5
 471.918945312 953.827148438 529.274414062 973.419921875 581.16796875 973.419921875 c 4
 659.094726562 973.419921875 709.299804688 938.711914062 709.299804688 884.83984375 c 5
513 762 m 1
 425 762 l 1
 351 818 l 1
 275 762 l 1
 176 762 l 1
 302 855 l 1
 404 855 l 1
 513 762 l 1
143 -1 m 1
 34 0 l 1
 298 720 l 1
 401 720 l 1
 672 0 l 1
 566 -1 l 1
 517 130 l 1
 189 130 l 1
 143 -1 l 1
352 600 m 1
 225 222 l 1
 484 222 l 1
 352 600 l 1
EndSplineSet
EndChar

StartChar: acrcflhk
Encoding: 210 7849 222
Width: 647
VWidth: 1300
Flags: HW
HStem: -10 100<166.848 372.353> 0 21G<482.502 570.502> 254 92<186.97 480.336> 476 97<222.546 406.971> 742 20G<253.696 390.771> 929.399 62.3105<399.465 535.025>
VStem: 34.5023 99<120.992 211.315> 482.502 88<0 86 177.332 235 328 401.763> 546.202 68.8193<856.634 916.734>
LayerCount: 2
Fore
SplineSet
615.021484375 880.109375 m 1x3e80
 614.318359375 836.166992188 551.142578125 787.244140625 462.501953125 762 c 1
 408.561523438 807.569335938 l 1
 489.189453125 830.450195312 546.202148438 862.423828125 546.202148438 884.759765625 c 1
 544.455078125 910.962890625 515.357421875 929.399414062 475.749023438 929.399414062 c 0
 440.75 929.399414062 396.741210938 911.293945312 369.501953125 885.689453125 c 1
 326.721679688 930.330078125 l 1
 359.409179688 966.28515625 421.965820312 991.709960938 477.749023438 991.709960938 c 0
 560.150390625 991.709960938 615.021484375 947.100585938 615.021484375 880.109375 c 1x3e80
483.501953125 628 m 1
 395.501953125 628 l 1
 321.501953125 705 l 1
 245.501953125 628 l 1
 146.501953125 628 l 1
 272.501953125 762 l 1
 374.501953125 762 l 1
 483.501953125 628 l 1
481.501953125 328 m 1
 478.508789062 416.8046875 411.715820312 476 314.505859375 476 c 0
 239.310546875 476 179.568359375 441.299804688 147.501953125 379 c 1
 54.501953125 415 l 1
 101.203125 511.993164062 205.306640625 573 324.1171875 573 c 0
 466.022460938 573 570.501953125 471.651367188 570.501953125 334 c 2
 570.501953125 0 l 1
 482.501953125 0 l 1x7f
 482.501953125 86 l 1
 433.905273438 27.462890625 346.512695312 -10 258.553710938 -10 c 0xbf
 131.670898438 -10 34.4892578125 66.4912109375 35.001953125 165.958007812 c 0
 35.55078125 272.485351562 143.932617188 346.008789062 300.40234375 346 c 0
 346.731445312 345.997070312 421.74609375 338.541015625 481.501953125 328 c 1
  Spiro
    481.502 328 v
    458.802 405.86 o
    402.84 457.444 o
    323.502 476 o
    251.494 465.983 o
    191.524 434.327 o
    147.502 379 v
    54.5023 415 v
    124.379 503.893 o
    220.977 556.071 o
    329.502 573 o
    463.876 535.773 o
    544.074 445.19 o
    570.502 334 [
    570.502 0 v
    482.502 0 v
    482.502 86 v
    427.012 37.5982 o
    355.315 3.08612 o
    278.502 -10 o
    148.685 14.2498 o
    64.3698 79.1179 o
    34.5023 172 o
    65.9596 257.48 o
    155.433 321.163 o
    297.502 346 o
    381.564 341.339 o
    452.073 332.658 o
    0 0 z
  EndSpiro
480.501953125 235 m 1
 418.509765625 246.20703125 343.825195312 254.06640625 300.196289062 253.974609375 c 0
 200.25390625 253.764648438 135.469726562 219.807617188 134.928710938 167.349609375 c 0
 134.439453125 119.9140625 181.651367188 90 257.005859375 90 c 0xbe
 379.40625 90 480.501953125 155.58984375 480.501953125 235 c 1
  Spiro
    480.502 235 v
    450.817 239.946 o
    383.615 249.14 o
    312.502 254 o
    219.507 243.921 o
    157.199 215.247 o
    133.502 170 o
    147.105 129.739 o
    187.26 100.942 o
    255.502 90 o
    360.402 107.336 o
    445.567 157.027 o
    0 0 z
  EndSpiro
EndSplineSet
EndChar

StartChar: Acrcfltld
Encoding: 211 7850 223
Width: 706
VWidth: 1300
Flags: HW
HStem: -1 21G<34 150.023 558.519 672> 130 92<225 484> 700 20G<290.667 408.528> 762 21G<176 302.143 398.571 513> 876 71<364.139 477.602> 926 77<215.683 341.211>
LayerCount: 2
Fore
SplineSet
175 959 m 5xf4
 204.875 984.774414062 249.940429688 1003 283.796875 1003 c 4xf4
 342.657226562 1003 359.657226562 947 418.517578125 947 c 4
 445.161132812 947 479.326171875 964.396484375 501 989 c 5
 524 919 l 5
 497.486328125 894.053710938 453.4296875 876.26953125 417.638671875 876.06640625 c 4xf8
 351.000976562 875.686523438 345 926 284.701171875 926 c 4
 252.045898438 926 213.234375 908.188476562 191 883 c 5
 175 959 l 5xf4
513 762 m 1
 425 762 l 1
 351 818 l 1
 275 762 l 1
 176 762 l 1
 302 855 l 1
 404 855 l 1
 513 762 l 1
143 -1 m 1
 34 0 l 1
 298 720 l 1
 401 720 l 1
 672 0 l 1
 566 -1 l 1
 517 130 l 1
 189 130 l 1
 143 -1 l 1
352 600 m 1
 225 222 l 1
 484 222 l 1
 352 600 l 1
EndSplineSet
EndChar

StartChar: acrcfltld
Encoding: 212 7851 224
Width: 620
VWidth: 1300
Flags: HW
HStem: -10 100<166.848 372.353> 0 21G<482.502 570.502> 254 92<186.97 480.336> 476 97<222.546 406.971> 742 20G<253.696 390.771> 800 71<331.641 445.104> 850 77<183.185 308.713>
VStem: 34.5023 99<120.992 211.315> 482.502 88<0 86 177.332 235 328 401.763>
LayerCount: 2
Fore
SplineSet
142.501953125 883 m 1x3b80
 172.376953125 908.774414062 217.442382812 927 251.298828125 927 c 0x3b80
 310.159179688 927 327.159179688 871 386.020507812 871 c 0
 412.663085938 871 446.828125 888.396484375 468.501953125 913 c 1
 491.501953125 843 l 1
 464.98828125 818.053710938 420.931640625 800.26953125 385.140625 800.06640625 c 0x3d80
 318.502929688 799.686523438 312.501953125 850 252.203125 850 c 0
 219.548828125 850 180.736328125 832.188476562 158.501953125 807 c 1
 142.501953125 883 l 1x3b80
483.501953125 628 m 1
 395.501953125 628 l 1
 321.501953125 705 l 1
 245.501953125 628 l 1
 146.501953125 628 l 1
 272.501953125 762 l 1
 374.501953125 762 l 1
 483.501953125 628 l 1
481.501953125 328 m 1
 478.508789062 416.8046875 411.715820312 476 314.505859375 476 c 0
 239.310546875 476 179.568359375 441.299804688 147.501953125 379 c 1
 54.501953125 415 l 1
 101.203125 511.993164062 205.306640625 573 324.1171875 573 c 0
 466.022460938 573 570.501953125 471.651367188 570.501953125 334 c 2
 570.501953125 0 l 1
 482.501953125 0 l 1x7980
 482.501953125 86 l 1
 433.905273438 27.462890625 346.512695312 -10 258.553710938 -10 c 0xb980
 131.670898438 -10 34.4892578125 66.4912109375 35.001953125 165.958007812 c 0
 35.55078125 272.485351562 143.932617188 346.008789062 300.40234375 346 c 0
 346.731445312 345.997070312 421.74609375 338.541015625 481.501953125 328 c 1
  Spiro
    481.502 328 v
    458.802 405.86 o
    402.84 457.444 o
    323.502 476 o
    251.494 465.983 o
    191.524 434.327 o
    147.502 379 v
    54.5023 415 v
    124.379 503.893 o
    220.977 556.071 o
    329.502 573 o
    463.876 535.773 o
    544.074 445.19 o
    570.502 334 [
    570.502 0 v
    482.502 0 v
    482.502 86 v
    427.012 37.5982 o
    355.315 3.08612 o
    278.502 -10 o
    148.685 14.2498 o
    64.3698 79.1179 o
    34.5023 172 o
    65.9596 257.48 o
    155.433 321.163 o
    297.502 346 o
    381.564 341.339 o
    452.073 332.658 o
    0 0 z
  EndSpiro
480.501953125 235 m 1
 418.509765625 246.20703125 343.825195312 254.06640625 300.196289062 253.974609375 c 0
 200.25390625 253.764648438 135.469726562 219.807617188 134.928710938 167.349609375 c 0
 134.439453125 119.9140625 181.651367188 90 257.005859375 90 c 0xb980
 379.40625 90 480.501953125 155.58984375 480.501953125 235 c 1
  Spiro
    480.502 235 v
    450.817 239.946 o
    383.615 249.14 o
    312.502 254 o
    219.507 243.921 o
    157.199 215.247 o
    133.502 170 o
    147.105 129.739 o
    187.26 100.942 o
    255.502 90 o
    360.402 107.336 o
    445.567 157.027 o
    0 0 z
  EndSpiro
EndSplineSet
EndChar

StartChar: uni1EAC
Encoding: 213 7852 225
Width: 706
VWidth: 1300
Flags: HW
HStem: -199 118<314.339 405.661> -1 21G<34 150.023 558.519 672> 130 92<225 484> 700 20G<290.667 408.528> 762 21G<176 302.143 398.571 513>
VStem: 301 118<-185.661 -94.3386>
LayerCount: 2
Fore
SplineSet
301 -140 m 4
 301 -107 327 -81 360 -81 c 4
 393 -81 419 -107 419 -140 c 4
 419 -173 393 -199 360 -199 c 4
 327 -199 301 -173 301 -140 c 4
513 762 m 1
 425 762 l 1
 351 818 l 1
 275 762 l 1
 176 762 l 1
 302 855 l 1
 404 855 l 1
 513 762 l 1
143 -1 m 1
 34 0 l 1
 298 720 l 1
 401 720 l 1
 672 0 l 1
 566 -1 l 1
 517 130 l 1
 189 130 l 1
 143 -1 l 1
352 600 m 1
 225 222 l 1
 484 222 l 1
 352 600 l 1
EndSplineSet
EndChar

StartChar: uni1EAD
Encoding: 214 7853 226
Width: 620
VWidth: 1300
Flags: HW
HStem: -199 118<250.841 342.163> -10 100<166.848 372.353> 0 21G<482.502 570.502> 254 92<186.97 480.336> 476 97<222.546 406.971> 742 20G<253.696 390.771>
VStem: 34.5023 99<120.992 211.315> 237.502 118<-185.661 -94.3386> 482.502 88<0 86 177.332 235 328 401.763>
LayerCount: 2
Fore
SplineSet
237.501953125 -140 m 4x9f80
 237.501953125 -107 263.501953125 -81 296.501953125 -81 c 4
 329.501953125 -81 355.501953125 -107 355.501953125 -140 c 4
 355.501953125 -173 329.501953125 -199 296.501953125 -199 c 4
 263.501953125 -199 237.501953125 -173 237.501953125 -140 c 4x9f80
483.501953125 628 m 1
 395.501953125 628 l 1
 321.501953125 705 l 1
 245.501953125 628 l 1
 146.501953125 628 l 1
 272.501953125 762 l 1
 374.501953125 762 l 1
 483.501953125 628 l 1
481.501953125 328 m 1
 478.508789062 416.8046875 411.715820312 476 314.505859375 476 c 0
 239.310546875 476 179.568359375 441.299804688 147.501953125 379 c 1
 54.501953125 415 l 1
 101.203125 511.993164062 205.306640625 573 324.1171875 573 c 0
 466.022460938 573 570.501953125 471.651367188 570.501953125 334 c 2
 570.501953125 0 l 1
 482.501953125 0 l 1xbf80
 482.501953125 86 l 1
 433.905273438 27.462890625 346.512695312 -10 258.553710938 -10 c 0xdf80
 131.670898438 -10 34.4892578125 66.4912109375 35.001953125 165.958007812 c 0
 35.55078125 272.485351562 143.932617188 346.008789062 300.40234375 346 c 0
 346.731445312 345.997070312 421.74609375 338.541015625 481.501953125 328 c 1
  Spiro
    481.502 328 v
    458.802 405.86 o
    402.84 457.444 o
    323.502 476 o
    251.494 465.983 o
    191.524 434.327 o
    147.502 379 v
    54.5023 415 v
    124.379 503.893 o
    220.977 556.071 o
    329.502 573 o
    463.876 535.773 o
    544.074 445.19 o
    570.502 334 [
    570.502 0 v
    482.502 0 v
    482.502 86 v
    427.012 37.5982 o
    355.315 3.08612 o
    278.502 -10 o
    148.685 14.2498 o
    64.3698 79.1179 o
    34.5023 172 o
    65.9596 257.48 o
    155.433 321.163 o
    297.502 346 o
    381.564 341.339 o
    452.073 332.658 o
    0 0 z
  EndSpiro
480.501953125 235 m 1
 418.509765625 246.20703125 343.825195312 254.06640625 300.196289062 253.974609375 c 0
 200.25390625 253.764648438 135.469726562 219.807617188 134.928710938 167.349609375 c 0
 134.439453125 119.9140625 181.651367188 90 257.005859375 90 c 0xdf80
 379.40625 90 480.501953125 155.58984375 480.501953125 235 c 1
  Spiro
    480.502 235 v
    450.817 239.946 o
    383.615 249.14 o
    312.502 254 o
    219.507 243.921 o
    157.199 215.247 o
    133.502 170 o
    147.105 129.739 o
    187.26 100.942 o
    255.502 90 o
    360.402 107.336 o
    445.567 157.027 o
    0 0 z
  EndSpiro
EndSplineSet
EndChar

StartChar: uni1EAE
Encoding: 215 7854 227
Width: 706
VWidth: 1300
Flags: HW
HStem: -1 21G<34 150.023 558.519 672> 130 92<225 484> 700 20G<290.667 408.528> 762 58<272.792 423.725>
VStem: 189 75<833.997 862> 430 72<831.563 862>
LayerCount: 2
Fore
SplineSet
431 981 m 5
 555 981 l 5
 402 898 l 5
 304 898 l 5
 431 981 l 5
502 862 m 1
 502 802.174804688 438.974609375 762 345.12109375 762 c 0
 250.495117188 762 189 801.389648438 189 862 c 1
 264 862 l 1
 264 835.995117188 297.653320312 820 352.368164062 820 c 0
 403.502929688 820 430 834.334960938 430 862 c 1
 502 862 l 1
143 -1 m 1
 34 0 l 1
 298 720 l 1
 401 720 l 1
 672 0 l 1
 566 -1 l 1
 517 130 l 1
 189 130 l 1
 143 -1 l 1
352 600 m 1
 225 222 l 1
 484 222 l 1
 352 600 l 1
EndSplineSet
EndChar

StartChar: uni1EAF
Encoding: 216 7855 228
Width: 620
VWidth: 1300
Flags: HW
HStem: -10 100<166.848 372.353> 0 21G<482.502 570.502> 254 92<186.97 480.336> 476 97<222.546 406.971> 623 67<259.685 385.734> 742 20G<161.502 236.502 402.502 474.502>
VStem: 34.5023 99<120.992 211.315> 161.502 75<713.846 762> 402.502 72<709.7 762> 482.502 88<0 86 177.332 235 328 401.763>
LayerCount: 2
Fore
SplineSet
409.501953125 926 m 1x3fc0
 533.501953125 926 l 1
 380.501953125 801 l 1
 266.501953125 801 l 1
 409.501953125 926 l 1x3fc0
474.501953125 762 m 1
 474.501953125 674.598632812 416.491210938 623 318.227539062 623 c 0
 219.373046875 623 161.501953125 674.326171875 161.501953125 762 c 1
 236.501953125 762 l 1
 236.501953125 718.423828125 271.44921875 690 325.026367188 690 c 0
 375.229492188 690 402.501953125 715.344726562 402.501953125 762 c 1
 474.501953125 762 l 1
481.501953125 328 m 1
 478.508789062 416.8046875 411.715820312 476 314.505859375 476 c 0
 239.310546875 476 179.568359375 441.299804688 147.501953125 379 c 1
 54.501953125 415 l 1
 101.203125 511.993164062 205.306640625 573 324.1171875 573 c 0
 466.022460938 573 570.501953125 471.651367188 570.501953125 334 c 2
 570.501953125 0 l 1
 482.501953125 0 l 1x7fc0
 482.501953125 86 l 1
 433.905273438 27.462890625 346.512695312 -10 258.553710938 -10 c 0xbfc0
 131.670898438 -10 34.4892578125 66.4912109375 35.001953125 165.958007812 c 0
 35.55078125 272.485351562 143.932617188 346.008789062 300.40234375 346 c 0
 346.731445312 345.997070312 421.74609375 338.541015625 481.501953125 328 c 1
  Spiro
    481.502 328 v
    458.802 405.86 o
    402.84 457.444 o
    323.502 476 o
    251.494 465.983 o
    191.524 434.327 o
    147.502 379 v
    54.5023 415 v
    124.379 503.893 o
    220.977 556.071 o
    329.502 573 o
    463.876 535.773 o
    544.074 445.19 o
    570.502 334 [
    570.502 0 v
    482.502 0 v
    482.502 86 v
    427.012 37.5982 o
    355.315 3.08612 o
    278.502 -10 o
    148.685 14.2498 o
    64.3698 79.1179 o
    34.5023 172 o
    65.9596 257.48 o
    155.433 321.163 o
    297.502 346 o
    381.564 341.339 o
    452.073 332.658 o
    0 0 z
  EndSpiro
480.501953125 235 m 1
 418.509765625 246.20703125 343.825195312 254.06640625 300.196289062 253.974609375 c 0
 200.25390625 253.764648438 135.469726562 219.807617188 134.928710938 167.349609375 c 0
 134.439453125 119.9140625 181.651367188 90 257.005859375 90 c 0xbfc0
 379.40625 90 480.501953125 155.58984375 480.501953125 235 c 1
  Spiro
    480.502 235 v
    450.817 239.946 o
    383.615 249.14 o
    312.502 254 o
    219.507 243.921 o
    157.199 215.247 o
    133.502 170 o
    147.105 129.739 o
    187.26 100.942 o
    255.502 90 o
    360.402 107.336 o
    445.567 157.027 o
    0 0 z
  EndSpiro
EndSplineSet
EndChar

StartChar: uni1EB0
Encoding: 217 7856 229
Width: 706
VWidth: 1300
Flags: HW
HStem: -1 21G<34 150.023 558.519 672> 130 92<225 484> 700 20G<290.667 408.528> 762 58<272.792 423.725>
VStem: 189 75<833.997 862> 430 72<831.563 862>
LayerCount: 2
Fore
SplineSet
318 977 m 5
 445 894 l 5
 347 894 l 5
 194 977 l 5
 318 977 l 5
502 862 m 1
 502 802.174804688 438.974609375 762 345.12109375 762 c 0
 250.495117188 762 189 801.389648438 189 862 c 1
 264 862 l 1
 264 835.995117188 297.653320312 820 352.368164062 820 c 0
 403.502929688 820 430 834.334960938 430 862 c 1
 502 862 l 1
143 -1 m 1
 34 0 l 1
 298 720 l 1
 401 720 l 1
 672 0 l 1
 566 -1 l 1
 517 130 l 1
 189 130 l 1
 143 -1 l 1
352 600 m 1
 225 222 l 1
 484 222 l 1
 352 600 l 1
EndSplineSet
EndChar

StartChar: uni1EB1
Encoding: 218 7857 230
Width: 620
VWidth: 1300
Flags: HW
HStem: -10 100<166.848 372.353> 0 21G<482.502 570.502> 254 92<186.97 480.336> 476 97<222.546 406.971> 623 67<259.685 385.734> 742 20G<161.502 236.502 402.502 474.502>
VStem: 34.5023 99<120.992 211.315> 161.502 75<713.846 762> 402.502 72<709.7 762> 482.502 88<0 86 177.332 235 328 401.763>
LayerCount: 2
Fore
SplineSet
274.501953125 926 m 5x3fc0
 401.501953125 800 l 5
 303.501953125 800 l 5
 150.501953125 926 l 5
 274.501953125 926 l 5x3fc0
474.501953125 762 m 1
 474.501953125 674.598632812 416.491210938 623 318.227539062 623 c 0
 219.373046875 623 161.501953125 674.326171875 161.501953125 762 c 1
 236.501953125 762 l 1
 236.501953125 718.423828125 271.44921875 690 325.026367188 690 c 0
 375.229492188 690 402.501953125 715.344726562 402.501953125 762 c 1
 474.501953125 762 l 1
481.501953125 328 m 1
 478.508789062 416.8046875 411.715820312 476 314.505859375 476 c 0
 239.310546875 476 179.568359375 441.299804688 147.501953125 379 c 1
 54.501953125 415 l 1
 101.203125 511.993164062 205.306640625 573 324.1171875 573 c 0
 466.022460938 573 570.501953125 471.651367188 570.501953125 334 c 2
 570.501953125 0 l 1
 482.501953125 0 l 1x7fc0
 482.501953125 86 l 1
 433.905273438 27.462890625 346.512695312 -10 258.553710938 -10 c 0xbfc0
 131.670898438 -10 34.4892578125 66.4912109375 35.001953125 165.958007812 c 0
 35.55078125 272.485351562 143.932617188 346.008789062 300.40234375 346 c 0
 346.731445312 345.997070312 421.74609375 338.541015625 481.501953125 328 c 1
  Spiro
    481.502 328 v
    458.802 405.86 o
    402.84 457.444 o
    323.502 476 o
    251.494 465.983 o
    191.524 434.327 o
    147.502 379 v
    54.5023 415 v
    124.379 503.893 o
    220.977 556.071 o
    329.502 573 o
    463.876 535.773 o
    544.074 445.19 o
    570.502 334 [
    570.502 0 v
    482.502 0 v
    482.502 86 v
    427.012 37.5982 o
    355.315 3.08612 o
    278.502 -10 o
    148.685 14.2498 o
    64.3698 79.1179 o
    34.5023 172 o
    65.9596 257.48 o
    155.433 321.163 o
    297.502 346 o
    381.564 341.339 o
    452.073 332.658 o
    0 0 z
  EndSpiro
480.501953125 235 m 1
 418.509765625 246.20703125 343.825195312 254.06640625 300.196289062 253.974609375 c 0
 200.25390625 253.764648438 135.469726562 219.807617188 134.928710938 167.349609375 c 0
 134.439453125 119.9140625 181.651367188 90 257.005859375 90 c 0xbfc0
 379.40625 90 480.501953125 155.58984375 480.501953125 235 c 1
  Spiro
    480.502 235 v
    450.817 239.946 o
    383.615 249.14 o
    312.502 254 o
    219.507 243.921 o
    157.199 215.247 o
    133.502 170 o
    147.105 129.739 o
    187.26 100.942 o
    255.502 90 o
    360.402 107.336 o
    445.567 157.027 o
    0 0 z
  EndSpiro
EndSplineSet
EndChar

StartChar: uni1EB2
Encoding: 219 7858 231
Width: 706
VWidth: 1300
Flags: HW
HStem: -1 21G<34 150.023 558.519 672> 130 92<225 484> 700 20G<290.667 408.528> 762 58<272.792 423.725> 990.38 55.04<285.384 426.401>
VStem: 189 75<833.997 862> 429.8 64.5<940.701 981.135> 430 72<831.563 862>
LayerCount: 2
Fore
SplineSet
494.299804688 956.83984375 m 5xfe
 493.291992188 922.583007812 438.078125 889.09765625 361 876 c 5
 299.080078125 905.239257812 l 5
 375.150390625 921.864257812 429.295898438 944.306640625 429.799804688 959.419921875 c 5
 429.799804688 976.836914062 401.08203125 990.379882812 364.146484375 990.379882812 c 4
 330.565429688 990.379882812 290.43359375 976.487304688 267.259765625 956.83984375 c 5
 227.700195312 998.119140625 l 5
 256.918945312 1025.82714844 314.274414062 1045.41992188 366.16796875 1045.41992188 c 4
 444.094726562 1045.41992188 494.299804688 1010.71191406 494.299804688 956.83984375 c 5xfe
502 862 m 1xfd
 502 802.174804688 438.974609375 762 345.12109375 762 c 0
 250.495117188 762 189 801.389648438 189 862 c 1
 264 862 l 1
 264 835.995117188 297.653320312 820 352.368164062 820 c 0
 403.502929688 820 430 834.334960938 430 862 c 1
 502 862 l 1xfd
143 -1 m 1
 34 0 l 1
 298 720 l 1
 401 720 l 1
 672 0 l 1
 566 -1 l 1
 517 130 l 1
 189 130 l 1
 143 -1 l 1
352 600 m 1
 225 222 l 1
 484 222 l 1
 352 600 l 1
EndSplineSet
EndChar

StartChar: uni1EB3
Encoding: 220 7859 232
Width: 620
VWidth: 1300
Flags: HW
HStem: -10 100<166.848 372.353> 0 21G<482.502 570.502> 254 92<186.97 480.336> 476 97<222.546 406.971> 623 67<259.685 385.734> 742 20G<161.502 236.502 402.502 474.502> 966.399 62.3105<259.465 395.025>
VStem: 34.5023 99<120.992 211.315> 161.502 75<713.846 762> 406.202 68.8193<712.912 762 893.634 953.734> 482.502 88<0 86 177.332 235 328 401.763>
LayerCount: 2
Fore
SplineSet
475.021484375 917.109375 m 5x3fe0
 474.318359375 873.166992188 411.142578125 824.244140625 322.501953125 799 c 5
 268.561523438 844.569335938 l 5
 349.189453125 867.450195312 406.202148438 899.423828125 406.202148438 921.759765625 c 5
 404.455078125 947.962890625 375.357421875 966.399414062 335.749023438 966.399414062 c 4
 300.75 966.399414062 256.741210938 948.293945312 229.501953125 922.689453125 c 5
 186.721679688 967.330078125 l 5
 219.409179688 1003.28515625 281.965820312 1028.70996094 337.749023438 1028.70996094 c 4
 420.150390625 1028.70996094 475.021484375 984.100585938 475.021484375 917.109375 c 5x3fe0
474.501953125 762 m 1
 474.501953125 674.598632812 416.491210938 623 318.227539062 623 c 0
 219.373046875 623 161.501953125 674.326171875 161.501953125 762 c 1
 236.501953125 762 l 1
 236.501953125 718.423828125 271.44921875 690 325.026367188 690 c 0
 375.229492188 690 402.501953125 715.344726562 402.501953125 762 c 1
 474.501953125 762 l 1
481.501953125 328 m 1
 478.508789062 416.8046875 411.715820312 476 314.505859375 476 c 0
 239.310546875 476 179.568359375 441.299804688 147.501953125 379 c 1
 54.501953125 415 l 1
 101.203125 511.993164062 205.306640625 573 324.1171875 573 c 0
 466.022460938 573 570.501953125 471.651367188 570.501953125 334 c 2
 570.501953125 0 l 1
 482.501953125 0 l 1x7fe0
 482.501953125 86 l 1
 433.905273438 27.462890625 346.512695312 -10 258.553710938 -10 c 0xbfe0
 131.670898438 -10 34.4892578125 66.4912109375 35.001953125 165.958007812 c 0
 35.55078125 272.485351562 143.932617188 346.008789062 300.40234375 346 c 0
 346.731445312 345.997070312 421.74609375 338.541015625 481.501953125 328 c 1
  Spiro
    481.502 328 v
    458.802 405.86 o
    402.84 457.444 o
    323.502 476 o
    251.494 465.983 o
    191.524 434.327 o
    147.502 379 v
    54.5023 415 v
    124.379 503.893 o
    220.977 556.071 o
    329.502 573 o
    463.876 535.773 o
    544.074 445.19 o
    570.502 334 [
    570.502 0 v
    482.502 0 v
    482.502 86 v
    427.012 37.5982 o
    355.315 3.08612 o
    278.502 -10 o
    148.685 14.2498 o
    64.3698 79.1179 o
    34.5023 172 o
    65.9596 257.48 o
    155.433 321.163 o
    297.502 346 o
    381.564 341.339 o
    452.073 332.658 o
    0 0 z
  EndSpiro
480.501953125 235 m 1
 418.509765625 246.20703125 343.825195312 254.06640625 300.196289062 253.974609375 c 0
 200.25390625 253.764648438 135.469726562 219.807617188 134.928710938 167.349609375 c 0
 134.439453125 119.9140625 181.651367188 90 257.005859375 90 c 0xbfe0
 379.40625 90 480.501953125 155.58984375 480.501953125 235 c 1
  Spiro
    480.502 235 v
    450.817 239.946 o
    383.615 249.14 o
    312.502 254 o
    219.507 243.921 o
    157.199 215.247 o
    133.502 170 o
    147.105 129.739 o
    187.26 100.942 o
    255.502 90 o
    360.402 107.336 o
    445.567 157.027 o
    0 0 z
  EndSpiro
EndSplineSet
EndChar

StartChar: uni1EB4
Encoding: 221 7860 233
Width: 706
VWidth: 1300
Flags: HW
HStem: -1 21G<34 150.023 558.519 672> 130 92<225 484> 700 20G<290.667 408.528> 762 58<272.792 423.725> 903 71<355.139 468.602> 953 77<206.683 332.211>
VStem: 189 75<833.997 862> 430 72<831.563 862>
LayerCount: 2
Fore
SplineSet
166 986 m 5xf7
 195.875 1011.77441406 240.940429688 1030 274.796875 1030 c 4xf7
 333.657226562 1030 350.657226562 974 409.517578125 974 c 4
 436.161132812 974 470.326171875 991.396484375 492 1016 c 5
 515 946 l 5
 488.486328125 921.053710938 444.4296875 903.26953125 408.638671875 903.06640625 c 4xfb
 342.000976562 902.686523438 336 953 275.701171875 953 c 4
 243.045898438 953 204.234375 935.188476562 182 910 c 5
 166 986 l 5xf7
502 862 m 1
 502 802.174804688 438.974609375 762 345.12109375 762 c 0
 250.495117188 762 189 801.389648438 189 862 c 1
 264 862 l 1
 264 835.995117188 297.653320312 820 352.368164062 820 c 0
 403.502929688 820 430 834.334960938 430 862 c 1
 502 862 l 1
143 -1 m 1
 34 0 l 1
 298 720 l 1
 401 720 l 1
 672 0 l 1
 566 -1 l 1
 517 130 l 1
 189 130 l 1
 143 -1 l 1
352 600 m 1
 225 222 l 1
 484 222 l 1
 352 600 l 1
EndSplineSet
EndChar

StartChar: uni1EB5
Encoding: 222 7861 234
Width: 620
VWidth: 1300
Flags: HW
HStem: -10 100<166.848 372.353> 0 21G<482.502 570.502> 254 92<186.97 480.336> 476 97<222.546 406.971> 623 67<259.685 385.734> 742 20G<161.502 236.502 402.502 474.502> 800 71<320.641 434.104> 850 77<172.185 297.713>
VStem: 34.5023 99<120.992 211.315> 161.502 75<713.846 762> 402.502 72<709.7 762> 482.502 88<0 86 177.332 235 328 401.763>
LayerCount: 2
Fore
SplineSet
131.501953125 883 m 5x3df0
 161.376953125 908.774414062 206.442382812 927 240.298828125 927 c 4x3df0
 299.159179688 927 316.159179688 871 375.020507812 871 c 4
 401.663085938 871 435.828125 888.396484375 457.501953125 913 c 5
 480.501953125 843 l 5
 453.98828125 818.053710938 409.931640625 800.26953125 374.140625 800.06640625 c 4x3ef0
 307.502929688 799.686523438 301.501953125 850 241.203125 850 c 4
 208.548828125 850 169.736328125 832.188476562 147.501953125 807 c 5
 131.501953125 883 l 5x3df0
474.501953125 762 m 1
 474.501953125 674.598632812 416.491210938 623 318.227539062 623 c 0
 219.373046875 623 161.501953125 674.326171875 161.501953125 762 c 1
 236.501953125 762 l 1
 236.501953125 718.423828125 271.44921875 690 325.026367188 690 c 0
 375.229492188 690 402.501953125 715.344726562 402.501953125 762 c 1
 474.501953125 762 l 1
481.501953125 328 m 1
 478.508789062 416.8046875 411.715820312 476 314.505859375 476 c 0
 239.310546875 476 179.568359375 441.299804688 147.501953125 379 c 1
 54.501953125 415 l 1
 101.203125 511.993164062 205.306640625 573 324.1171875 573 c 0
 466.022460938 573 570.501953125 471.651367188 570.501953125 334 c 2
 570.501953125 0 l 1
 482.501953125 0 l 1x7cf0
 482.501953125 86 l 1
 433.905273438 27.462890625 346.512695312 -10 258.553710938 -10 c 0xbcf0
 131.670898438 -10 34.4892578125 66.4912109375 35.001953125 165.958007812 c 0
 35.55078125 272.485351562 143.932617188 346.008789062 300.40234375 346 c 0
 346.731445312 345.997070312 421.74609375 338.541015625 481.501953125 328 c 1
  Spiro
    481.502 328 v
    458.802 405.86 o
    402.84 457.444 o
    323.502 476 o
    251.494 465.983 o
    191.524 434.327 o
    147.502 379 v
    54.5023 415 v
    124.379 503.893 o
    220.977 556.071 o
    329.502 573 o
    463.876 535.773 o
    544.074 445.19 o
    570.502 334 [
    570.502 0 v
    482.502 0 v
    482.502 86 v
    427.012 37.5982 o
    355.315 3.08612 o
    278.502 -10 o
    148.685 14.2498 o
    64.3698 79.1179 o
    34.5023 172 o
    65.9596 257.48 o
    155.433 321.163 o
    297.502 346 o
    381.564 341.339 o
    452.073 332.658 o
    0 0 z
  EndSpiro
480.501953125 235 m 1
 418.509765625 246.20703125 343.825195312 254.06640625 300.196289062 253.974609375 c 0
 200.25390625 253.764648438 135.469726562 219.807617188 134.928710938 167.349609375 c 0
 134.439453125 119.9140625 181.651367188 90 257.005859375 90 c 0xbcf0
 379.40625 90 480.501953125 155.58984375 480.501953125 235 c 1
  Spiro
    480.502 235 v
    450.817 239.946 o
    383.615 249.14 o
    312.502 254 o
    219.507 243.921 o
    157.199 215.247 o
    133.502 170 o
    147.105 129.739 o
    187.26 100.942 o
    255.502 90 o
    360.402 107.336 o
    445.567 157.027 o
    0 0 z
  EndSpiro
EndSplineSet
EndChar

StartChar: uni1EB6
Encoding: 223 7862 235
Width: 706
VWidth: 1300
Flags: HW
HStem: -199 118<314.339 405.661> -1 21G<34 150.023 558.519 672> 130 92<225 484> 700 20G<290.667 408.528> 762 58<272.792 423.725>
VStem: 189 75<833.997 862> 301 118<-185.661 -94.3386> 430 72<831.563 862>
LayerCount: 2
Fore
SplineSet
301 -140 m 4
 301 -107 327 -81 360 -81 c 4
 393 -81 419 -107 419 -140 c 4
 419 -173 393 -199 360 -199 c 4
 327 -199 301 -173 301 -140 c 4
502 862 m 1
 502 802.174804688 438.974609375 762 345.12109375 762 c 0
 250.495117188 762 189 801.389648438 189 862 c 1
 264 862 l 1
 264 835.995117188 297.653320312 820 352.368164062 820 c 0
 403.502929688 820 430 834.334960938 430 862 c 1
 502 862 l 1
143 -1 m 1
 34 0 l 1
 298 720 l 1
 401 720 l 1
 672 0 l 1
 566 -1 l 1
 517 130 l 1
 189 130 l 1
 143 -1 l 1
352 600 m 1
 225 222 l 1
 484 222 l 1
 352 600 l 1
EndSplineSet
EndChar

StartChar: uni1EB7
Encoding: 224 7863 236
Width: 620
VWidth: 1300
Flags: HW
HStem: -199 118<250.841 342.163> -10 100<166.848 372.353> 0 21G<482.502 570.502> 254 92<186.97 480.336> 476 97<222.546 406.971> 623 67<259.685 385.734> 742 20G<161.502 236.502 402.502 474.502>
VStem: 34.5023 99<120.992 211.315> 161.502 75<713.846 762> 237.502 118<-185.661 -94.3386> 402.502 72<709.7 762> 482.502 88<0 86 177.332 235 328 401.763>
LayerCount: 2
Fore
SplineSet
237.501953125 -140 m 4x9ff0
 237.501953125 -107 263.501953125 -81 296.501953125 -81 c 4
 329.501953125 -81 355.501953125 -107 355.501953125 -140 c 4
 355.501953125 -173 329.501953125 -199 296.501953125 -199 c 4
 263.501953125 -199 237.501953125 -173 237.501953125 -140 c 4x9ff0
474.501953125 762 m 1
 474.501953125 674.598632812 416.491210938 623 318.227539062 623 c 0
 219.373046875 623 161.501953125 674.326171875 161.501953125 762 c 1
 236.501953125 762 l 1
 236.501953125 718.423828125 271.44921875 690 325.026367188 690 c 0
 375.229492188 690 402.501953125 715.344726562 402.501953125 762 c 1
 474.501953125 762 l 1
481.501953125 328 m 1
 478.508789062 416.8046875 411.715820312 476 314.505859375 476 c 0
 239.310546875 476 179.568359375 441.299804688 147.501953125 379 c 1
 54.501953125 415 l 1
 101.203125 511.993164062 205.306640625 573 324.1171875 573 c 0
 466.022460938 573 570.501953125 471.651367188 570.501953125 334 c 2
 570.501953125 0 l 1
 482.501953125 0 l 1xbff0
 482.501953125 86 l 1
 433.905273438 27.462890625 346.512695312 -10 258.553710938 -10 c 0xdff0
 131.670898438 -10 34.4892578125 66.4912109375 35.001953125 165.958007812 c 0
 35.55078125 272.485351562 143.932617188 346.008789062 300.40234375 346 c 0
 346.731445312 345.997070312 421.74609375 338.541015625 481.501953125 328 c 1
  Spiro
    481.502 328 v
    458.802 405.86 o
    402.84 457.444 o
    323.502 476 o
    251.494 465.983 o
    191.524 434.327 o
    147.502 379 v
    54.5023 415 v
    124.379 503.893 o
    220.977 556.071 o
    329.502 573 o
    463.876 535.773 o
    544.074 445.19 o
    570.502 334 [
    570.502 0 v
    482.502 0 v
    482.502 86 v
    427.012 37.5982 o
    355.315 3.08612 o
    278.502 -10 o
    148.685 14.2498 o
    64.3698 79.1179 o
    34.5023 172 o
    65.9596 257.48 o
    155.433 321.163 o
    297.502 346 o
    381.564 341.339 o
    452.073 332.658 o
    0 0 z
  EndSpiro
480.501953125 235 m 1
 418.509765625 246.20703125 343.825195312 254.06640625 300.196289062 253.974609375 c 0
 200.25390625 253.764648438 135.469726562 219.807617188 134.928710938 167.349609375 c 0
 134.439453125 119.9140625 181.651367188 90 257.005859375 90 c 0xdff0
 379.40625 90 480.501953125 155.58984375 480.501953125 235 c 1
  Spiro
    480.502 235 v
    450.817 239.946 o
    383.615 249.14 o
    312.502 254 o
    219.507 243.921 o
    157.199 215.247 o
    133.502 170 o
    147.105 129.739 o
    187.26 100.942 o
    255.502 90 o
    360.402 107.336 o
    445.567 157.027 o
    0 0 z
  EndSpiro
EndSplineSet
EndChar

StartChar: uni1EB8
Encoding: 225 7864 237
Width: 565
VWidth: 1300
Flags: HW
HStem: -199 118<244.339 335.661>
VStem: 231 118<-185.661 -94.3386>
LayerCount: 2
Fore
SplineSet
231 -140 m 4
 231 -107 257 -81 290 -81 c 4
 323 -81 349 -107 349 -140 c 4
 349 -173 323 -199 290 -199 c 4
 257 -199 231 -173 231 -140 c 4
525 104 m 1
 525 0 l 1
 47 0 l 1
 47 720 l 1
 524 720 l 1
 524 618 l 1
 147 618 l 1
 147 426 l 1
 477 426 l 1
 477 328 l 1
 147 328 l 1
 147 104 l 1
 525 104 l 1
EndSplineSet
EndChar

